<svg xmlns="http://www.w3.org/2000/svg">
<defs>
<font id="GTAmerica-ExtendedBold" horiz-adv-x="1427" >
  <font-face 
    font-family="GT America Extended Bold"
    font-weight="700"
    font-stretch="expanded"
    units-per-em="2048"
    panose-1="0 0 8 5 0 0 0 0 0 0"
    ascent="1638"
    descent="-410"
    x-height="1024"
    cap-height="1454"
    bbox="-1049 -498 2988.01 2005"
    underline-thickness="102"
    underline-position="-307"
    unicode-range="U+000D-FB02"
  />
<missing-glyph horiz-adv-x="2084" 
d="M2044 1358h-1131v-96h1131v-99h-1131v-96h1131v-98h-1131v-97h1131v-96h-1131v-98h1131v-96h-2003v872h2003v-96zM137 1366l27 18h-33l-10 31l-8 -31h-33l26 -18l-10 -31l25 19l26 -19zM291 1384h-33l27 -18l-11 -31l25 21l27 -21l-11 31l25 18h-31l-10 31zM469 1384h-33
l27 -18l-10 -31l24 21l27 -21l-10 31l24 18h-31l-10 31zM645 1384h-31l27 -18l-10 -31l24 21l27 -21l-10 31l24 18h-30l-11 31zM850 1366l24 18h-30l-10 31l-11 -31h-30l24 -18l-8 -31l25 21l26 -21zM201 1294h-31l25 -18l-9 -29l25 19l25 -19l-9 29l25 18h-31l-10 31z
M760 1276l26 18h-32l-9 31l-10 -31h-30l24 -18l-10 -29l26 19l25 -19zM559 745v191h193v164h-193v192h-164v-192h-190v-164h190v-191h164zM137 1188l27 18h-33l-10 29l-8 -29h-33l26 -18l-10 -31l25 19l26 -19zM291 1206h-33l27 -18l-11 -31l25 19l27 -19l-11 31l25 18h-31
l-10 29zM645 1206h-31l27 -18l-10 -31l24 19l27 -19l-10 31l24 18h-30l-11 29zM850 1188l24 18h-30l-10 29l-11 -29h-30l24 -18l-8 -31l25 19l26 -19zM137 1008l27 20h-33l-10 29l-8 -29h-33l26 -20l-10 -29l25 18l26 -18zM850 1008l24 20h-30l-10 29l-11 -29h-30l24 -20
l-8 -29l25 18l26 -18zM137 829l27 19h-33l-10 31l-8 -31h-33l26 -19l-10 -28l25 18l26 -18zM315 829l25 19h-31l-10 31l-8 -31h-33l27 -19l-11 -28l25 18l27 -18zM672 829l24 19h-30l-11 31l-10 -31h-31l27 -19l-10 -28l24 18l27 -18zM850 829l24 19h-30l-10 31l-11 -31h-30
l24 -19l-8 -28l25 18l26 -18zM236 711l-9 30l25 19h-31l-10 28l-10 -28h-31l25 -19l-9 -30l25 18zM770 711l-10 30l26 19h-32l-9 28l-10 -28h-30l24 -19l-10 -30l26 18zM147 621l-10 30l27 19h-33l-10 30l-8 -30h-33l26 -19l-10 -30l25 18zM326 621l-11 30l25 19h-31l-10 30

<glyph glyph-name="fi" unicode="fi" horiz-adv-x="1626" 
d="M938 1024v-229h-328v-795h-350v795h-225v229h225v70q0 407 475 407q107 0 203 -22v-246q-74 14 -150 14q-94 0 -136 -37t-42 -120v-66h328zM1116 1171v306h369v-306h-369zM1124 0v1024h351v-1024h-351z" />
    <glyph glyph-name="fl" unicode="fl" horiz-adv-x="1646" 
d="M938 1024v-229h-328v-795h-350v795h-225v229h225v70q0 407 475 407q107 0 203 -22v-246q-74 14 -150 14q-94 0 -136 -37t-42 -120v-66h328zM1485 1485v-1485h-350v1485h350z" />
    <glyph glyph-name="g_g.liga" unicode="gg" horiz-adv-x="2717" 
d="M975 1012q26 93 104.5 142.5t200.5 49.5q36 0 63 -6v-227q-50 12 -106 12q-88 0 -131 -35q129 -91 129 -241q0 -163 -150 -259t-409 -96q-154 0 -270 35q-41 -21 -41 -57q0 -80 137 -80h389q204 0 305.5 -79.5t101.5 -229.5q0 -182 -167 -276.5t-496 -94.5
q-280 0 -430 61t-150 183q0 130 185 184q-154 57 -154 195q0 87 57.5 146.5t157.5 88.5q-184 97 -184 279q0 162 149.5 255t409.5 93q177 0 299 -43zM2679 973q-55 10 -107 10q-90 0 -139 -35q129 -91 129 -241q0 -164 -151 -259.5t-408 -95.5q-134 0 -250 29
q-31 -19 -31 -51q0 -80 142 -80h389q204 -1 304.5 -80.5t100.5 -228.5q0 -182 -170 -276.5t-495 -94.5q-277 0 -426.5 61t-149.5 183q0 128 180 184q-75 26 -114 76.5t-39 118.5q0 164 194 229q-93 46 -143.5 119t-50.5 166q0 163 149 255.5t410 92.5q174 0 299 -41
q28 92 108 141t205 49q37 0 64 -6v-225zM676 528q100 0 158.5 48t58.5 131q0 82 -58 128t-159 46q-100 0 -158.5 -46.5t-58.5 -127.5q0 -83 58.5 -131t158.5 -48zM2003 528q100 0 158.5 48t58.5 131q0 81 -58.5 127.5t-158.5 46.5q-101 0 -159 -46t-58 -128q0 -83 58.5 -131
t158.5 -48zM844 -33l-426 4q-24 0 -64 4q-43 -37 -43 -92q0 -135 346 -135q179 0 258.5 29t79.5 94q0 50 -37.5 73t-113.5 23zM2206 -33l-424 2q-46 0 -66 2q-43 -34 -43 -88q0 -135 342 -135q180 0 261 29t81 94q0 96 -151 96z" />
    <glyph glyph-name=".notdef" horiz-adv-x="2084" 
d="M2044 1358h-1131v-96h1131v-99h-1131v-96h1131v-98h-1131v-97h1131v-96h-1131v-98h1131v-96h-2003v872h2003v-96zM137 1366l27 18h-33l-10 31l-8 -31h-33l26 -18l-10 -31l25 19l26 -19zM291 1384h-33l27 -18l-11 -31l25 21l27 -21l-11 31l25 18h-31l-10 31zM469 1384h-33
l27 -18l-10 -31l24 21l27 -21l-10 31l24 18h-31l-10 31zM645 1384h-31l27 -18l-10 -31l24 21l27 -21l-10 31l24 18h-30l-11 31zM850 1366l24 18h-30l-10 31l-11 -31h-30l24 -18l-8 -31l25 21l26 -21zM201 1294h-31l25 -18l-9 -29l25 19l25 -19l-9 29l25 18h-31l-10 31z
M760 1276l26 18h-32l-9 31l-10 -31h-30l24 -18l-10 -29l26 19l25 -19zM559 745v191h193v164h-193v192h-164v-192h-190v-164h190v-191h164zM137 1188l27 18h-33l-10 29l-8 -29h-33l26 -18l-10 -31l25 19l26 -19zM291 1206h-33l27 -18l-11 -31l25 19l27 -19l-11 31l25 18h-31
l-10 29zM645 1206h-31l27 -18l-10 -31l24 19l27 -19l-10 31l24 18h-30l-11 29zM850 1188l24 18h-30l-10 29l-11 -29h-30l24 -18l-8 -31l25 19l26 -19zM137 1008l27 20h-33l-10 29l-8 -29h-33l26 -20l-10 -29l25 18l26 -18zM850 1008l24 20h-30l-10 29l-11 -29h-30l24 -20
l-8 -29l25 18l26 -18zM137 829l27 19h-33l-10 31l-8 -31h-33l26 -19l-10 -28l25 18l26 -18zM315 829l25 19h-31l-10 31l-8 -31h-33l27 -19l-11 -28l25 18l27 -18zM672 829l24 19h-30l-11 31l-10 -31h-31l27 -19l-10 -28l24 18l27 -18zM850 829l24 19h-30l-10 31l-11 -31h-30
l24 -19l-8 -28l25 18l26 -18zM236 711l-9 30l25 19h-31l-10 28l-10 -28h-31l25 -19l-9 -30l25 18zM770 711l-10 30l26 19h-32l-9 28l-10 -28h-30l24 -19l-10 -30l26 18zM147 621l-10 30l27 19h-33l-10 30l-8 -30h-33l26 -19l-10 -30l25 18zM326 621l-11 30l25 19h-31l-10 30
l-8 -30h-33l27 -19l-11 -30l25 18zM504 621l-10 30l24 19h-31l-10 30l-8 -30h-33l27 -19l-10 -30l24 18zM682 621l-10 30l24 19h-30l-11 30l-10 -30h-31l27 -19l-10 -30l24 18zM860 621l-10 30l24 19h-30l-10 30l-11 -30h-30l24 -19l-8 -30l25 18zM41 387v98h2001v-98h-2001
zM41 195v96h2003v-96h-2003zM41 0v96h2003v-96h-2003z" />
    <glyph glyph-name=".null" horiz-adv-x="0" 
 />
    <glyph glyph-name=".null" horiz-adv-x="0" 
 />
    <glyph glyph-name="nonmarkingreturn" horiz-adv-x="682" 
 />
    <glyph glyph-name="CR" unicode="&#xd;" horiz-adv-x="0" 
 />
    <glyph glyph-name="space" unicode=" " horiz-adv-x="638" 
 />
    <glyph glyph-name="exclam" unicode="!" horiz-adv-x="741" 
d="M225 481l-53 1004h397l-55 -1004h-289zM565 315v-315h-391v315h391z" />
    <glyph glyph-name="quotedbl" unicode="&#x22;" horiz-adv-x="1030" 
d="M174 811l-47 643h332l-47 -643h-238zM621 811l-48 643h332l-47 -643h-237z" />
    <glyph glyph-name="numbersign" unicode="#" horiz-adv-x="1517" 
d="M1489 842h-293l-49 -262h272v-224h-315l-68 -356h-266l68 356h-303l-68 -356h-264l67 356h-241v224h284l49 262h-251v223h292l68 352h266l-67 -352h303l67 352h265l-68 -352h252v-223zM881 580l49 262h-303l-49 -262h303z" />
    <glyph glyph-name="dollar" unicode="$" horiz-adv-x="1492" 
d="M1440 418q0 -199 -167.5 -320t-459.5 -133v-182h-139v182q-240 10 -415 95.5t-259 230.5l262 176q127 -217 412 -248v391l-133 21q-453 74 -453 411q0 186 154.5 295.5t431.5 120.5v178h139v-178q403 -21 600 -270l-235 -189q-109 186 -365 213v-348l150 -20
q248 -42 362.5 -142.5t114.5 -283.5zM414 1061q0 -72 58 -111.5t202 -64.5v334q-260 -9 -260 -158zM813 215q142 6 217.5 52.5t75.5 129.5q0 82 -59 123.5t-199 65.5l-35 4v-375z" />
    <glyph glyph-name="percent" unicode="%" horiz-adv-x="2045" 
d="M311 -33l1180 1516h248l-1180 -1516h-248zM487 692q-208 0 -332.5 107t-123.5 286q-1 177 123.5 283.5t330.5 106.5q204 0 330 -108.5t125 -285.5q1 -176 -124.5 -282.5t-328.5 -106.5zM487 883q88 0 139.5 51t51.5 147q0 99 -51.5 151t-141.5 52t-142 -51.5t-52 -147.5
q0 -99 52 -150.5t144 -51.5zM1563 -31q-208 0 -333 107t-124 286q-1 176 124 283t331 107q204 0 329.5 -108t124.5 -286q1 -176 -124.5 -282.5t-327.5 -106.5zM1563 160q88 0 139 51t51 147q0 99 -51 151t-141 52t-142.5 -51.5t-52.5 -147.5q0 -99 52.5 -150.5t144.5 -51.5z
" />
    <glyph glyph-name="ampersand" unicode="&#x26;" horiz-adv-x="1622" 
d="M1505 236q52 0 88 10v-246q-83 -27 -155 -27q-179 0 -332 127q-215 -141 -496 -141q-278 0 -431.5 116.5t-153.5 305.5q0 131 77 225t248 174q-95 97 -137.5 178t-42.5 175q0 177 131 276.5t346 99.5q219 0 349 -96t130 -258q0 -124 -85.5 -224.5t-231.5 -168.5l-14 -6
l313 -285q92 148 127 367l268 -54q-44 -289 -192 -487q91 -61 194 -61zM651 1307q-77 0 -121.5 -42.5t-44.5 -119.5q0 -55 32 -109t118 -137l22 10q81 35 122.5 95.5t41.5 138.5q0 76 -44 120t-126 44zM379 410q0 -93 80.5 -152t204.5 -59q136 0 251 71l-397 357
q-74 -44 -106.5 -95.5t-32.5 -121.5z" />
    <glyph glyph-name="quotesingle" unicode="'" horiz-adv-x="585" 
d="M174 811l-47 643h332l-47 -643h-238z" />
    <glyph glyph-name="parenleft" unicode="(" horiz-adv-x="786" 
d="M516 -289q-190 192 -295.5 441t-105.5 514q0 268 105.5 510t297.5 428l260 -105q-172 -190 -253 -395t-81 -440q0 -471 336 -846z" />
    <glyph glyph-name="parenright" unicode=")" horiz-adv-x="786" 
d="M270 -289l-264 107q336 375 336 846q0 235 -81 440t-253 395l260 105q192 -186 298 -428t106 -510q0 -265 -105.5 -514t-296.5 -441z" />
    <glyph glyph-name="asterisk" unicode="*" horiz-adv-x="829" 
d="M811 1110l-287 -33l221 -194l-206 -148l-123 266l-125 -266l-205 148l221 194l-287 33l78 240l250 -148l-61 277h258l-62 -277l248 148z" />
    <glyph glyph-name="plus" unicode="+" horiz-adv-x="1269" 
d="M1178 784v-221h-422v-393h-244v393h-420v221h420v371h244v-371h422z" />
    <glyph glyph-name="comma" unicode="," horiz-adv-x="624" 
d="M205 -324l-58 142q90 24 125 65t35 111v6h-180v348h371v-325q0 -283 -293 -347z" />
    <glyph glyph-name="hyphen" unicode="-" horiz-adv-x="1028" 
d="M92 709h844v-277h-844v277z" />
    <glyph glyph-name="period" unicode="." horiz-adv-x="632" 
d="M506 334v-334h-379v334h379z" />
    <glyph glyph-name="slash" unicode="/" horiz-adv-x="1224" 
d="M406 -240h-320l733 1796h320z" />
    <glyph glyph-name="zero" unicode="0" horiz-adv-x="1562" 
d="M780 -39q-324 0 -514 200t-190 550q0 351 189.5 551t514.5 200t516 -200t191 -551q0 -349 -191 -549.5t-516 -200.5zM780 227q160 0 251 124.5t91 359.5q0 237 -91 361t-251 124q-159 0 -249.5 -124t-90.5 -361q0 -235 91 -359.5t249 -124.5z" />
    <glyph glyph-name="one" unicode="1" horiz-adv-x="972" 
d="M408 0v969q-44 -44 -122.5 -69.5t-170.5 -25.5h-72v308h45q146 3 239 62t140 179h293v-1423h-352z" />
    <glyph glyph-name="two" unicode="2" horiz-adv-x="1423" 
d="M63 0v252q445 208 666 369q118 86 166.5 167t48.5 181q0 104 -63 164.5t-187 60.5q-123 0 -192.5 -63.5t-69.5 -176.5q0 -36 10 -94l-362 35q-8 41 -8 96q0 213 173.5 342t459.5 129q292 0 454 -124t162 -343q0 -146 -71.5 -262.5t-211.5 -218.5q-190 -133 -467 -240h772
v-274h-1280z" />
    <glyph glyph-name="three" unicode="3" horiz-adv-x="1439" 
d="M711 -39q-299 0 -473.5 128.5t-182.5 350.5l359 33q8 -120 85.5 -185t213.5 -65q134 0 205 51.5t71 145.5q0 98 -72 142t-217 44h-116v228h114q128 0 195.5 47t67.5 137q0 89 -67.5 137.5t-193.5 48.5q-133 0 -205 -68t-75 -192l-352 43q3 214 174 344.5t469 130.5
q295 0 454.5 -107.5t159.5 -299.5q0 -129 -88.5 -213t-228.5 -107q170 -22 262 -107.5t92 -232.5q0 -197 -173 -315.5t-478 -118.5z" />
    <glyph glyph-name="four" unicode="4" horiz-adv-x="1452" 
d="M1434 311h-254v-311h-351v311h-806v232l763 880h394v-862h254v-250zM840 969q0 123 6 168h-6q-26 -57 -109 -152l-256 -301q-72 -83 -119 -123h484v408z" />
    <glyph glyph-name="five" unicode="5" horiz-adv-x="1413" 
d="M700 -39q-259 0 -428 111t-204 305l348 51q20 -95 95 -149t189 -54q135 0 210 67t75 187t-72.5 188t-199.5 68q-213 0 -285 -176l-317 29l92 835h1052v-268h-786l-43 -332q54 75 156.5 116.5t236.5 41.5q246 0 385 -131t139 -363q0 -244 -172.5 -385t-470.5 -141z" />
    <glyph glyph-name="six" unicode="6" horiz-adv-x="1452" 
d="M848 967q253 0 393.5 -128.5t140.5 -357.5q0 -231 -173.5 -375.5t-452.5 -144.5q-324 0 -503 191.5t-179 537.5q0 363 182 567.5t506 204.5q251 0 406.5 -101t193.5 -290l-346 -49q-50 182 -262 182q-156 0 -244 -109.5t-96 -310.5q135 183 434 183zM750 219
q130 0 207 68t77 184q0 117 -74 183.5t-206 66.5q-115 0 -201 -56.5t-127 -158.5q26 -139 109.5 -213t214.5 -74z" />
    <glyph glyph-name="seven" unicode="7" horiz-adv-x="1259" 
d="M301 0v29q0 308 151 593t427 519h-844v282h1200v-264q-264 -225 -404.5 -494t-140.5 -602v-63h-389z" />
    <glyph glyph-name="eight" unicode="8" horiz-adv-x="1468" 
d="M1085 784q168 -57 246 -150.5t78 -238.5q0 -200 -181.5 -317t-492.5 -117t-492.5 110t-181.5 298q0 264 312 340q-139 54 -205 139t-66 211q0 183 170 293t453 110q285 0 456 -102.5t171 -272.5q0 -229 -267 -303zM727 1233q-129 0 -201.5 -46t-72.5 -128q0 -72 62 -117
t202 -74l131 -26q82 35 119 83t37 119q0 89 -72.5 139t-204.5 50zM739 209q141 0 224.5 52.5t83.5 141.5q0 82 -67 131t-220 80l-144 31q-100 -37 -146 -92t-46 -137q0 -97 83.5 -152t231.5 -55z" />
    <glyph glyph-name="nine" unicode="9" horiz-adv-x="1452" 
d="M700 1462q328 0 503 -186t175 -541q0 -369 -174 -571.5t-510 -202.5q-247 0 -406.5 105t-199.5 296l346 56q26 -93 96.5 -143t178.5 -50q161 0 245 114.5t86 324.5q-62 -79 -167.5 -121.5t-245.5 -42.5q-259 0 -408 125t-149 344q0 222 171.5 357.5t458.5 135.5zM698 748
q120 0 209 54t123 146q-21 124 -102 195t-221 71q-133 0 -211 -64.5t-78 -174.5q0 -104 75.5 -165.5t204.5 -61.5z" />
    <glyph glyph-name="colon" unicode=":" horiz-adv-x="632" 
d="M506 1024v-334h-379v334h379zM506 334v-334h-379v334h379z" />
    <glyph glyph-name="semicolon" unicode=";" horiz-adv-x="632" 
d="M506 1024v-334h-379v334h379zM205 -324l-58 142q90 24 125 65t35 111v6h-180v348h371v-325q0 -283 -293 -347z" />
    <glyph glyph-name="less" unicode="&#x3c;" 
d="M1196 145l-1046 410v225l1046 410v-248l-764 -272l764 -273v-252z" />
    <glyph glyph-name="equal" unicode="=" horiz-adv-x="1257" 
d="M92 762v217h1073v-217h-1073zM92 369v217h1073v-217h-1073z" />
    <glyph glyph-name="greater" unicode="&#x3e;" 
d="M231 145v252l764 273l-764 272v248l1047 -410v-225z" />
    <glyph glyph-name="question" unicode="?" horiz-adv-x="1316" 
d="M463 428v86q0 80 37.5 143t126.5 113l139 76q75 42 111 91.5t36 123.5q0 87 -66.5 141.5t-184.5 54.5q-130 0 -205.5 -60.5t-75.5 -172.5q0 -60 12 -100l-348 28q-12 49 -12 111q0 203 169 324.5t460 121.5q285 0 448.5 -111.5t163.5 -305.5q0 -226 -236 -371l-129 -74
q-60 -36 -83 -72.5t-23 -91.5v-55h-340zM442 0v315h385v-315h-385z" />
    <glyph glyph-name="at" unicode="@" horiz-adv-x="1875" 
d="M934 -213q-410 0 -646.5 208.5t-236.5 569.5q0 230 112.5 410t318.5 280.5t472 100.5q397 0 634 -205t237 -545q0 -219 -107.5 -346t-290.5 -127q-238 0 -292 170q-51 -86 -144.5 -133t-216.5 -47q-149 0 -238.5 71t-89.5 189q0 121 85.5 186t273.5 90l313 35v29
q0 151 -176 151q-165 0 -174 -135h-295q7 145 138 233.5t335 88.5q222 0 336.5 -90.5t114.5 -268.5v-268q0 -77 24.5 -111t81.5 -34q77 0 121.5 83.5t44.5 229.5q0 290 -188.5 453.5t-528.5 163.5q-342 0 -540.5 -177t-198.5 -477q0 -293 200 -465t543 -172q103 0 218 22.5
t198 59.5l58 -125q-203 -98 -496 -98zM887 311q103 0 168 53.5t65 139.5v51l-221 -25q-158 -21 -158 -116q0 -46 40 -74.5t106 -28.5z" />
    <glyph glyph-name="A" unicode="A" horiz-adv-x="1722" 
d="M1315 0l-121 317h-666l-122 -317h-381l618 1454h436l617 -1454h-381zM625 567h473l-140 365q-71 165 -96 270h-4q-20 -100 -94 -270z" />
    <glyph glyph-name="B" unicode="B" horiz-adv-x="1624" 
d="M1239 760q151 -23 230 -113.5t79 -234.5q0 -87 -31 -160.5t-92.5 -130.5t-162 -89t-230.5 -32h-864v1454h848q245 0 370 -102t125 -269q0 -119 -70 -205.5t-202 -117.5zM915 1202h-380v-342h380q113 0 163 48.5t50 127.5q0 74 -51.5 120t-161.5 46zM936 252
q114 0 171.5 51t57.5 137t-57 134.5t-168 48.5h-405v-371h401z" />
    <glyph glyph-name="C" unicode="C" horiz-adv-x="1683" 
d="M866 -41q-381 0 -598 206.5t-217 557.5q0 230 101.5 405t288.5 271t433 96q309 0 509 -142t247 -392l-377 -66q-28 150 -127.5 230.5t-259.5 80.5q-202 0 -318 -128.5t-116 -350.5q0 -218 119 -347.5t323 -129.5q155 0 254.5 77t131.5 222l374 -80q-70 -242 -268.5 -376
t-499.5 -134z" />
    <glyph glyph-name="D" unicode="D" horiz-adv-x="1728" 
d="M168 0v1454h723q359 0 572.5 -191.5t213.5 -519.5q0 -334 -218 -538.5t-574 -204.5h-717zM535 264h323q205 0 320.5 131.5t115.5 345.5q0 206 -116 327.5t-320 121.5h-323v-926z" />
    <glyph glyph-name="E" unicode="E" horiz-adv-x="1486" 
d="M535 268h839v-268h-1206v1454h1192v-266h-825v-318h790v-258h-790v-344z" />
    <glyph glyph-name="F" unicode="F" horiz-adv-x="1425" 
d="M1360 1180h-825v-324h788v-268h-788v-588h-367v1454h1192v-274z" />
    <glyph glyph-name="G" unicode="G" horiz-adv-x="1734" 
d="M791 -41q-227 0 -395.5 95t-256.5 266.5t-88 398.5q0 172 58 315.5t164 245.5t261.5 158.5t344.5 56.5q302 0 497 -125.5t246 -333.5l-379 -69q-31 116 -125.5 186t-245.5 70q-208 0 -324 -133.5t-116 -364.5q0 -229 116 -361.5t326 -132.5q94 0 172.5 27t129 71t78.5 98
t30 110v22h-442v252h780v-811h-268l-17 227q-66 -124 -205 -196t-341 -72z" />
    <glyph glyph-name="H" unicode="H" horiz-adv-x="1777" 
d="M1610 1454v-1454h-369v600h-706v-600h-367v1454h367v-580h706v580h369z" />
    <glyph glyph-name="I" unicode="I" horiz-adv-x="702" 
d="M535 0h-367v1454h367v-1454z" />
    <glyph glyph-name="J" unicode="J" horiz-adv-x="946" 
d="M815 475q0 -132 -38 -229t-110 -156.5t-169 -88t-222 -28.5q-148 0 -243 21v293q106 -13 162 -13q124 0 189 62t65 207v911h366v-979z" />
    <glyph glyph-name="K" unicode="K" horiz-adv-x="1675" 
d="M1219 0l-437 641l-247 -246v-395h-367v1454h367v-653l639 653h436l-566 -575l598 -879h-423z" />
    <glyph glyph-name="L" unicode="L" horiz-adv-x="1339" 
d="M168 0v1454h367v-1159h761v-295h-1128z" />
    <glyph glyph-name="M" unicode="M" horiz-adv-x="2117" 
d="M168 0v1454h524l322 -891q33 -105 41 -168h4q7 56 43 170l315 889h533v-1454h-336v973q0 88 10 190h-6q-15 -72 -51 -168l-357 -995h-323l-359 995q-33 88 -47 166h-8q10 -66 10 -188v-973h-315z" />
    <glyph glyph-name="N" unicode="N" horiz-adv-x="1779" 
d="M168 0v1454h401l605 -833q58 -85 98 -177h4v193v817h336v-1454h-381l-627 844q-74 117 -96 170h-6q2 -61 2 -195v-819h-336z" />
    <glyph glyph-name="O" unicode="O" horiz-adv-x="1757" 
d="M879 -41q-377 0 -602.5 208.5t-225.5 559.5t225.5 559.5t602.5 208.5t602 -208.5t225 -559.5t-225 -559.5t-602 -208.5zM879 242q204 0 324 130.5t120 354.5t-120 354.5t-324 130.5t-324.5 -130.5t-120.5 -354.5q0 -223 120.5 -354t324.5 -131z" />
    <glyph glyph-name="P" unicode="P" horiz-adv-x="1546" 
d="M961 1454q255 0 405 -126t150 -341q0 -224 -153.5 -354.5t-414.5 -130.5h-413v-502h-367v1454h793zM870 756q123 0 190.5 57.5t67.5 163.5q0 105 -67 162t-191 57h-335v-440h335z" />
    <glyph glyph-name="Q" unicode="Q" horiz-adv-x="1757" 
d="M1249 25q96 -80 264 -80q56 0 138 14v-285q-80 -12 -156 -12q-195 0 -330.5 77t-203.5 222q-27 -2 -82 -2q-377 0 -602.5 208.5t-225.5 559.5t225.5 559.5t602.5 208.5t602 -208.5t225 -559.5q0 -253 -120.5 -435.5t-336.5 -266.5zM434 727q0 -223 120.5 -354t324.5 -131
t324 130.5t120 354.5t-120 354.5t-324 130.5t-324.5 -130.5t-120.5 -354.5z" />
    <glyph glyph-name="R" unicode="R" horiz-adv-x="1619" 
d="M1153 0l-307 543h-311v-543h-367v1454h790q147 0 256.5 -35t174 -97.5t96 -142t31.5 -175.5q0 -90 -30.5 -169t-101 -144.5t-174.5 -98.5l349 -592h-406zM535 1200v-412h344q130 0 190.5 57t60.5 154q0 92 -60.5 146.5t-190.5 54.5h-344z" />
    <glyph glyph-name="S" unicode="S" horiz-adv-x="1505" 
d="M756 -41q-271 0 -467.5 93.5t-288.5 260.5l270 189q73 -127 199.5 -196.5t302.5 -69.5q311 0 311 170q0 74 -51 110t-176 55l-301 45q-227 36 -340 143t-113 294q0 207 173.5 324.5t480.5 117.5q237 0 413 -74t277 -221l-240 -201q-68 110 -189.5 170t-281.5 60
q-134 0 -208 -40.5t-74 -113.5q0 -70 51 -106t182 -58l293 -43q243 -39 355 -140t112 -290q0 -224 -181 -351.5t-509 -127.5z" />
    <glyph glyph-name="T" unicode="T" horiz-adv-x="1406" 
d="M1391 1454v-291h-504v-1163h-367v1163h-504v291h1375z" />
    <glyph glyph-name="U" unicode="U" horiz-adv-x="1691" 
d="M129 1454h369v-860q0 -155 92.5 -248.5t255.5 -93.5t255.5 93.5t92.5 248.5v860h369v-885q0 -280 -190 -445t-527 -165t-527 166t-190 446v883z" />
    <glyph glyph-name="V" unicode="V" horiz-adv-x="1609" 
d="M588 0l-588 1454h401l353 -958q37 -109 47 -177h8q12 79 45 177l354 958h402l-588 -1454h-434z" />
    <glyph glyph-name="W" unicode="W" horiz-adv-x="2304" 
d="M451 0l-412 1454h373l233 -944q16 -73 19 -129h8q2 48 24 129l269 944h374l269 -944q22 -81 24 -129h8q1 30 19 129l233 944h375l-414 -1454h-415l-262 969q-16 64 -19 116h-10q-3 -52 -19 -116l-262 -969h-415z" />
    <glyph glyph-name="X" unicode="X" horiz-adv-x="1652" 
d="M14 0l578 752l-551 702h426l301 -412q41 -57 55 -92h4q13 32 56 92l305 412h418l-545 -715l579 -739h-432l-321 432q-52 68 -68 105h-4q-12 -33 -63 -103l-318 -434h-420z" />
    <glyph glyph-name="Y" unicode="Y" horiz-adv-x="1525" 
d="M578 0v510l-588 944h403l330 -563q32 -59 39 -96h4q7 37 39 96l338 563h393l-590 -944v-510h-368z" />
    <glyph glyph-name="Z" unicode="Z" horiz-adv-x="1480" 
d="M88 254l846 926h-815v274h1265v-254l-843 -928h880v-272h-1333v254z" />
    <glyph glyph-name="bracketleft" unicode="[" horiz-adv-x="798" 
d="M168 -240v1796h600v-235h-281v-1325h281v-236h-600z" />
    <glyph glyph-name="backslash" unicode="\" horiz-adv-x="1224" 
d="M819 -240l-733 1796h320l733 -1796h-320z" />
    <glyph glyph-name="bracketright" unicode="]" horiz-adv-x="798" 
d="M631 -240h-600v236h280v1325h-280v235h600v-1796z" />
    <glyph glyph-name="asciicircum" unicode="^" horiz-adv-x="1067" 
d="M397 1452h273l356 -543h-278l-213 340l-216 -340h-278z" />
    <glyph glyph-name="underscore" unicode="_" horiz-adv-x="1138" 
d="M0 -174h1139v-193h-1139v193z" />
    <glyph glyph-name="grave" unicode="`" horiz-adv-x="1228" 
d="M578 1165h-281l-334 322h342z" />
    <glyph glyph-name="a" unicode="a" horiz-adv-x="1398" 
d="M487 -31q-194 0 -306.5 83.5t-112.5 228.5t110 223q108 73 357 98l380 35v31q0 170 -217 170q-106 0 -167 -40.5t-72 -117.5h-359q20 175 180.5 275t419.5 100q291 0 429.5 -108t138.5 -331v-317q0 -191 24 -299h-346q-14 86 -14 174q-51 -97 -167 -151t-278 -54z
M621 182q135 0 219 61.5t84 162.5v65l-283 -29q-116 -13 -165.5 -45.5t-49.5 -93.5q0 -57 52 -89t143 -32z" />
    <glyph glyph-name="b" unicode="b" horiz-adv-x="1488" 
d="M903 -31q-137 0 -241.5 52t-161.5 143l-23 -164h-315v1485h350v-613q61 86 167 134.5t239 48.5q232 0 372 -148t140 -391q0 -247 -144.5 -397t-382.5 -150zM786 205q131 0 206 81.5t75 227.5q0 143 -74.5 224t-204.5 81q-129 -2 -207.5 -75.5t-78.5 -196.5v-64
q0 -129 76.5 -203.5t207.5 -74.5z" />
    <glyph glyph-name="c" unicode="c" horiz-adv-x="1351" 
d="M696 -31q-292 0 -466.5 148t-174.5 397q0 252 173.5 396.5t473.5 144.5q248 0 403 -98t195 -279l-346 -60q-22 92 -89 140.5t-173 48.5q-131 0 -204.5 -76t-73.5 -211q0 -141 74.5 -220t205.5 -79q106 0 172.5 48.5t89.5 142.5l344 -66q-38 -174 -200.5 -275.5
t-403.5 -101.5z" />
    <glyph glyph-name="d" unicode="d" horiz-adv-x="1488" 
d="M569 -31q-226 0 -368 150.5t-142 392.5q0 244 146 393.5t381 149.5q271 0 391 -176v606h350v-1485h-336v186q-57 -102 -167.5 -159.5t-254.5 -57.5zM705 205q125 0 201.5 74.5t76.5 195.5v68q0 128 -77.5 202t-207.5 74q-131 0 -203.5 -79.5t-72.5 -223.5
q0 -143 76.5 -227t206.5 -84z" />
    <glyph glyph-name="e" unicode="e" horiz-adv-x="1353" 
d="M1288 516v-82h-897q7 -106 90.5 -165.5t223.5 -59.5q208 0 301 149l262 -118q-80 -130 -228 -200.5t-344 -70.5q-300 0 -470.5 142t-170.5 393q0 256 168 403.5t453 147.5q291 0 451.5 -142.5t160.5 -396.5zM944 625v4q0 105 -74 165t-198 60q-126 0 -200.5 -61
t-82.5 -168h555z" />
    <glyph glyph-name="f" unicode="f" horiz-adv-x="972" 
d="M938 1024v-229h-328v-795h-350v795h-225v229h225v70q0 407 475 407q107 0 203 -22v-246q-74 14 -150 14q-94 0 -136 -37t-42 -120v-66h328z" />
    <glyph glyph-name="g" unicode="g" horiz-adv-x="1392" 
d="M1354 971q-52 12 -105 12q-88 0 -141 -35q129 -91 129 -241q0 -162 -150.5 -258.5t-408.5 -96.5q-153 0 -272 35q-41 -21 -41 -57q0 -80 137 -80h440q404 -3 404 -301q0 -187 -175.5 -283t-525.5 -96q-295 0 -442.5 63.5t-147.5 182.5q0 132 181 184q-72 28 -111 77.5
t-39 115.5q0 85 55.5 145t159.5 90q-90 47 -137 118.5t-47 160.5q0 163 149.5 255.5t411.5 92.5q171 0 299 -41q26 92 106.5 141t206.5 49q30 0 64 -6v-227zM678 528q100 0 158.5 48.5t58.5 130.5t-58 128t-159 46q-103 0 -161 -46t-58 -128t59 -130.5t160 -48.5zM905 -33
l-477 2q-24 0 -70 4q-43 -37 -43 -92q0 -69 88 -101t263 -32q208 0 296.5 30t88.5 95q0 94 -146 94z" />
    <glyph glyph-name="h" unicode="h" horiz-adv-x="1492" 
d="M162 0v1485h350v-660q58 114 164.5 173t249.5 59q215 0 327.5 -126.5t112.5 -369.5v-561h-350v524q0 135 -60.5 204t-179.5 69q-125 0 -194.5 -77t-69.5 -216v-504h-350z" />
    <glyph glyph-name="i" unicode="i" horiz-adv-x="653" 
d="M143 1171v306h369v-306h-369zM152 0v1024h350v-1024h-350z" />
    <glyph glyph-name="j" unicode="j" horiz-adv-x="671" 
d="M158 1171v306h368v-306h-368zM86 -418q-95 0 -164 15v251q53 -6 107 -6q76 0 108.5 42.5t32.5 148.5v991h350v-1024q0 -102 -22 -176.5t-71 -130t-134 -83.5t-207 -28z" />
    <glyph glyph-name="k" unicode="k" horiz-adv-x="1429" 
d="M1006 0l-299 444l-195 -165v-279h-350v1485h350v-877l442 416h430l-419 -389l434 -635h-393z" />
    <glyph glyph-name="l" unicode="l" horiz-adv-x="673" 
d="M512 1485v-1485h-350v1485h350z" />
    <glyph glyph-name="m" unicode="m" horiz-adv-x="2160" 
d="M152 1024h340v-205q105 236 378 236q272 0 363 -238q127 238 401 238q192 0 296 -116.5t104 -332.5v-606h-351v543q0 250 -196 250q-103 0 -161 -67.5t-58 -188.5v-537h-350v543q0 250 -197 250q-103 0 -161 -69.5t-58 -193.5v-530h-350v1024z" />
    <glyph glyph-name="n" unicode="n" horiz-adv-x="1482" 
d="M152 0v1024h340v-215q123 246 428 246q215 0 325.5 -122t110.5 -360v-573h-350v520q0 275 -236 275q-127 0 -197.5 -76.5t-70.5 -214.5v-504h-350z" />
    <glyph glyph-name="o" unicode="o" horiz-adv-x="1390" 
d="M694 -31q-187 0 -331 63.5t-226 188t-82 293.5q0 254 176.5 397.5t462.5 143.5q188 0 331.5 -62t226.5 -186t83 -293q0 -254 -177.5 -399.5t-463.5 -145.5zM694 205q133 0 209 80t76 229q0 148 -76 226.5t-209 78.5t-208.5 -78.5t-75.5 -226.5q0 -149 76 -229t208 -80z
" />
    <glyph glyph-name="p" unicode="p" horiz-adv-x="1478" 
d="M152 -399v1423h340v-172q62 99 171 151t246 52q231 0 370.5 -147.5t139.5 -391.5q0 -247 -145 -397t-379 -150q-127 0 -227 45.5t-166 128.5v-542h-350zM776 205q131 0 206 83t75 228q0 144 -73.5 223.5t-205.5 79.5q-130 0 -207 -76t-77 -211v-43q0 -129 77 -206.5
t205 -77.5z" />
    <glyph glyph-name="q" unicode="q" horiz-adv-x="1478" 
d="M977 -399v563q-57 -90 -162.5 -143.5t-241.5 -53.5q-230 0 -372 151t-142 394q0 248 144 396.5t381 148.5q138 0 243 -51t162 -146l21 164h317v-1423h-350zM702 205q130 0 203.5 75.5t73.5 200.5v70q0 122 -75.5 196t-207.5 74q-129 0 -203.5 -78.5t-74.5 -224.5
q0 -147 76.5 -230t207.5 -83z" />
    <glyph glyph-name="r" unicode="r" horiz-adv-x="968" 
d="M471 741q43 148 144.5 229t250.5 81q33 0 68 -7v-319q-47 8 -105 8q-154 0 -235 -78q-92 -85 -92 -270v-385h-350v1024h319v-283z" />
    <glyph glyph-name="s" unicode="s" horiz-adv-x="1253" 
d="M659 -31q-432 0 -626 244l188 160q147 -176 455 -176q207 0 207 94q0 44 -31 63.5t-117 28.5l-272 27q-187 23 -278 101.5t-91 213.5q0 157 140 243.5t397 86.5q186 0 331.5 -50.5t231.5 -144.5l-164 -168q-154 139 -418 139q-198 0 -198 -86q0 -37 30.5 -56.5
t100.5 -26.5l301 -31q185 -21 268.5 -98.5t83.5 -215.5q0 -165 -138 -256.5t-401 -91.5z" />
    <glyph glyph-name="t" unicode="t" horiz-adv-x="991" 
d="M10 795v229h232v244l350 131v-375h338v-229h-338v-359q0 -180 192 -180q68 0 146 16v-266q-116 -29 -238 -29q-231 0 -340.5 96t-109.5 285v437h-232z" />
    <glyph glyph-name="u" unicode="u" horiz-adv-x="1466" 
d="M561 -31q-216 0 -325 113t-109 326v616h350v-547q0 -129 59 -189.5t162 -60.5q128 0 197.5 77t69.5 194v526h350v-1024h-338v211q-51 -115 -161.5 -178.5t-254.5 -63.5z" />
    <glyph glyph-name="v" unicode="v" horiz-adv-x="1306" 
d="M459 0l-459 1024h371l243 -616q7 -21 37 -127h6q15 65 37 127l242 616h373l-461 -1024h-389z" />
    <glyph glyph-name="w" unicode="w" horiz-adv-x="1904" 
d="M367 0l-338 1024h340l176 -631q10 -49 18 -100h4q4 39 21 100l205 631h319l205 -631q15 -55 20 -100h4q2 16 19 100l174 631h342l-338 -1024h-358l-203 604q-20 55 -23 96h-6q-4 -51 -20 -96l-203 -604h-358z" />
    <glyph glyph-name="x" unicode="x" horiz-adv-x="1351" 
d="M14 0l445 528l-422 496h405l176 -219q43 -52 60 -100h4q15 43 59 100l177 219h387l-418 -489l452 -535h-411l-203 242q-45 55 -61 100h-5q-18 -39 -65 -100l-203 -242h-377z" />
    <glyph glyph-name="y" unicode="y" horiz-adv-x="1300" 
d="M258 -420q-94 0 -174 14v261q77 -13 139 -13q195 0 256 129l8 31l-487 1022h387l246 -627q22 -55 33 -114h6q6 40 30 112l236 629h362l-462 -1071q-86 -199 -222 -286t-358 -87z" />
    <glyph glyph-name="z" unicode="z" horiz-adv-x="1212" 
d="M66 213l632 578h-604v233h1034v-207l-624 -579h655v-238h-1093v213z" />
    <glyph glyph-name="braceleft" unicode="{" horiz-adv-x="819" 
d="M614 -240q-199 0 -292 76t-93 244v293q0 51 -6 82t-24.5 57.5t-55 39t-94.5 13.5v217q60 1 95.5 11.5t53.5 35.5t23.5 55t5.5 83v272q0 155 100.5 238.5t286.5 83.5h170v-238h-77q-84 0 -122 -37.5t-38 -120.5v-192q0 -124 -43.5 -196.5t-159.5 -100.5q115 -32 159 -109
t44 -202v-224q0 -78 36.5 -110.5t114.5 -32.5h90v-238h-174z" />
    <glyph glyph-name="bar" unicode="|" horiz-adv-x="536" 
d="M162 -240v1796h213v-1796h-213z" />
    <glyph glyph-name="braceright" unicode="}" horiz-adv-x="819" 
d="M205 -240h-174v238h90q78 0 114.5 32.5t36.5 110.5v224q0 125 44 202t159 109q-116 28 -159.5 100.5t-43.5 196.5v192q0 83 -38 120.5t-121 37.5h-78v238h170q186 0 286.5 -83.5t100.5 -238.5v-272q0 -53 5.5 -83t23.5 -55t53.5 -35.5t95.5 -11.5v-217
q-58 -1 -94.5 -13.5t-55 -39t-24.5 -57.5t-6 -82v-293q0 -168 -93 -244t-292 -76z" />
    <glyph glyph-name="asciitilde" unicode="~" 
d="M932 424q-70 0 -134.5 24.5t-105 53.5t-90.5 53.5t-94 24.5q-63 0 -105 -37.5t-57 -106.5l-201 49q29 144 122.5 221.5t226.5 77.5q58 0 111.5 -16t93 -39t75.5 -45.5t74 -38.5t74 -16q123 0 159 145l199 -45q-28 -149 -122.5 -227t-225.5 -78z" />
    <glyph glyph-name="uni00A0" unicode="&#xa0;" horiz-adv-x="638" 
 />
    <glyph glyph-name="exclamdown" unicode="&#xa1;" horiz-adv-x="741" 
d="M565 872h-391v316h391v-316zM225 707h289l55 -1004h-397z" />
    <glyph glyph-name="cent" unicode="&#xa2;" horiz-adv-x="1357" 
d="M766 199q193 26 238 209l303 -58q-35 -164 -179.5 -264.5t-361.5 -114.5v-182h-131v182q-269 15 -424.5 160t-155.5 381t154 380t426 161v161h131v-161q223 -12 364.5 -111.5t178.5 -269.5l-308 -47q-45 183 -235 209v-635zM367 512q0 -134 70 -216t198 -97v635
q-127 -15 -197.5 -100t-70.5 -222z" />
    <glyph glyph-name="sterling" unicode="&#xa3;" horiz-adv-x="1515" 
d="M1176 414l325 -45q-29 -189 -152 -296.5t-309 -107.5q-102 0 -269.5 29t-297.5 29q-182 0 -389 -39l-66 188q149 41 221 125t72 215q0 74 -12 135h-215v166h178q-22 101 -22 176q0 222 153.5 346.5t423.5 124.5q253 0 403.5 -96.5t190.5 -282.5l-334 -67
q-19 95 -84 146.5t-168 51.5q-245 0 -245 -221q0 -77 22 -178h430v-166h-393q6 -43 6 -94q0 -219 -205 -303q82 18 172 18q68 0 181 -16t182 -16q83 0 136 46.5t65 131.5z" />
    <glyph glyph-name="currency" unicode="&#xa4;" horiz-adv-x="1277" 
d="M1194 621q0 -167 -96 -293l121 -119l-148 -139l-135 129q-130 -62 -289 -62q-171 0 -305 70l-139 -135l-148 139l131 129q-88 117 -88 281q0 158 88 280l-131 131l148 139l143 -135q133 68 301 68q159 0 289 -62l139 132l148 -140l-125 -123q96 -123 96 -290zM647 369
q127 0 204 68.5t77 183.5q0 113 -77 181t-204 68t-206 -68t-79 -181q0 -115 79 -183.5t206 -68.5z" />
    <glyph glyph-name="yen" unicode="&#xa5;" horiz-adv-x="1513" 
d="M1524 1423l-561 -790h415v-144h-446v-116h446v-144h-446v-229h-352v229h-441v144h441v116h-441v144h410l-559 790h397l256 -383q75 -123 113 -206h6q41 90 112 206l261 383h389z" />
    <glyph glyph-name="brokenbar" unicode="&#xa6;" horiz-adv-x="536" 
d="M375 1556v-768h-213v768h213zM375 541v-781h-213v781h213z" />
    <glyph glyph-name="section" unicode="&#xa7;" horiz-adv-x="1208" 
d="M1022 393q106 -79 106 -237q0 -178 -148.5 -274.5t-412.5 -96.5q-198 0 -344 59.5t-223 175.5l188 160q124 -168 402 -168q213 0 213 113q0 46 -32.5 71.5t-119.5 47.5l-295 65q-173 38 -252 113.5t-79 200.5q0 170 170 245q-127 82 -127 242q0 168 142.5 261t389.5 93
q171 0 307 -49.5t217 -142.5l-182 -166q-131 137 -354 137q-197 0 -197 -104q0 -44 30 -68t109 -43l297 -59q171 -35 249.5 -112t78.5 -208q0 -165 -133 -256zM512 541l295 -60q2 0 6 -1t6 -1q47 36 47 99q0 55 -38.5 86t-141.5 57l-289 67q-75 -37 -75 -108
q0 -54 40.5 -83.5t149.5 -55.5z" />
    <glyph glyph-name="dieresis" unicode="&#xa8;" horiz-adv-x="1228" 
d="M98 1178v280h318v-280h-318zM643 1178v280h320v-280h-320z" />
    <glyph glyph-name="copyright" unicode="&#xa9;" horiz-adv-x="1748" 
d="M874 -41q-235 0 -421 92t-294 268t-108 408q0 233 108 409t294 267.5t421 91.5q236 0 422 -91.5t294 -267.5t108 -409q0 -232 -108 -408t-294 -268t-422 -92zM874 82q193 0 347 77t244.5 225t90.5 343q0 196 -90.5 344t-244.5 224.5t-347 76.5q-144 0 -268.5 -45
t-216 -126.5t-144 -204t-52.5 -269.5t52.5 -269t143.5 -204t216 -127t269 -45zM893 289q-217 0 -340 118.5t-123 321.5q0 200 123 318t340 118q184 0 297.5 -80.5t134.5 -218.5l-242 -39q-9 71 -60 113.5t-134 42.5q-101 0 -161 -69t-60 -185q0 -117 60 -186.5t163 -69.5
q78 0 130 42.5t64 111.5l242 -43q-31 -136 -144 -215.5t-290 -79.5z" />
    <glyph glyph-name="ordfeminine" unicode="&#xaa;" horiz-adv-x="1097" 
d="M379 612q-145 0 -229 61t-84 167q0 60 23.5 103t70.5 68.5t102.5 39.5t134.5 22l287 29v26q0 109 -137 109q-139 0 -154 -104h-305q17 129 139 200.5t320 71.5q227 0 332.5 -79t105.5 -245v-245q0 -129 16 -201h-292q-10 58 -13 123q-32 -68 -117 -107t-200 -39zM498 774
q86 0 140 40.5t54 103.5v67l-176 -16q-85 -10 -121.5 -34.5t-36.5 -70.5q0 -40 38 -65t102 -25z" />
    <glyph glyph-name="guillemotleft" unicode="&#xab;" horiz-adv-x="1341" 
d="M440 137l-399 428l408 422h315l-402 -420l398 -430h-320zM983 137l-399 428l407 422h316l-402 -420l398 -430h-320z" />
    <glyph glyph-name="logicalnot" unicode="&#xac;" 
d="M174 791h1051v-541h-228v323h-823v218z" />
    <glyph glyph-name="registered" unicode="&#xae;" horiz-adv-x="1748" 
d="M874 1495q236 0 422 -91.5t294 -267.5t108 -409q0 -232 -108 -408t-294 -268t-422 -92q-235 0 -421 92t-294 268t-108 408q0 233 108 409t294 267.5t421 91.5zM874 82q193 0 347 77t244.5 225t90.5 343q0 196 -90.5 344t-244.5 224.5t-347 76.5q-144 0 -268.5 -45
t-216 -126.5t-144 -204t-52.5 -269.5t52.5 -269t143.5 -204t216 -127t269 -45zM1305 885q0 -87 -49 -149.5t-136 -88.5l201 -328h-256l-172 302h-145v-302h-232v832h469q154 0 237 -69t83 -197zM748 991v-219h182q66 0 100.5 28.5t34.5 82.5q0 108 -135 108h-182z" />
    <glyph glyph-name="macron" unicode="&#xaf;" horiz-adv-x="1228" 
d="M106 1212v201h836v-201h-836z" />
    <glyph glyph-name="degree" unicode="&#xb0;" horiz-adv-x="933" 
d="M467 641q-185 0 -306.5 114.5t-121.5 301.5q0 184 121.5 297.5t306.5 113.5t307.5 -113.5t122.5 -297.5q0 -187 -122.5 -301.5t-307.5 -114.5zM467 825q99 0 162 64t63 168q0 102 -63 164.5t-162 62.5t-161 -62.5t-62 -164.5q0 -104 62 -168t161 -64z" />
    <glyph glyph-name="plusminus" unicode="&#xb1;" 
d="M834 811h423v-223h-423v-301h-244v301h-422v223h422v313h244v-313zM168 0v219h1089v-219h-1089z" />
    <glyph glyph-name="acute" unicode="&#xb4;" horiz-adv-x="1228" 
d="M98 1165l273 322h342l-334 -322h-281z" />
    <glyph glyph-name="uni00B5" unicode="&#xb5;" horiz-adv-x="1490" 
d="M989 1024h350v-1024h-338v211q-51 -115 -161 -178.5t-254 -63.5q-51 0 -119 11v-379h-315v1423h350v-547q0 -129 59 -189.5t162 -60.5q128 0 197 77t69 194v526z" />
    <glyph glyph-name="paragraph" unicode="&#xb6;" horiz-adv-x="1624" 
d="M659 696q-124 0 -219 20t-169 64t-113 120.5t-39 182.5q0 201 149 296.5t412 95.5h788v-164h-192v-1514h-184v1514h-248v-1514h-185v899z" />
    <glyph glyph-name="periodcentered" unicode="&#xb7;" horiz-adv-x="632" 
d="M506 856v-334h-379v334h379z" />
    <glyph glyph-name="cedilla" unicode="&#xb8;" horiz-adv-x="1228" 
d="M266 12h166l-78 -114q50 30 129 30q102 0 160.5 -46t58.5 -134q0 -94 -81 -144t-222 -50q-214 0 -284 124l178 52q32 -52 102 -52q43 0 68.5 20.5t25.5 55.5q0 32 -24.5 52t-65.5 20q-57 0 -86 -33l-147 33z" />
    <glyph glyph-name="ordmasculine" unicode="&#xba;" horiz-adv-x="1089" 
d="M545 612q-219 0 -354.5 105t-135.5 293q0 189 135 292t355 103q219 0 353 -103.5t134 -291.5t-134.5 -293t-352.5 -105zM545 803q86 0 136 53.5t50 153.5t-49.5 152t-136.5 52q-88 0 -138.5 -52t-50.5 -152t50.5 -153.5t138.5 -53.5z" />
    <glyph glyph-name="guillemotright" unicode="&#xbb;" horiz-adv-x="1341" 
d="M358 137h-319l397 430l-401 420h315l408 -422zM901 137h-319l397 430l-401 420h315l407 -422z" />
    <glyph glyph-name="onequarter" unicode="&#xbc;" horiz-adv-x="1894" 
d="M217 -35l1032 1524h258l-1032 -1524h-258zM262 651v523q-48 -37 -164 -37h-49v188h31q163 0 217 129h180v-803h-215zM1870 170h-154v-170h-211v170h-483v141l448 492h246v-479h154v-154zM1505 627l-272 -303h272v303z" />
    <glyph glyph-name="onehalf" unicode="&#xbd;" horiz-adv-x="1988" 
d="M217 -35l1032 1524h258l-1032 -1524h-258zM262 651v523q-48 -37 -164 -37h-49v188h31q163 0 217 129h180v-803h-215zM1155 0v158q73 32 118 52.5t106 50.5t98 52.5t78.5 52t63.5 56.5t37 58.5t15 64.5q0 54 -37 83t-106 29q-66 0 -107 -31t-41 -89q0 -13 9 -54l-224 21
q-6 30 -6 53q0 123 104 195.5t271 72.5q172 0 271.5 -69t99.5 -197q0 -59 -25 -112t-63 -92t-94.5 -74.5t-107.5 -59t-114 -47.5h414v-174h-760z" />
    <glyph glyph-name="threequarters" unicode="&#xbe;" horiz-adv-x="2168" 
d="M492 -35l1032 1524h258l-1032 -1524h-258zM444 629q-179 0 -284 72.5t-109 199.5l219 21q4 -64 50 -96.5t126 -32.5q75 0 117.5 24.5t42.5 73.5q0 50 -38.5 70t-133.5 20h-74v152h76q150 0 150 92q0 45 -39.5 67.5t-108.5 22.5q-158 0 -164 -139l-213 28
q3 126 106.5 199.5t281.5 73.5q168 0 264 -59.5t96 -168.5q0 -72 -49 -119t-133 -61q106 -17 156.5 -62t50.5 -126q0 -117 -106.5 -184.5t-283.5 -67.5zM2144 170h-153v-170h-211v170h-484v141l449 492h246v-479h153v-154zM1780 627l-273 -303h273v303z" />
    <glyph glyph-name="questiondown" unicode="&#xbf;" horiz-adv-x="1316" 
d="M874 1188v-316h-385v316h385zM854 760v-86q0 -80 -37.5 -143t-126.5 -113l-139 -76q-75 -42 -111.5 -91.5t-36.5 -123.5q0 -87 67 -142t185 -55q130 0 205.5 61t75.5 173q0 60 -12 100l348 -28q12 -49 12 -111q0 -203 -169 -325t-460 -122q-285 0 -448.5 112t-163.5 306
q0 226 236 371l129 74q60 36 83 72.5t23 91.5v55h340z" />
    <glyph glyph-name="Agrave" unicode="&#xc0;" horiz-adv-x="1722" 
d="M987 1548h-282l-293 242h327zM1315 0l-121 317h-666l-122 -317h-381l618 1454h436l617 -1454h-381zM625 567h473l-140 365q-71 165 -96 270h-4q-20 -100 -94 -270z" />
    <glyph glyph-name="Aacute" unicode="&#xc1;" horiz-adv-x="1722" 
d="M1294 1790l-293 -242h-282l248 242h327zM1315 0l-121 317h-666l-122 -317h-381l618 1454h436l617 -1454h-381zM625 567h473l-140 365q-71 165 -96 270h-4q-20 -100 -94 -270z" />
    <glyph glyph-name="Acircumflex" unicode="&#xc2;" horiz-adv-x="1722" 
d="M860 1694l-158 -146h-284l260 242h366l261 -242h-285zM1315 0l-121 317h-666l-122 -317h-381l618 1454h436l617 -1454h-381zM625 567h473l-140 365q-71 165 -96 270h-4q-20 -100 -94 -270z" />
    <glyph glyph-name="Atilde" unicode="&#xc3;" horiz-adv-x="1722" 
d="M692 1649q-44 0 -72 -26.5t-45 -86.5l-174 66q26 115 99.5 175t187.5 60q59 0 111 -18.5t83.5 -41t71.5 -41t76 -18.5q87 0 115 111l174 -64q-26 -116 -98.5 -175.5t-186.5 -59.5q-59 0 -111.5 18.5t-84 41t-71 41t-75.5 18.5zM1315 0l-121 317h-666l-122 -317h-381
l618 1454h436l617 -1454h-381zM625 567h473l-140 365q-71 165 -96 270h-4q-20 -100 -94 -270z" />
    <glyph glyph-name="Adieresis" unicode="&#xc4;" horiz-adv-x="1722" 
d="M739 1788v-240h-309v240h309zM1288 1788v-240h-309v240h309zM1315 0l-121 317h-666l-122 -317h-381l618 1454h436l617 -1454h-381zM625 567h473l-140 365q-71 165 -96 270h-4q-20 -100 -94 -270z" />
    <glyph glyph-name="Aring" unicode="&#xc5;" horiz-adv-x="1722" 
d="M860 1524q-123 0 -198.5 66t-75.5 173q0 109 75.5 175.5t198.5 66.5t199 -66.5t76 -175.5q0 -107 -76 -173t-199 -66zM860 1874q-51 0 -81.5 -30.5t-30.5 -80.5q0 -48 30.5 -78t81.5 -30q49 0 80 30.5t31 77.5q0 49 -30.5 80t-80.5 31zM1315 0l-121 317h-666l-122 -317
h-381l618 1454h436l617 -1454h-381zM625 567h473l-140 365q-71 165 -96 270h-4q-20 -100 -94 -270z" />
    <glyph glyph-name="AE" unicode="&#xc6;" horiz-adv-x="2478" 
d="M1526 268h839v-268h-1206v307h-588l-198 -307h-389l1011 1454h1356v-266h-825v-318h790v-258h-790v-344zM733 557h426v660z" />
    <glyph glyph-name="Ccedilla" unicode="&#xc7;" horiz-adv-x="1683" 
d="M1634 469q-65 -228 -245 -360.5t-453 -147.5l-43 -63q49 30 129 30q102 0 160.5 -46t58.5 -134q0 -94 -81 -144t-222 -50q-215 0 -285 124l178 52q32 -52 103 -52q43 0 68.5 20.5t25.5 55.5q0 32 -24.5 52t-65.5 20q-57 0 -86 -33l-147 33l73 137q-343 25 -535 227.5
t-192 532.5q0 230 101.5 405t288.5 271t433 96q309 0 509 -142t247 -392l-377 -66q-28 150 -127.5 230.5t-259.5 80.5q-202 0 -318 -128.5t-116 -350.5q0 -218 119 -347.5t323 -129.5q155 0 254.5 77t131.5 222z" />
    <glyph glyph-name="Egrave" unicode="&#xc8;" horiz-adv-x="1486" 
d="M907 1548h-282l-293 242h327zM535 268h839v-268h-1206v1454h1192v-266h-825v-318h790v-258h-790v-344z" />
    <glyph glyph-name="Eacute" unicode="&#xc9;" horiz-adv-x="1486" 
d="M1214 1790l-292 -242h-283l248 242h327zM535 268h839v-268h-1206v1454h1192v-266h-825v-318h790v-258h-790v-344z" />
    <glyph glyph-name="Ecircumflex" unicode="&#xca;" horiz-adv-x="1486" 
d="M780 1694l-157 -146h-285l260 242h367l260 -242h-285zM535 268h839v-268h-1206v1454h1192v-266h-825v-318h790v-258h-790v-344z" />
    <glyph glyph-name="Edieresis" unicode="&#xcb;" horiz-adv-x="1486" 
d="M659 1788v-240h-309v240h309zM1208 1788v-240h-309v240h309zM535 268h839v-268h-1206v1454h1192v-266h-825v-318h790v-258h-790v-344z" />
    <glyph glyph-name="Igrave" unicode="&#xcc;" horiz-adv-x="702" 
d="M489 1548h-278l-219 242h313zM535 0h-367v1454h367v-1454z" />
    <glyph glyph-name="Iacute" unicode="&#xcd;" horiz-adv-x="702" 
d="M213 1548l184 242h314l-219 -242h-279zM535 0h-367v1454h367v-1454z" />
    <glyph glyph-name="Icircumflex" unicode="&#xce;" horiz-adv-x="702" 
d="M682 1548h-240l-88 152l-88 -152h-241l155 242h346zM535 0h-367v1454h367v-1454z" />
    <glyph glyph-name="Idieresis" unicode="&#xcf;" horiz-adv-x="702" 
d="M31 1548v240h278v-240h-278zM397 1548v240h277v-240h-277zM535 0h-367v1454h367v-1454z" />
    <glyph glyph-name="Eth" unicode="&#xd0;" horiz-adv-x="1728" 
d="M891 1454q359 0 572.5 -191.5t213.5 -519.5q0 -334 -218 -538.5t-574 -204.5h-717v649h-160v207h160v598h723zM858 264q205 0 320.5 131.5t115.5 345.5q0 206 -116 327.5t-320 121.5h-323v-334h389v-207h-389v-385h323z" />
    <glyph glyph-name="Ntilde" unicode="&#xd1;" horiz-adv-x="1779" 
d="M1067 1530q-59 0 -111.5 18.5t-84 41t-71 41t-75.5 18.5q-44 0 -72 -26.5t-45 -86.5l-174 66q26 115 99.5 175t187.5 60q59 0 111 -18.5t83.5 -41t71.5 -41t76 -18.5q87 0 115 111l174 -64q-26 -116 -98.5 -175.5t-186.5 -59.5zM168 0v1454h401l605 -833q58 -85 98 -177
h4v193v817h336v-1454h-381l-627 844q-74 117 -96 170h-6q2 -61 2 -195v-819h-336z" />
    <glyph glyph-name="Ograve" unicode="&#xd2;" horiz-adv-x="1757" 
d="M1006 1548h-283l-293 242h328zM879 -41q-377 0 -602.5 208.5t-225.5 559.5t225.5 559.5t602.5 208.5t602 -208.5t225 -559.5t-225 -559.5t-602 -208.5zM879 242q204 0 324 130.5t120 354.5t-120 354.5t-324 130.5t-324.5 -130.5t-120.5 -354.5q0 -223 120.5 -354
t324.5 -131z" />
    <glyph glyph-name="Oacute" unicode="&#xd3;" horiz-adv-x="1757" 
d="M737 1548l248 242h328l-293 -242h-283zM879 -41q-377 0 -602.5 208.5t-225.5 559.5t225.5 559.5t602.5 208.5t602 -208.5t225 -559.5t-225 -559.5t-602 -208.5zM879 242q204 0 324 130.5t120 354.5t-120 354.5t-324 130.5t-324.5 -130.5t-120.5 -354.5q0 -223 120.5 -354
t324.5 -131z" />
    <glyph glyph-name="Ocircumflex" unicode="&#xd4;" horiz-adv-x="1757" 
d="M1323 1548h-285l-159 146l-158 -146h-285l260 242h367zM879 -41q-377 0 -602.5 208.5t-225.5 559.5t225.5 559.5t602.5 208.5t602 -208.5t225 -559.5t-225 -559.5t-602 -208.5zM879 242q204 0 324 130.5t120 354.5t-120 354.5t-324 130.5t-324.5 -130.5t-120.5 -354.5
q0 -223 120.5 -354t324.5 -131z" />
    <glyph glyph-name="Otilde" unicode="&#xd5;" horiz-adv-x="1757" 
d="M1053 1530q-59 0 -111.5 18.5t-84 41t-71 41t-75.5 18.5q-44 0 -72 -26.5t-45 -86.5l-174 66q26 115 99.5 175t187.5 60q59 0 111 -18.5t83.5 -41t71.5 -41t76 -18.5q86 0 114 111l174 -64q-26 -116 -98 -175.5t-186 -59.5zM879 -41q-377 0 -602.5 208.5t-225.5 559.5
t225.5 559.5t602.5 208.5t602 -208.5t225 -559.5t-225 -559.5t-602 -208.5zM879 242q204 0 324 130.5t120 354.5t-120 354.5t-324 130.5t-324.5 -130.5t-120.5 -354.5q0 -223 120.5 -354t324.5 -131z" />
    <glyph glyph-name="Odieresis" unicode="&#xd6;" horiz-adv-x="1757" 
d="M449 1548v240h309v-240h-309zM997 1548v240h310v-240h-310zM879 -41q-377 0 -602.5 208.5t-225.5 559.5t225.5 559.5t602.5 208.5t602 -208.5t225 -559.5t-225 -559.5t-602 -208.5zM879 242q204 0 324 130.5t120 354.5t-120 354.5t-324 130.5t-324.5 -130.5
t-120.5 -354.5q0 -223 120.5 -354t324.5 -131z" />
    <glyph glyph-name="multiply" unicode="&#xd7;" 
d="M1274 1032l-389 -362l387 -363l-166 -166l-393 369l-394 -367l-165 162l389 363l-389 364l168 162l391 -365l391 365z" />
    <glyph glyph-name="Oslash" unicode="&#xd8;" horiz-adv-x="1757" 
d="M1495 1274q211 -208 211 -547q0 -351 -225 -559.5t-602 -208.5q-294 0 -498 129l-129 -137l-117 92l129 137q-213 207 -213 547q0 351 225.5 559.5t602.5 208.5q295 0 499 -129l129 137l117 -92zM434 727q0 -170 72 -289l647 688q-113 86 -274 86q-204 0 -324.5 -130.5
t-120.5 -354.5zM879 242q204 0 324 130.5t120 354.5q0 170 -72 289l-647 -690q117 -84 275 -84z" />
    <glyph glyph-name="Ugrave" unicode="&#xd9;" horiz-adv-x="1691" 
d="M973 1548h-283l-293 242h328zM129 1454h369v-860q0 -155 92.5 -248.5t255.5 -93.5t255.5 93.5t92.5 248.5v860h369v-885q0 -280 -190 -445t-527 -165t-527 166t-190 446v883z" />
    <glyph glyph-name="Uacute" unicode="&#xda;" horiz-adv-x="1691" 
d="M705 1548l247 242h328l-293 -242h-282zM129 1454h369v-860q0 -155 92.5 -248.5t255.5 -93.5t255.5 93.5t92.5 248.5v860h369v-885q0 -280 -190 -445t-527 -165t-527 166t-190 446v883z" />
    <glyph glyph-name="Ucircumflex" unicode="&#xdb;" horiz-adv-x="1691" 
d="M1290 1548h-284l-160 146l-158 -146h-285l261 242h366zM129 1454h369v-860q0 -155 92.5 -248.5t255.5 -93.5t255.5 93.5t92.5 248.5v860h369v-885q0 -280 -190 -445t-527 -165t-527 166t-190 446v883z" />
    <glyph glyph-name="Udieresis" unicode="&#xdc;" horiz-adv-x="1691" 
d="M416 1548v240h309v-240h-309zM965 1548v240h309v-240h-309zM129 1454h369v-860q0 -155 92.5 -248.5t255.5 -93.5t255.5 93.5t92.5 248.5v860h369v-885q0 -280 -190 -445t-527 -165t-527 166t-190 446v883z" />
    <glyph glyph-name="Yacute" unicode="&#xdd;" horiz-adv-x="1525" 
d="M625 1548l247 242h328l-293 -242h-282zM578 0v510l-588 944h403l330 -563q32 -59 39 -96h4q7 37 39 96l338 563h393l-590 -944v-510h-368z" />
    <glyph glyph-name="Thorn" unicode="&#xde;" horiz-adv-x="1466" 
d="M893 1229q251 0 397 -125.5t146 -341.5q0 -222 -146.5 -348.5t-402.5 -126.5h-352v-287h-367v1454h367v-225h358zM801 541q119 0 183.5 55.5t64.5 157.5q0 103 -63.5 159t-184.5 56h-266v-428h266z" />
    <glyph glyph-name="germandbls" unicode="&#xdf;" horiz-adv-x="1525" 
d="M154 981q0 261 157 394.5t469 133.5q278 0 433 -100t155 -283q0 -132 -87 -218.5t-239 -106.5q200 -17 307 -114t107 -261q0 -218 -156.5 -334.5t-445.5 -116.5q-87 0 -207 19v237q69 -14 150 -14q303 0 303 229q0 108 -84 164.5t-248 57.5h-121v225h113q122 1 186 53
t64 148q0 89 -62 136.5t-178 47.5q-135 0 -200.5 -65t-65.5 -201v-1012h-350v981z" />
    <glyph glyph-name="agrave" unicode="&#xe0;" horiz-adv-x="1398" 
d="M848 1165h-281l-334 322h342zM487 -31q-194 0 -306.5 83.5t-112.5 228.5t110 223q108 73 357 98l380 35v31q0 170 -217 170q-106 0 -167 -40.5t-72 -117.5h-359q20 175 180.5 275t419.5 100q291 0 429.5 -108t138.5 -331v-317q0 -191 24 -299h-346q-14 86 -14 174
q-51 -97 -167 -151t-278 -54zM621 182q135 0 219 61.5t84 162.5v65l-283 -29q-116 -13 -165.5 -45.5t-49.5 -93.5q0 -57 52 -89t143 -32z" />
    <glyph glyph-name="aacute" unicode="&#xe1;" horiz-adv-x="1398" 
d="M563 1165l273 322h342l-334 -322h-281zM487 -31q-194 0 -306.5 83.5t-112.5 228.5t110 223q108 73 357 98l380 35v31q0 170 -217 170q-106 0 -167 -40.5t-72 -117.5h-359q20 175 180.5 275t419.5 100q291 0 429.5 -108t138.5 -331v-317q0 -191 24 -299h-346
q-14 86 -14 174q-51 -97 -167 -151t-278 -54zM621 182q135 0 219 61.5t84 162.5v65l-283 -29q-116 -13 -165.5 -45.5t-49.5 -93.5q0 -57 52 -89t143 -32z" />
    <glyph glyph-name="acircumflex" unicode="&#xe2;" horiz-adv-x="1398" 
d="M1147 1165h-266l-174 215l-172 -215h-269l262 322h357zM487 -31q-194 0 -306.5 83.5t-112.5 228.5t110 223q108 73 357 98l380 35v31q0 170 -217 170q-106 0 -167 -40.5t-72 -117.5h-359q20 175 180.5 275t419.5 100q291 0 429.5 -108t138.5 -331v-317q0 -191 24 -299
h-346q-14 86 -14 174q-51 -97 -167 -151t-278 -54zM621 182q135 0 219 61.5t84 162.5v65l-283 -29q-116 -13 -165.5 -45.5t-49.5 -93.5q0 -57 52 -89t143 -32z" />
    <glyph glyph-name="atilde" unicode="&#xe3;" horiz-adv-x="1398" 
d="M895 1176q-61 0 -115.5 20.5t-88 45t-75 45t-79.5 20.5q-46 0 -75 -28.5t-46 -92.5l-176 63q23 124 96.5 191t189.5 67q61 0 116 -21t88.5 -45.5t75 -45.5t79.5 -21q46 0 75 29t46 94l176 -63q-23 -124 -97 -191t-190 -67zM487 -31q-194 0 -306.5 83.5t-112.5 228.5
t110 223q108 73 357 98l380 35v31q0 170 -217 170q-106 0 -167 -40.5t-72 -117.5h-359q20 175 180.5 275t419.5 100q291 0 429.5 -108t138.5 -331v-317q0 -191 24 -299h-346q-14 86 -14 174q-51 -97 -167 -151t-278 -54zM621 182q135 0 219 61.5t84 162.5v65l-283 -29
q-116 -13 -165.5 -45.5t-49.5 -93.5q0 -57 52 -89t143 -32z" />
    <glyph glyph-name="adieresis" unicode="&#xe4;" horiz-adv-x="1398" 
d="M274 1178v280h318v-280h-318zM819 1178v280h320v-280h-320zM487 -31q-194 0 -306.5 83.5t-112.5 228.5t110 223q108 73 357 98l380 35v31q0 170 -217 170q-106 0 -167 -40.5t-72 -117.5h-359q20 175 180.5 275t419.5 100q291 0 429.5 -108t138.5 -331v-317
q0 -191 24 -299h-346q-14 86 -14 174q-51 -97 -167 -151t-278 -54zM621 182q135 0 219 61.5t84 162.5v65l-283 -29q-116 -13 -165.5 -45.5t-49.5 -93.5q0 -57 52 -89t143 -32z" />
    <glyph glyph-name="aring" unicode="&#xe5;" horiz-adv-x="1398" 
d="M707 1128q-142 0 -225 66t-83 176q0 111 83 177.5t225 66.5t225.5 -66.5t83.5 -177.5q0 -109 -83.5 -175.5t-225.5 -66.5zM707 1260q65 0 102 30t37 80q0 52 -37 82.5t-102 30.5t-102.5 -30.5t-37.5 -82.5q0 -50 37.5 -80t102.5 -30zM487 -31q-194 0 -306.5 83.5
t-112.5 228.5t110 223q108 73 357 98l380 35v31q0 170 -217 170q-106 0 -167 -40.5t-72 -117.5h-359q20 175 180.5 275t419.5 100q291 0 429.5 -108t138.5 -331v-317q0 -191 24 -299h-346q-14 86 -14 174q-51 -97 -167 -151t-278 -54zM621 182q135 0 219 61.5t84 162.5v65
l-283 -29q-116 -13 -165.5 -45.5t-49.5 -93.5q0 -57 52 -89t143 -32z" />
    <glyph glyph-name="ae" unicode="&#xe6;" horiz-adv-x="2146" 
d="M2081 514v-76h-844q8 -106 84 -167.5t203 -61.5q187 0 274 149l262 -118q-77 -130 -218 -200.5t-326 -70.5q-169 0 -297.5 54t-204.5 155q-150 -209 -502 -209q-209 0 -326.5 83t-117.5 231q0 137 107.5 213.5t328.5 95.5l389 31v32q0 181 -211 181q-103 0 -163.5 -41
t-67.5 -117h-355q19 175 175.5 276t408.5 101q277 0 407 -133q155 133 412 133q276 0 429 -142.5t153 -398.5zM1237 629h500q-3 105 -69.5 165t-174.5 60q-116 0 -184 -58.5t-72 -166.5zM901 401v60l-274 -21q-201 -21 -201 -139q0 -56 49.5 -87.5t138.5 -31.5
q125 0 206 58.5t81 160.5z" />
    <glyph glyph-name="ccedilla" unicode="&#xe7;" horiz-adv-x="1351" 
d="M694 221q106 0 172.5 48.5t89.5 142.5l344 -66q-35 -162 -180 -261.5t-362 -113.5l-49 -73q49 30 129 30q102 0 160.5 -46t58.5 -134q0 -94 -81 -144t-222 -50q-215 0 -285 124l178 52q32 -52 103 -52q43 0 68.5 20.5t25.5 55.5q0 32 -24.5 52t-65.5 20q-57 0 -86 -33
l-148 33l80 147q-251 25 -398 170t-147 371q0 252 173.5 396.5t473.5 144.5q248 0 403 -98t195 -279l-346 -60q-22 92 -89 140.5t-173 48.5q-131 0 -204.5 -76t-73.5 -211q0 -141 74.5 -220t205.5 -79z" />
    <glyph glyph-name="egrave" unicode="&#xe8;" horiz-adv-x="1353" 
d="M817 1165h-280l-334 322h342zM1288 516v-82h-897q7 -106 90.5 -165.5t223.5 -59.5q208 0 301 149l262 -118q-80 -130 -228 -200.5t-344 -70.5q-300 0 -470.5 142t-170.5 393q0 256 168 403.5t453 147.5q291 0 451.5 -142.5t160.5 -396.5zM944 625v4q0 105 -74 165
t-198 60q-126 0 -200.5 -61t-82.5 -168h555z" />
    <glyph glyph-name="eacute" unicode="&#xe9;" horiz-adv-x="1353" 
d="M1147 1487l-334 -322h-281l273 322h342zM1288 516v-82h-897q7 -106 90.5 -165.5t223.5 -59.5q208 0 301 149l262 -118q-80 -130 -228 -200.5t-344 -70.5q-300 0 -470.5 142t-170.5 393q0 256 168 403.5t453 147.5q291 0 451.5 -142.5t160.5 -396.5zM944 625v4
q0 105 -74 165t-198 60q-126 0 -200.5 -61t-82.5 -168h555z" />
    <glyph glyph-name="ecircumflex" unicode="&#xea;" horiz-adv-x="1353" 
d="M676 1380l-172 -215h-268l262 322h356l262 -322h-266zM1288 516v-82h-897q7 -106 90.5 -165.5t223.5 -59.5q208 0 301 149l262 -118q-80 -130 -228 -200.5t-344 -70.5q-300 0 -470.5 142t-170.5 393q0 256 168 403.5t453 147.5q291 0 451.5 -142.5t160.5 -396.5zM944 625
v4q0 105 -74 165t-198 60q-126 0 -200.5 -61t-82.5 -168h555z" />
    <glyph glyph-name="edieresis" unicode="&#xeb;" horiz-adv-x="1353" 
d="M561 1458v-280h-317v280h317zM1108 1458v-280h-320v280h320zM1288 516v-82h-897q7 -106 90.5 -165.5t223.5 -59.5q208 0 301 149l262 -118q-80 -130 -228 -200.5t-344 -70.5q-300 0 -470.5 142t-170.5 393q0 256 168 403.5t453 147.5q291 0 451.5 -142.5t160.5 -396.5z
M944 625v4q0 105 -74 165t-198 60q-126 0 -200.5 -61t-82.5 -168h555z" />
    <glyph glyph-name="igrave" unicode="&#xec;" horiz-adv-x="653" 
d="M461 1165h-277l-229 322h315zM152 0v1024h350v-1024h-350z" />
    <glyph glyph-name="iacute" unicode="&#xed;" horiz-adv-x="653" 
d="M188 1165l191 322h315l-229 -322h-277zM152 0v1024h350v-1024h-350z" />
    <glyph glyph-name="icircumflex" unicode="&#xee;" horiz-adv-x="653" 
d="M649 1165h-229l-92 219l-90 -219h-232l158 322h328zM152 0v1024h350v-1024h-350z" />
    <glyph glyph-name="idieresis" unicode="&#xef;" horiz-adv-x="653" 
d="M-2 1178v280h283v-280h-283zM377 1178v280h282v-280h-282zM152 0v1024h350v-1024h-350z" />
    <glyph glyph-name="eth" unicode="&#xf0;" 
d="M1098 1286q254 -279 254 -692q0 -291 -177.5 -458t-488.5 -167q-308 0 -467.5 140.5t-159.5 392.5q0 243 145 388.5t394 145.5q130 0 226 -51t153 -139h4q-43 188 -213 344l-254 -76l-35 94l197 58q-70 51 -172 110l305 137q118 -67 207 -147l186 55l35 -94zM702 209
q142 0 219.5 79.5t77.5 219.5q0 137 -78 218t-214 81q-141 0 -215 -78t-74 -221q0 -137 74.5 -218t209.5 -81z" />
    <glyph glyph-name="ntilde" unicode="&#xf1;" horiz-adv-x="1482" 
d="M997 1176q-61 0 -115.5 20.5t-88 45t-75 45t-79.5 20.5q-46 0 -75 -28.5t-46 -92.5l-176 63q23 124 97 191t190 67q61 0 115.5 -21t88 -45.5t75 -45.5t79.5 -21q46 0 75 29t46 94l176 -63q-23 -124 -97 -191t-190 -67zM152 0v1024h340v-215q123 246 428 246
q215 0 325.5 -122t110.5 -360v-573h-350v520q0 275 -236 275q-127 0 -197.5 -76.5t-70.5 -214.5v-504h-350z" />
    <glyph glyph-name="ograve" unicode="&#xf2;" horiz-adv-x="1390" 
d="M836 1165h-281l-334 322h342zM694 -31q-187 0 -331 63.5t-226 188t-82 293.5q0 254 176.5 397.5t462.5 143.5q188 0 331.5 -62t226.5 -186t83 -293q0 -254 -177.5 -399.5t-463.5 -145.5zM694 205q133 0 209 80t76 229q0 148 -76 226.5t-209 78.5t-208.5 -78.5
t-75.5 -226.5q0 -149 76 -229t208 -80z" />
    <glyph glyph-name="oacute" unicode="&#xf3;" horiz-adv-x="1390" 
d="M551 1165l272 322h342l-334 -322h-280zM694 -31q-187 0 -331 63.5t-226 188t-82 293.5q0 254 176.5 397.5t462.5 143.5q188 0 331.5 -62t226.5 -186t83 -293q0 -254 -177.5 -399.5t-463.5 -145.5zM694 205q133 0 209 80t76 229q0 148 -76 226.5t-209 78.5t-208.5 -78.5
t-75.5 -226.5q0 -149 76 -229t208 -80z" />
    <glyph glyph-name="ocircumflex" unicode="&#xf4;" horiz-adv-x="1390" 
d="M1135 1165h-267l-174 215l-172 -215h-268l262 322h356zM694 -31q-187 0 -331 63.5t-226 188t-82 293.5q0 254 176.5 397.5t462.5 143.5q188 0 331.5 -62t226.5 -186t83 -293q0 -254 -177.5 -399.5t-463.5 -145.5zM694 205q133 0 209 80t76 229q0 148 -76 226.5t-209 78.5
t-208.5 -78.5t-75.5 -226.5q0 -149 76 -229t208 -80z" />
    <glyph glyph-name="otilde" unicode="&#xf5;" horiz-adv-x="1390" 
d="M883 1176q-61 0 -116 20.5t-88.5 45t-75 45t-79.5 20.5q-46 0 -75 -28.5t-46 -92.5l-176 63q23 124 97 191t190 67q61 0 115.5 -21t88 -45.5t75 -45.5t79.5 -21q46 0 75 29t46 94l176 -63q-23 -124 -96.5 -191t-189.5 -67zM694 -31q-187 0 -331 63.5t-226 188t-82 293.5
q0 254 176.5 397.5t462.5 143.5q188 0 331.5 -62t226.5 -186t83 -293q0 -254 -177.5 -399.5t-463.5 -145.5zM694 205q133 0 209 80t76 229q0 148 -76 226.5t-209 78.5t-208.5 -78.5t-75.5 -226.5q0 -149 76 -229t208 -80z" />
    <glyph glyph-name="odieresis" unicode="&#xf6;" horiz-adv-x="1390" 
d="M262 1178v280h318v-280h-318zM807 1178v280h319v-280h-319zM694 -31q-187 0 -331 63.5t-226 188t-82 293.5q0 254 176.5 397.5t462.5 143.5q188 0 331.5 -62t226.5 -186t83 -293q0 -254 -177.5 -399.5t-463.5 -145.5zM694 205q133 0 209 80t76 229q0 148 -76 226.5
t-209 78.5t-208.5 -78.5t-75.5 -226.5q0 -149 76 -229t208 -80z" />
    <glyph glyph-name="divide" unicode="&#xf7;" horiz-adv-x="1269" 
d="M631 897q-63 0 -104.5 40.5t-41.5 104.5q0 66 41.5 107t104.5 41q64 0 105.5 -40.5t41.5 -107.5q0 -63 -42 -104t-105 -41zM92 559v223h1086v-223h-1086zM631 145q-63 0 -104.5 41.5t-41.5 106.5t41 105t105 40t105.5 -40t41.5 -105q0 -64 -42 -106t-105 -42z" />
    <glyph glyph-name="oslash" unicode="&#xf8;" horiz-adv-x="1390" 
d="M1176 895q159 -143 159 -381q0 -254 -177.5 -399.5t-463.5 -145.5q-226 0 -389 94l-115 -110l-84 70l111 106q-162 146 -162 385q0 254 176.5 397.5t462.5 143.5q226 0 391 -92l113 108l84 -74zM410 514q0 -101 34 -168l435 418q-70 55 -185 55q-133 0 -208.5 -78.5
t-75.5 -226.5zM694 205q133 0 209 80t76 229q0 100 -33 162l-434 -416q70 -55 182 -55z" />
    <glyph glyph-name="ugrave" unicode="&#xf9;" horiz-adv-x="1466" 
d="M858 1165h-280l-334 322h342zM561 -31q-216 0 -325 113t-109 326v616h350v-547q0 -129 59 -189.5t162 -60.5q128 0 197.5 77t69.5 194v526h350v-1024h-338v211q-51 -115 -161.5 -178.5t-254.5 -63.5z" />
    <glyph glyph-name="uacute" unicode="&#xfa;" horiz-adv-x="1466" 
d="M573 1165l273 322h342l-334 -322h-281zM561 -31q-216 0 -325 113t-109 326v616h350v-547q0 -129 59 -189.5t162 -60.5q128 0 197.5 77t69.5 194v526h350v-1024h-338v211q-51 -115 -161.5 -178.5t-254.5 -63.5z" />
    <glyph glyph-name="ucircumflex" unicode="&#xfb;" horiz-adv-x="1466" 
d="M1157 1165h-266l-174 215l-172 -215h-269l263 322h356zM561 -31q-216 0 -325 113t-109 326v616h350v-547q0 -129 59 -189.5t162 -60.5q128 0 197.5 77t69.5 194v526h350v-1024h-338v211q-51 -115 -161.5 -178.5t-254.5 -63.5z" />
    <glyph glyph-name="udieresis" unicode="&#xfc;" horiz-adv-x="1466" 
d="M285 1178v280h317v-280h-317zM829 1178v280h320v-280h-320zM561 -31q-216 0 -325 113t-109 326v616h350v-547q0 -129 59 -189.5t162 -60.5q128 0 197.5 77t69.5 194v526h350v-1024h-338v211q-51 -115 -161.5 -178.5t-254.5 -63.5z" />
    <glyph glyph-name="yacute" unicode="&#xfd;" horiz-adv-x="1300" 
d="M516 1165l272 322h342l-333 -322h-281zM258 -420q-94 0 -174 14v261q77 -13 139 -13q195 0 256 129l8 31l-487 1022h387l246 -627q22 -55 33 -114h6q6 40 30 112l236 629h362l-462 -1071q-86 -199 -222 -286t-358 -87z" />
    <glyph glyph-name="thorn" unicode="&#xfe;" horiz-adv-x="1488" 
d="M162 -399v1884h350v-615q63 89 170.5 137t241.5 48q228 0 367 -148.5t139 -390.5q0 -244 -144.5 -395.5t-378.5 -151.5q-128 0 -231.5 46.5t-163.5 131.5v-546h-350zM788 205q128 0 203.5 84.5t75.5 226.5q0 140 -74 221.5t-205 81.5t-207.5 -76t-76.5 -208v-46
q0 -129 77.5 -206.5t206.5 -77.5z" />
    <glyph glyph-name="ydieresis" unicode="&#xff;" horiz-adv-x="1300" 
d="M227 1178v280h318v-280h-318zM772 1178v280h320v-280h-320zM258 -420q-94 0 -174 14v261q77 -13 139 -13q195 0 256 129l8 31l-487 1022h387l246 -627q22 -55 33 -114h6q6 40 30 112l236 629h362l-462 -1071q-86 -199 -222 -286t-358 -87z" />
    <glyph glyph-name="Amacron" unicode="&#x100;" horiz-adv-x="1722" 
d="M1284 1755v-201h-848v201h848zM1315 0l-121 317h-666l-122 -317h-381l618 1454h436l617 -1454h-381zM625 567h473l-140 365q-71 165 -96 270h-4q-20 -100 -94 -270z" />
    <glyph glyph-name="amacron" unicode="&#x101;" horiz-adv-x="1398" 
d="M289 1212v201h835v-201h-835zM487 -31q-194 0 -306.5 83.5t-112.5 228.5t110 223q108 73 357 98l380 35v31q0 170 -217 170q-106 0 -167 -40.5t-72 -117.5h-359q20 175 180.5 275t419.5 100q291 0 429.5 -108t138.5 -331v-317q0 -191 24 -299h-346q-14 86 -14 174
q-51 -97 -167 -151t-278 -54zM621 182q135 0 219 61.5t84 162.5v65l-283 -29q-116 -13 -165.5 -45.5t-49.5 -93.5q0 -57 52 -89t143 -32z" />
    <glyph glyph-name="Abreve" unicode="&#x102;" horiz-adv-x="1722" 
d="M860 1538q-173 0 -276.5 65.5t-116.5 186.5h223q9 -44 52.5 -70t117.5 -26t118.5 26t53.5 70h221q-13 -121 -116.5 -186.5t-276.5 -65.5zM1315 0l-121 317h-666l-122 -317h-381l618 1454h436l617 -1454h-381zM625 567h473l-140 365q-71 165 -96 270h-4q-20 -100 -94 -270
z" />
    <glyph glyph-name="abreve" unicode="&#x103;" horiz-adv-x="1398" 
d="M537 1487q12 -166 170 -166t170 166h227q-12 -167 -116.5 -249.5t-280.5 -82.5t-281 82.5t-115 249.5h226zM487 -31q-194 0 -306.5 83.5t-112.5 228.5t110 223q108 73 357 98l380 35v31q0 170 -217 170q-106 0 -167 -40.5t-72 -117.5h-359q20 175 180.5 275t419.5 100
q291 0 429.5 -108t138.5 -331v-317q0 -191 24 -299h-346q-14 86 -14 174q-51 -97 -167 -151t-278 -54zM621 182q135 0 219 61.5t84 162.5v65l-283 -29q-116 -13 -165.5 -45.5t-49.5 -93.5q0 -57 52 -89t143 -32z" />
    <glyph glyph-name="Aogonek" unicode="&#x104;" horiz-adv-x="1722" 
d="M1403 -270q76 0 115 86l172 -60q-68 -174 -310 -174q-132 0 -206 52.5t-74 144.5q0 152 213 227l-119 311h-666l-122 -317h-381l618 1454h436l617 -1454h-115q-136 -23 -200 -75t-64 -115q0 -36 23.5 -58t62.5 -22zM625 567h473l-140 365q-71 165 -96 270h-4
q-20 -100 -94 -270z" />
    <glyph glyph-name="aogonek" unicode="&#x105;" horiz-adv-x="1398" 
d="M1149 -184l172 -60q-68 -174 -309 -174q-132 0 -206.5 52.5t-74.5 144.5q0 152 215 227q-14 82 -14 168q-51 -97 -167 -151t-278 -54q-194 0 -306.5 83.5t-112.5 228.5t110 223q108 73 357 98l380 35v31q0 170 -217 170q-106 0 -167 -40.5t-72 -117.5h-359
q20 175 180.5 275t419.5 100q291 0 429.5 -108t138.5 -331v-317q0 -191 24 -299h-80q-136 -23 -200 -75t-64 -115q0 -36 23.5 -58t62.5 -22q76 0 115 86zM924 406v65l-283 -29q-116 -13 -165.5 -45.5t-49.5 -93.5q0 -57 52 -89t143 -32q135 0 219 61.5t84 162.5z" />
    <glyph glyph-name="Cacute" unicode="&#x106;" horiz-adv-x="1683" 
d="M719 1548l248 242h327l-293 -242h-282zM866 -41q-381 0 -598 206.5t-217 557.5q0 230 101.5 405t288.5 271t433 96q309 0 509 -142t247 -392l-377 -66q-28 150 -127.5 230.5t-259.5 80.5q-202 0 -318 -128.5t-116 -350.5q0 -218 119 -347.5t323 -129.5q155 0 254.5 77
t131.5 222l374 -80q-70 -242 -268.5 -376t-499.5 -134z" />
    <glyph glyph-name="cacute" unicode="&#x107;" horiz-adv-x="1351" 
d="M547 1165l272 322h342l-334 -322h-280zM696 -31q-292 0 -466.5 148t-174.5 397q0 252 173.5 396.5t473.5 144.5q248 0 403 -98t195 -279l-346 -60q-22 92 -89 140.5t-173 48.5q-131 0 -204.5 -76t-73.5 -211q0 -141 74.5 -220t205.5 -79q106 0 172.5 48.5t89.5 142.5
l344 -66q-38 -174 -200.5 -275.5t-403.5 -101.5z" />
    <glyph glyph-name="Ccircumflex" unicode="&#x108;" horiz-adv-x="1683" 
d="M1305 1548h-285l-160 146l-158 -146h-284l260 242h366zM866 -41q-381 0 -598 206.5t-217 557.5q0 230 101.5 405t288.5 271t433 96q309 0 509 -142t247 -392l-377 -66q-28 150 -127.5 230.5t-259.5 80.5q-202 0 -318 -128.5t-116 -350.5q0 -218 119 -347.5t323 -129.5
q155 0 254.5 77t131.5 222l374 -80q-70 -242 -268.5 -376t-499.5 -134z" />
    <glyph glyph-name="ccircumflex" unicode="&#x109;" horiz-adv-x="1351" 
d="M1130 1165h-266l-174 215l-172 -215h-268l262 322h356zM696 -31q-292 0 -466.5 148t-174.5 397q0 252 173.5 396.5t473.5 144.5q248 0 403 -98t195 -279l-346 -60q-22 92 -89 140.5t-173 48.5q-131 0 -204.5 -76t-73.5 -211q0 -141 74.5 -220t205.5 -79q106 0 172.5 48.5
t89.5 142.5l344 -66q-38 -174 -200.5 -275.5t-403.5 -101.5z" />
    <glyph glyph-name="Cdotaccent" unicode="&#x10a;" horiz-adv-x="1683" 
d="M678 1548v242h362v-242h-362zM866 -41q-381 0 -598 206.5t-217 557.5q0 230 101.5 405t288.5 271t433 96q309 0 509 -142t247 -392l-377 -66q-28 150 -127.5 230.5t-259.5 80.5q-202 0 -318 -128.5t-116 -350.5q0 -218 119 -347.5t323 -129.5q155 0 254.5 77t131.5 222
l374 -80q-70 -242 -268.5 -376t-499.5 -134z" />
    <glyph glyph-name="cdotaccent" unicode="&#x10b;" horiz-adv-x="1351" 
d="M506 1171v306h368v-306h-368zM696 -31q-292 0 -466.5 148t-174.5 397q0 252 173.5 396.5t473.5 144.5q248 0 403 -98t195 -279l-346 -60q-22 92 -89 140.5t-173 48.5q-131 0 -204.5 -76t-73.5 -211q0 -141 74.5 -220t205.5 -79q106 0 172.5 48.5t89.5 142.5l344 -66
q-38 -174 -200.5 -275.5t-403.5 -101.5z" />
    <glyph glyph-name="Ccaron" unicode="&#x10c;" horiz-adv-x="1683" 
d="M1305 1780l-261 -242h-366l-260 242h284l158 -146l160 146h285zM866 -41q-381 0 -598 206.5t-217 557.5q0 230 101.5 405t288.5 271t433 96q309 0 509 -142t247 -392l-377 -66q-28 150 -127.5 230.5t-259.5 80.5q-202 0 -318 -128.5t-116 -350.5q0 -218 119 -347.5
t323 -129.5q155 0 254.5 77t131.5 222l374 -80q-70 -242 -268.5 -376t-499.5 -134z" />
    <glyph glyph-name="ccaron" unicode="&#x10d;" horiz-adv-x="1351" 
d="M250 1477h266l174 -215l172 215h268l-262 -322h-356zM696 -31q-292 0 -466.5 148t-174.5 397q0 252 173.5 396.5t473.5 144.5q248 0 403 -98t195 -279l-346 -60q-22 92 -89 140.5t-173 48.5q-131 0 -204.5 -76t-73.5 -211q0 -141 74.5 -220t205.5 -79q106 0 172.5 48.5
t89.5 142.5l344 -66q-38 -174 -200.5 -275.5t-403.5 -101.5z" />
    <glyph glyph-name="Dcaron" unicode="&#x10e;" horiz-adv-x="1728" 
d="M1290 1780l-260 -242h-366l-261 242h285l158 -146l160 146h284zM168 0v1454h723q359 0 572.5 -191.5t213.5 -519.5q0 -334 -218 -538.5t-574 -204.5h-717zM535 264h323q205 0 320.5 131.5t115.5 345.5q0 206 -116 327.5t-320 121.5h-323v-926z" />
    <glyph glyph-name="dcaron" unicode="&#x10f;" horiz-adv-x="1488" 
d="M569 -31q-226 0 -368 150.5t-142 392.5q0 244 146 393.5t381 149.5q271 0 391 -176v606h350v-1485h-336v186q-57 -102 -167.5 -159.5t-254.5 -57.5zM1513 1067l-51 100q60 10 84.5 29t26.5 51h-154v207h305v-166q0 -189 -211 -221zM705 205q125 0 201.5 74.5t76.5 195.5
v68q0 128 -77.5 202t-207.5 74q-131 0 -203.5 -79.5t-72.5 -223.5q0 -143 76.5 -227t206.5 -84z" />
    <glyph glyph-name="Dcroat" unicode="&#x110;" horiz-adv-x="1728" 
d="M891 1454q359 0 572.5 -191.5t213.5 -519.5q0 -334 -218 -538.5t-574 -204.5h-717v649h-160v207h160v598h723zM858 264q205 0 320.5 131.5t115.5 345.5q0 206 -116 327.5t-320 121.5h-323v-334h389v-207h-389v-385h323z" />
    <glyph glyph-name="dcroat" unicode="&#x111;" horiz-adv-x="1488" 
d="M1503 1319v-139h-176v-1180h-336v186q-57 -102 -167.5 -159.5t-254.5 -57.5q-226 0 -368 150.5t-142 392.5q0 244 146 393.5t381 149.5q271 0 391 -176v301h-399v139h399v166h350v-166h176zM983 475v68q0 128 -77.5 202t-207.5 74q-131 0 -203.5 -79.5t-72.5 -223.5
q0 -143 76.5 -227t206.5 -84q125 0 201.5 74.5t76.5 195.5z" />
    <glyph glyph-name="Emacron" unicode="&#x112;" horiz-adv-x="1486" 
d="M1204 1755v-201h-848v201h848zM535 268h839v-268h-1206v1454h1192v-266h-825v-318h790v-258h-790v-344z" />
    <glyph glyph-name="emacron" unicode="&#x113;" horiz-adv-x="1353" 
d="M1094 1413v-201h-836v201h836zM1288 516v-82h-897q7 -106 90.5 -165.5t223.5 -59.5q208 0 301 149l262 -118q-80 -130 -228 -200.5t-344 -70.5q-300 0 -470.5 142t-170.5 393q0 256 168 403.5t453 147.5q291 0 451.5 -142.5t160.5 -396.5zM944 625v4q0 105 -74 165
t-198 60q-126 0 -200.5 -61t-82.5 -168h555z" />
    <glyph glyph-name="Ebreve" unicode="&#x114;" horiz-adv-x="1486" 
d="M780 1538q-173 0 -276.5 65.5t-116.5 186.5h223q9 -44 52.5 -70t117.5 -26t118.5 26t53.5 70h222q-13 -121 -117 -186.5t-277 -65.5zM535 268h839v-268h-1206v1454h1192v-266h-825v-318h790v-258h-790v-344z" />
    <glyph glyph-name="ebreve" unicode="&#x115;" horiz-adv-x="1353" 
d="M676 1155q-176 0 -280.5 82.5t-114.5 249.5h225q12 -166 170 -166t170 166h227q-12 -167 -116.5 -249.5t-280.5 -82.5zM1288 516v-82h-897q7 -106 90.5 -165.5t223.5 -59.5q208 0 301 149l262 -118q-80 -130 -228 -200.5t-344 -70.5q-300 0 -470.5 142t-170.5 393
q0 256 168 403.5t453 147.5q291 0 451.5 -142.5t160.5 -396.5zM944 625v4q0 105 -74 165t-198 60q-126 0 -200.5 -61t-82.5 -168h555z" />
    <glyph glyph-name="Edotaccent" unicode="&#x116;" horiz-adv-x="1486" 
d="M961 1790v-242h-363v242h363zM535 268h839v-268h-1206v1454h1192v-266h-825v-318h790v-258h-790v-344z" />
    <glyph glyph-name="edotaccent" unicode="&#x117;" horiz-adv-x="1353" 
d="M860 1477v-306h-368v306h368zM1288 516v-82h-897q7 -106 90.5 -165.5t223.5 -59.5q208 0 301 149l262 -118q-80 -130 -228 -200.5t-344 -70.5q-300 0 -470.5 142t-170.5 393q0 256 168 403.5t453 147.5q291 0 451.5 -142.5t160.5 -396.5zM944 625v4q0 105 -74 165
t-198 60q-126 0 -200.5 -61t-82.5 -168h555z" />
    <glyph glyph-name="Eogonek" unicode="&#x118;" horiz-adv-x="1486" 
d="M1311 -184l172 -60q-68 -174 -309 -174q-132 0 -206.5 52.5t-74.5 144.5q0 147 199 221h-924v1454h1192v-266h-825v-318h790v-258h-790v-344h839v-268q-136 -23 -200 -75t-64 -115q0 -36 23.5 -58t62.5 -22q76 0 115 86z" />
    <glyph glyph-name="eogonek" unicode="&#x119;" horiz-adv-x="1353" 
d="M1288 516v-82h-897q7 -106 90.5 -165.5t223.5 -59.5q208 0 301 149l262 -118q-105 -169 -320 -236h2q-4 0 -6 -2l-80 -18q-91 -28 -134.5 -73.5t-43.5 -96.5q0 -36 23.5 -58t62.5 -22q76 0 115 86l172 -60q-68 -174 -309 -174q-132 0 -206.5 52.5t-74.5 144.5
q0 119 131 190q-257 23 -401 162.5t-144 368.5q0 256 168 403.5t453 147.5q291 0 451.5 -142.5t160.5 -396.5zM944 625v4q0 105 -74 165t-198 60q-126 0 -200.5 -61t-82.5 -168h555z" />
    <glyph glyph-name="Ecaron" unicode="&#x11a;" horiz-adv-x="1486" 
d="M965 1538h-367l-260 242h285l157 -146l160 146h285zM535 268h839v-268h-1206v1454h1192v-266h-825v-318h790v-258h-790v-344z" />
    <glyph glyph-name="ecaron" unicode="&#x11b;" horiz-adv-x="1353" 
d="M854 1155h-356l-262 322h266l174 -215l172 215h268zM1288 516v-82h-897q7 -106 90.5 -165.5t223.5 -59.5q208 0 301 149l262 -118q-80 -130 -228 -200.5t-344 -70.5q-300 0 -470.5 142t-170.5 393q0 256 168 403.5t453 147.5q291 0 451.5 -142.5t160.5 -396.5zM944 625v4
q0 105 -74 165t-198 60q-126 0 -200.5 -61t-82.5 -168h555z" />
    <glyph glyph-name="Gcircumflex" unicode="&#x11c;" horiz-adv-x="1734" 
d="M1321 1548h-285l-159 146l-158 -146h-285l260 242h367zM791 -41q-227 0 -395.5 95t-256.5 266.5t-88 398.5q0 172 58 315.5t164 245.5t261.5 158.5t344.5 56.5q302 0 497 -125.5t246 -333.5l-379 -69q-31 116 -125.5 186t-245.5 70q-208 0 -324 -133.5t-116 -364.5
q0 -229 116 -361.5t326 -132.5q94 0 172.5 27t129 71t78.5 98t30 110v22h-442v252h780v-811h-268l-17 227q-66 -124 -205 -196t-341 -72z" />
    <glyph glyph-name="gcircumflex" unicode="&#x11d;" horiz-adv-x="1392" 
d="M682 1395l-172 -178h-268l262 270h356l262 -270h-266zM1354 971q-52 12 -105 12q-88 0 -141 -35q129 -91 129 -241q0 -162 -150.5 -258.5t-408.5 -96.5q-153 0 -272 35q-41 -21 -41 -57q0 -80 137 -80h440q404 -3 404 -301q0 -187 -175.5 -283t-525.5 -96
q-295 0 -442.5 63.5t-147.5 182.5q0 132 181 184q-72 28 -111 77.5t-39 115.5q0 85 55.5 145t159.5 90q-90 47 -137 118.5t-47 160.5q0 163 149.5 255.5t411.5 92.5q171 0 299 -41q26 92 106.5 141t206.5 49q30 0 64 -6v-227zM678 528q100 0 158.5 48.5t58.5 130.5t-58 128
t-159 46q-103 0 -161 -46t-58 -128t59 -130.5t160 -48.5zM905 -33l-477 2q-24 0 -70 4q-43 -37 -43 -92q0 -69 88 -101t263 -32q208 0 296.5 30t88.5 95q0 94 -146 94z" />
    <glyph glyph-name="Gbreve" unicode="&#x11e;" horiz-adv-x="1734" 
d="M707 1790q9 -44 52.5 -70t117.5 -26t118.5 26t53.5 70h221q-13 -121 -116.5 -186.5t-276.5 -65.5t-277 65.5t-117 186.5h224zM791 -41q-227 0 -395.5 95t-256.5 266.5t-88 398.5q0 172 58 315.5t164 245.5t261.5 158.5t344.5 56.5q302 0 497 -125.5t246 -333.5l-379 -69
q-31 116 -125.5 186t-245.5 70q-208 0 -324 -133.5t-116 -364.5q0 -229 116 -361.5t326 -132.5q94 0 172.5 27t129 71t78.5 98t30 110v22h-442v252h780v-811h-268l-17 227q-66 -124 -205 -196t-341 -72z" />
    <glyph glyph-name="gbreve" unicode="&#x11f;" horiz-adv-x="1392" 
d="M682 1155q-176 0 -280.5 82.5t-114.5 249.5h225q12 -166 170 -166t170 166h227q-12 -167 -116.5 -249.5t-280.5 -82.5zM1354 971q-52 12 -105 12q-88 0 -141 -35q129 -91 129 -241q0 -162 -150.5 -258.5t-408.5 -96.5q-153 0 -272 35q-41 -21 -41 -57q0 -80 137 -80h440
q404 -3 404 -301q0 -187 -175.5 -283t-525.5 -96q-295 0 -442.5 63.5t-147.5 182.5q0 132 181 184q-72 28 -111 77.5t-39 115.5q0 85 55.5 145t159.5 90q-90 47 -137 118.5t-47 160.5q0 163 149.5 255.5t411.5 92.5q171 0 299 -41q26 92 106.5 141t206.5 49q30 0 64 -6v-227
zM678 528q100 0 158.5 48.5t58.5 130.5t-58 128t-159 46q-103 0 -161 -46t-58 -128t59 -130.5t160 -48.5zM905 -33l-477 2q-24 0 -70 4q-43 -37 -43 -92q0 -69 88 -101t263 -32q208 0 296.5 30t88.5 95q0 94 -146 94z" />
    <glyph glyph-name="Gdotaccent" unicode="&#x120;" horiz-adv-x="1734" 
d="M694 1548v242h363v-242h-363zM791 -41q-227 0 -395.5 95t-256.5 266.5t-88 398.5q0 172 58 315.5t164 245.5t261.5 158.5t344.5 56.5q302 0 497 -125.5t246 -333.5l-379 -69q-31 116 -125.5 186t-245.5 70q-208 0 -324 -133.5t-116 -364.5q0 -229 116 -361.5t326 -132.5
q94 0 172.5 27t129 71t78.5 98t30 110v22h-442v252h780v-811h-268l-17 227q-66 -124 -205 -196t-341 -72z" />
    <glyph glyph-name="gdotaccent" unicode="&#x121;" horiz-adv-x="1392" 
d="M866 1477v-306h-368v306h368zM1354 971q-52 12 -105 12q-88 0 -141 -35q129 -91 129 -241q0 -162 -150.5 -258.5t-408.5 -96.5q-153 0 -272 35q-41 -21 -41 -57q0 -80 137 -80h440q404 -3 404 -301q0 -187 -175.5 -283t-525.5 -96q-295 0 -442.5 63.5t-147.5 182.5
q0 132 181 184q-72 28 -111 77.5t-39 115.5q0 85 55.5 145t159.5 90q-90 47 -137 118.5t-47 160.5q0 163 149.5 255.5t411.5 92.5q171 0 299 -41q26 92 106.5 141t206.5 49q30 0 64 -6v-227zM678 528q100 0 158.5 48.5t58.5 130.5t-58 128t-159 46q-103 0 -161 -46t-58 -128
t59 -130.5t160 -48.5zM905 -33l-477 2q-24 0 -70 4q-43 -37 -43 -92q0 -69 88 -101t263 -32q208 0 296.5 30t88.5 95q0 94 -146 94z" />
    <glyph glyph-name="Gcommaaccent" unicode="&#x122;" horiz-adv-x="1734" 
d="M791 -41q-227 0 -395.5 95t-256.5 266.5t-88 398.5q0 172 58 315.5t164 245.5t261.5 158.5t344.5 56.5q302 0 497 -125.5t246 -333.5l-379 -69q-31 116 -125.5 186t-245.5 70q-208 0 -324 -133.5t-116 -364.5q0 -229 116 -361.5t326 -132.5q94 0 172.5 27t129 71t78.5 98
t30 110v22h-442v252h780v-811h-268l-17 227q-66 -124 -205 -196t-341 -72zM817 -498l-53 105q64 15 88.5 36.5t26.5 61.5h-158v207h309v-172q0 -199 -213 -238z" />
    <glyph glyph-name="gcommaaccent" unicode="&#x123;" horiz-adv-x="1392" 
d="M838 1372v-207h-310v172q0 199 213 238l54 -105q-64 -15 -88.5 -36.5t-26.5 -61.5h158zM1354 971q-52 12 -105 12q-88 0 -141 -35q129 -91 129 -241q0 -162 -150.5 -258.5t-408.5 -96.5q-153 0 -272 35q-41 -21 -41 -57q0 -80 137 -80h440q404 -3 404 -301
q0 -187 -175.5 -283t-525.5 -96q-295 0 -442.5 63.5t-147.5 182.5q0 132 181 184q-72 28 -111 77.5t-39 115.5q0 85 55.5 145t159.5 90q-90 47 -137 118.5t-47 160.5q0 163 149.5 255.5t411.5 92.5q171 0 299 -41q26 92 106.5 141t206.5 49q30 0 64 -6v-227zM678 528
q100 0 158.5 48.5t58.5 130.5t-58 128t-159 46q-103 0 -161 -46t-58 -128t59 -130.5t160 -48.5zM905 -33l-477 2q-24 0 -70 4q-43 -37 -43 -92q0 -69 88 -101t263 -32q208 0 296.5 30t88.5 95q0 94 -146 94z" />
    <glyph glyph-name="Hcircumflex" unicode="&#x124;" horiz-adv-x="1777" 
d="M1333 1548h-284l-160 146l-158 -146h-285l261 242h366zM1610 1454v-1454h-369v600h-706v-600h-367v1454h367v-580h706v580h369z" />
    <glyph glyph-name="hcircumflex" unicode="&#x125;" horiz-adv-x="1492" 
d="M782 1548h-284l-160 146l-158 -146h-284l260 242h366zM162 0v1485h350v-660q58 114 164.5 173t249.5 59q215 0 327.5 -126.5t112.5 -369.5v-561h-350v524q0 135 -60.5 204t-179.5 69q-125 0 -194.5 -77t-69.5 -216v-504h-350z" />
    <glyph glyph-name="Hbar" unicode="&#x126;" horiz-adv-x="1777" 
d="M1769 1229v-154h-159v-1075h-369v600h-706v-600h-367v1075h-162v154h162v225h367v-225h706v225h369v-225h159zM1241 874v201h-706v-201h706z" />
    <glyph glyph-name="hbar" unicode="&#x127;" horiz-adv-x="1462" 
d="M926 1057q215 0 327.5 -126.5t112.5 -369.5v-561h-350v524q0 135 -60.5 204t-179.5 69q-125 0 -194.5 -77t-69.5 -216v-504h-350v1180h-168v139h168v166h350v-166h477v-139h-477v-355q58 114 164.5 173t249.5 59z" />
    <glyph glyph-name="Itilde" unicode="&#x128;" horiz-adv-x="702" 
d="M504 1538q-47 0 -91 20t-71.5 43.5t-58.5 43.5t-56 20q-61 0 -67 -100l-152 57q6 101 58 162t139 61q47 0 90.5 -20t70.5 -43.5t58.5 -43.5t56.5 -20q60 0 66 101l153 -56q-6 -102 -57.5 -163.5t-138.5 -61.5zM535 0h-367v1454h367v-1454z" />
    <glyph glyph-name="itilde" unicode="&#x129;" horiz-adv-x="653" 
d="M459 1174q-43 0 -83 21.5t-64.5 47t-51.5 47t-47 21.5q-43 0 -57 -115l-160 55q17 123 71 190.5t138 67.5q35 0 67.5 -14.5t56 -35t44 -40.5t40.5 -34.5t36 -14.5q45 0 59 115l158 -55q-15 -120 -69.5 -188t-137.5 -68zM152 0v1024h350v-1024h-350z" />
    <glyph glyph-name="Imacron" unicode="&#x12a;" horiz-adv-x="702" 
d="M53 1554v203h592v-203h-592zM535 0h-367v1454h367v-1454z" />
    <glyph glyph-name="imacron" unicode="&#x12b;" horiz-adv-x="653" 
d="M55 1214v199h543v-199h-543zM152 0v1024h350v-1024h-350z" />
    <glyph glyph-name="Ibreve" unicode="&#x12c;" horiz-adv-x="702" 
d="M244 1790q2 -44 30.5 -71t79.5 -27q50 0 78.5 27t30.5 71h207q-7 -122 -90.5 -187t-225.5 -65q-144 0 -227 65t-90 187h207zM535 0h-367v1454h367v-1454z" />
    <glyph glyph-name="ibreve" unicode="&#x12d;" horiz-adv-x="653" 
d="M246 1487q-3 -166 82 -166q42 0 62 38.5t20 127.5h204q-5 -332 -286 -332q-132 0 -208 79.5t-79 252.5h205zM152 0v1024h350v-1024h-350z" />
    <glyph glyph-name="Iogonek" unicode="&#x12e;" horiz-adv-x="702" 
d="M371 -184l172 -60q-68 -174 -310 -174q-132 0 -206 52.5t-74 144.5q0 152 215 227v1448h367v-1454h-101q-136 -23 -200 -75t-64 -115q0 -36 23.5 -58t62.5 -22q76 0 115 86z" />
    <glyph glyph-name="iogonek" unicode="&#x12f;" horiz-adv-x="653" 
d="M512 1477v-306h-369v306h369zM354 -184l172 -60q-68 -174 -309 -174q-132 0 -206 52.5t-74 144.5q0 152 215 227v1018h350v-1024h-84q-136 -23 -200 -75t-64 -115q0 -36 23.5 -58t62.5 -22q75 0 114 86z" />
    <glyph glyph-name="Idotaccent" unicode="&#x130;" horiz-adv-x="702" 
d="M170 1548v242h362v-242h-362zM535 0h-367v1454h367v-1454z" />
    <glyph glyph-name="dotlessi" unicode="&#x131;" horiz-adv-x="653" 
d="M152 0v1024h350v-1024h-350z" />
    <glyph glyph-name="IJ" unicode="&#x132;" horiz-adv-x="1648" 
d="M535 0h-367v1454h367v-1454zM1518 475q0 -132 -38 -229t-110 -156.5t-169 -88t-222 -28.5q-149 0 -244 21v293q106 -13 162 -13q124 0 189 62t65 207v911h367v-979z" />
    <glyph glyph-name="ij" unicode="&#x133;" horiz-adv-x="1333" 
d="M143 1171v306h369v-306h-369zM819 1171v306h369v-306h-369zM152 0v1024h350v-1024h-350zM748 -418q-95 0 -164 15v251q53 -6 106 -6q76 0 108.5 42.5t32.5 148.5v991h351v-1024q0 -102 -22 -176.5t-71 -130t-134 -83.5t-207 -28z" />
    <glyph glyph-name="Jcircumflex" unicode="&#x134;" horiz-adv-x="946" 
d="M963 1548h-240l-88 152l-88 -152h-242l156 242h346zM815 475q0 -132 -38 -229t-110 -156.5t-169 -88t-222 -28.5q-148 0 -243 21v293q106 -13 162 -13q124 0 189 62t65 207v911h366v-979z" />
    <glyph glyph-name="jcircumflex" unicode="&#x135;" horiz-adv-x="671" 
d="M664 1165h-230l-92 219l-90 -219h-232l158 322h328zM86 -418q-95 0 -164 15v251q53 -6 107 -6q76 0 108.5 42.5t32.5 148.5v991h350v-1024q0 -102 -22 -176.5t-71 -130t-134 -83.5t-207 -28z" />
    <glyph glyph-name="Kcommaaccent" unicode="&#x136;" horiz-adv-x="1675" 
d="M1044 879l598 -879h-423l-437 641l-247 -246v-395h-367v1454h367v-653l639 653h436zM688 -295v207h309v-172q0 -199 -213 -238l-53 105q64 15 88.5 36.5t26.5 61.5h-158z" />
    <glyph glyph-name="kcommaaccent" unicode="&#x137;" horiz-adv-x="1429" 
d="M965 635l434 -635h-393l-299 444l-195 -165v-279h-350v1485h350v-877l442 416h430zM578 -295v207h309v-172q0 -199 -213 -238l-53 105q64 15 88 36.5t26 61.5h-157z" />
    <glyph glyph-name="kgreenlandic" unicode="&#x138;" horiz-adv-x="1419" 
d="M995 0l-299 444l-194 -165v-279h-350v1024h350v-416l442 416h430l-420 -389l435 -635h-394z" />
    <glyph glyph-name="Lacute" unicode="&#x139;" horiz-adv-x="1339" 
d="M211 1548l248 242h327l-292 -242h-283zM168 0v1454h367v-1159h761v-295h-1128z" />
    <glyph glyph-name="lacute" unicode="&#x13a;" horiz-adv-x="673" 
d="M197 1548l247 242h328l-293 -242h-282zM512 1485v-1485h-350v1485h350z" />
    <glyph glyph-name="Lcommaaccent" unicode="&#x13b;" horiz-adv-x="1339" 
d="M168 0v1454h367v-1159h761v-295h-1128zM692 -498l-53 105q64 15 88.5 36.5t26.5 61.5h-158v207h309v-172q0 -199 -213 -238z" />
    <glyph glyph-name="lcommaaccent" unicode="&#x13c;" horiz-adv-x="673" 
d="M512 1485v-1485h-350v1485h350zM279 -498l-54 105q64 15 88.5 36.5t26.5 61.5h-158v207h310v-172q0 -199 -213 -238z" />
    <glyph glyph-name="Lcaron" unicode="&#x13d;" horiz-adv-x="1339" 
d="M168 0v1454h367v-1159h761v-295h-1128zM764 1067l-51 100q59 10 83.5 29t26.5 51h-153v207h305v-166q0 -189 -211 -221z" />
    <glyph glyph-name="lcaron" unicode="&#x13e;" horiz-adv-x="673" 
d="M512 1485v-1485h-350v1485h350zM698 1067l-51 100q60 10 84.5 29t26.5 51h-154v207h305v-166q0 -189 -211 -221z" />
    <glyph glyph-name="Ldot" unicode="&#x13f;" horiz-adv-x="1339" 
d="M168 0v1454h367v-1159h761v-295h-1128zM1116 1024v-334h-379v334h379z" />
    <glyph glyph-name="ldot" unicode="&#x140;" horiz-adv-x="993" 
d="M512 1485v-1485h-350v1485h350zM1024 1024v-334h-379v334h379z" />
    <glyph glyph-name="Lslash" unicode="&#x141;" horiz-adv-x="1339" 
d="M535 295h761v-295h-1128v504l-186 -90v211l186 90v739h367v-559l454 221v-211l-454 -221v-389z" />
    <glyph glyph-name="lslash" unicode="&#x142;" horiz-adv-x="673" 
d="M633 1139v-176l-121 -103v-860h-350v561l-121 -102v176l121 102v748h350v-449z" />
    <glyph glyph-name="Nacute" unicode="&#x143;" horiz-adv-x="1779" 
d="M752 1548l247 242h328l-293 -242h-282zM168 0v1454h401l605 -833q58 -85 98 -177h4v193v817h336v-1454h-381l-627 844q-74 117 -96 170h-6q2 -61 2 -195v-819h-336z" />
    <glyph glyph-name="nacute" unicode="&#x144;" horiz-adv-x="1482" 
d="M666 1165l272 322h342l-334 -322h-280zM152 0v1024h340v-215q123 246 428 246q215 0 325.5 -122t110.5 -360v-573h-350v520q0 275 -236 275q-127 0 -197.5 -76.5t-70.5 -214.5v-504h-350z" />
    <glyph glyph-name="Ncommaaccent" unicode="&#x145;" horiz-adv-x="1779" 
d="M168 0v1454h401l605 -833q58 -85 98 -177h4v193v817h336v-1454h-381l-627 844q-74 117 -96 170h-6q2 -61 2 -195v-819h-336zM834 -498l-54 105q64 15 88.5 36.5t26.5 61.5h-158v207h310v-172q0 -199 -213 -238z" />
    <glyph glyph-name="ncommaaccent" unicode="&#x146;" horiz-adv-x="1482" 
d="M152 0v1024h340v-215q123 246 428 246q215 0 325.5 -122t110.5 -360v-573h-350v520q0 275 -236 275q-127 0 -197.5 -76.5t-70.5 -214.5v-504h-350zM682 -498l-53 105q64 15 88 36.5t26 61.5h-157v207h309v-172q0 -199 -213 -238z" />
    <glyph glyph-name="Ncaron" unicode="&#x147;" horiz-adv-x="1779" 
d="M1337 1780l-260 -242h-366l-260 242h284l158 -146l160 146h284zM168 0v1454h401l605 -833q58 -85 98 -177h4v193v817h336v-1454h-381l-627 844q-74 117 -96 170h-6q2 -61 2 -195v-819h-336z" />
    <glyph glyph-name="ncaron" unicode="&#x148;" horiz-adv-x="1482" 
d="M369 1477h266l174 -215l172 215h268l-262 -322h-356zM152 0v1024h340v-215q123 246 428 246q215 0 325.5 -122t110.5 -360v-573h-350v520q0 275 -236 275q-127 0 -197.5 -76.5t-70.5 -214.5v-504h-350z" />
    <glyph glyph-name="napostrophe" unicode="&#x149;" horiz-adv-x="1482" 
d="M84 1067l-51 100q59 10 83.5 29t26.5 51h-153v207h305v-166q0 -189 -211 -221zM152 0v1024h340v-215q123 246 428 246q215 0 325.5 -122t110.5 -360v-573h-350v520q0 275 -236 275q-127 0 -197.5 -76.5t-70.5 -214.5v-504h-350z" />
    <glyph glyph-name="Eng" unicode="&#x14a;" horiz-adv-x="1779" 
d="M1276 1454h336v-1466q0 -115 -36 -198t-102 -130.5t-148 -69.5t-185 -22q-142 0 -250 18v279q79 -12 201 -12q167 0 180 147h-41l-627 844q-74 117 -96 170h-6q2 -61 2 -195v-819h-336v1454h401l605 -833q58 -85 98 -177h4v193v817z" />
    <glyph glyph-name="eng" unicode="&#x14b;" horiz-adv-x="1482" 
d="M1356 344h2v-348q0 -100 -22 -173t-71.5 -127t-134.5 -81t-208 -27q-110 0 -174 15v247q57 -8 108 -8q76 0 112.5 35t39.5 123h-2v520q0 275 -236 275q-127 0 -197.5 -76.5t-70.5 -214.5v-504h-350v1024h340v-215q123 246 428 246q215 0 325.5 -122t110.5 -360v-229z" />
    <glyph glyph-name="Omacron" unicode="&#x14c;" horiz-adv-x="1757" 
d="M455 1554v201h848v-201h-848zM879 -41q-377 0 -602.5 208.5t-225.5 559.5t225.5 559.5t602.5 208.5t602 -208.5t225 -559.5t-225 -559.5t-602 -208.5zM879 242q204 0 324 130.5t120 354.5t-120 354.5t-324 130.5t-324.5 -130.5t-120.5 -354.5q0 -223 120.5 -354
t324.5 -131z" />
    <glyph glyph-name="omacron" unicode="&#x14d;" horiz-adv-x="1390" 
d="M276 1212v201h836v-201h-836zM694 -31q-187 0 -331 63.5t-226 188t-82 293.5q0 254 176.5 397.5t462.5 143.5q188 0 331.5 -62t226.5 -186t83 -293q0 -254 -177.5 -399.5t-463.5 -145.5zM694 205q133 0 209 80t76 229q0 148 -76 226.5t-209 78.5t-208.5 -78.5
t-75.5 -226.5q0 -149 76 -229t208 -80z" />
    <glyph glyph-name="Obreve" unicode="&#x14e;" horiz-adv-x="1757" 
d="M709 1790q9 -44 52.5 -70t117.5 -26t118.5 26t53.5 70h221q-13 -121 -116.5 -186.5t-276.5 -65.5t-277 65.5t-117 186.5h224zM879 -41q-377 0 -602.5 208.5t-225.5 559.5t225.5 559.5t602.5 208.5t602 -208.5t225 -559.5t-225 -559.5t-602 -208.5zM879 242
q204 0 324 130.5t120 354.5t-120 354.5t-324 130.5t-324.5 -130.5t-120.5 -354.5q0 -223 120.5 -354t324.5 -131z" />
    <glyph glyph-name="obreve" unicode="&#x14f;" horiz-adv-x="1390" 
d="M524 1487q12 -166 170 -166t170 166h228q-12 -167 -117 -249.5t-281 -82.5t-280.5 82.5t-114.5 249.5h225zM694 -31q-187 0 -331 63.5t-226 188t-82 293.5q0 254 176.5 397.5t462.5 143.5q188 0 331.5 -62t226.5 -186t83 -293q0 -254 -177.5 -399.5t-463.5 -145.5z
M694 205q133 0 209 80t76 229q0 148 -76 226.5t-209 78.5t-208.5 -78.5t-75.5 -226.5q0 -149 76 -229t208 -80z" />
    <glyph glyph-name="Ohungarumlaut" unicode="&#x150;" horiz-adv-x="1757" 
d="M530 1550l240 240h291l-256 -240h-275zM950 1550l242 240h289l-256 -240h-275zM879 -41q-377 0 -602.5 208.5t-225.5 559.5t225.5 559.5t602.5 208.5t602 -208.5t225 -559.5t-225 -559.5t-602 -208.5zM879 242q204 0 324 130.5t120 354.5t-120 354.5t-324 130.5
t-324.5 -130.5t-120.5 -354.5q0 -223 120.5 -354t324.5 -131z" />
    <glyph glyph-name="ohungarumlaut" unicode="&#x151;" horiz-adv-x="1390" 
d="M371 1165l235 322h264l-249 -322h-250zM770 1165l236 322h264l-252 -322h-248zM694 -31q-187 0 -331 63.5t-226 188t-82 293.5q0 254 176.5 397.5t462.5 143.5q188 0 331.5 -62t226.5 -186t83 -293q0 -254 -177.5 -399.5t-463.5 -145.5zM694 205q133 0 209 80t76 229
q0 148 -76 226.5t-209 78.5t-208.5 -78.5t-75.5 -226.5q0 -149 76 -229t208 -80z" />
    <glyph glyph-name="OE" unicode="&#x152;" horiz-adv-x="2459" 
d="M1507 268h840v-268h-1522q-353 0 -563.5 199t-210.5 540q0 223 99.5 385.5t277.5 246t414 83.5h1491v-266h-826v-318h791v-258h-791v-344zM874 264h267v926h-264q-210 0 -327.5 -120t-117.5 -335q0 -218 118.5 -344.5t323.5 -126.5z" />
    <glyph glyph-name="oe" unicode="&#x153;" horiz-adv-x="2285" 
d="M2220 516v-82h-897q7 -106 90 -165.5t223 -59.5q208 0 301 149l263 -118q-80 -130 -228 -200.5t-344 -70.5q-309 0 -481 152q-168 -152 -449 -152q-290 0 -466.5 149t-176.5 394q0 247 175.5 395t467.5 148q276 0 451 -154q171 154 459 154q291 0 451.5 -142.5
t160.5 -396.5zM1876 625v4q0 105 -74 165t-198 60q-126 0 -200.5 -61t-82.5 -168h555zM698 207q138 0 213.5 82t75.5 223t-75.5 223t-213.5 82q-136 0 -212 -82t-76 -223t76 -223t212 -82z" />
    <glyph glyph-name="Racute" unicode="&#x154;" horiz-adv-x="1619" 
d="M1190 1790l-293 -242h-283l248 242h328zM1153 0l-307 543h-311v-543h-367v1454h790q147 0 256.5 -35t174 -97.5t96 -142t31.5 -175.5q0 -90 -30.5 -169t-101 -144.5t-174.5 -98.5l349 -592h-406zM535 1200v-412h344q130 0 190.5 57t60.5 154q0 92 -60.5 146.5
t-190.5 54.5h-344z" />
    <glyph glyph-name="racute" unicode="&#x155;" horiz-adv-x="968" 
d="M360 1165l273 322h342l-334 -322h-281zM471 741q43 148 144.5 229t250.5 81q33 0 68 -7v-319q-47 8 -105 8q-154 0 -235 -78q-92 -85 -92 -270v-385h-350v1024h319v-283z" />
    <glyph glyph-name="Rcommaaccent" unicode="&#x156;" horiz-adv-x="1619" 
d="M1210 592l349 -592h-406l-307 543h-311v-543h-367v1454h790q147 0 256.5 -35t174 -97.5t96 -142t31.5 -175.5q0 -90 -30.5 -169t-101 -144.5t-174.5 -98.5zM535 1200v-412h344q130 0 190.5 57t60.5 154q0 92 -60.5 146.5t-190.5 54.5h-344zM649 -295v207h309v-172
q0 -199 -213 -238l-53 105q64 15 88.5 36.5t26.5 61.5h-158z" />
    <glyph glyph-name="rcommaaccent" unicode="&#x157;" horiz-adv-x="968" 
d="M471 741q43 148 144.5 229t250.5 81q33 0 68 -7v-319q-47 8 -105 8q-154 0 -235 -78q-92 -85 -92 -270v-385h-350v1024h319v-283zM268 -498l-53 105q64 15 88.5 36.5t26.5 61.5h-158v207h309v-172q0 -199 -213 -238z" />
    <glyph glyph-name="Rcaron" unicode="&#x158;" horiz-adv-x="1619" 
d="M940 1538h-367l-260 242h285l158 -146l159 146h285zM1153 0l-307 543h-311v-543h-367v1454h790q147 0 256.5 -35t174 -97.5t96 -142t31.5 -175.5q0 -90 -30.5 -169t-101 -144.5t-174.5 -98.5l349 -592h-406zM535 1200v-412h344q130 0 190.5 57t60.5 154q0 92 -60.5 146.5
t-190.5 54.5h-344z" />
    <glyph glyph-name="rcaron" unicode="&#x159;" horiz-adv-x="968" 
d="M63 1477h267l174 -215l172 215h268l-262 -322h-356zM471 741q43 148 144.5 229t250.5 81q33 0 68 -7v-319q-47 8 -105 8q-154 0 -235 -78q-92 -85 -92 -270v-385h-350v1024h319v-283z" />
    <glyph glyph-name="Sacute" unicode="&#x15a;" horiz-adv-x="1505" 
d="M614 1548l248 242h328l-293 -242h-283zM756 -41q-271 0 -467.5 93.5t-288.5 260.5l270 189q73 -127 199.5 -196.5t302.5 -69.5q311 0 311 170q0 74 -51 110t-176 55l-301 45q-227 36 -340 143t-113 294q0 207 173.5 324.5t480.5 117.5q237 0 413 -74t277 -221l-240 -201
q-68 110 -189.5 170t-281.5 60q-134 0 -208 -40.5t-74 -113.5q0 -70 51 -106t182 -58l293 -43q243 -39 355 -140t112 -290q0 -224 -181 -351.5t-509 -127.5z" />
    <glyph glyph-name="sacute" unicode="&#x15b;" horiz-adv-x="1253" 
d="M479 1165l273 322h342l-334 -322h-281zM659 -31q-432 0 -626 244l188 160q147 -176 455 -176q207 0 207 94q0 44 -31 63.5t-117 28.5l-272 27q-187 23 -278 101.5t-91 213.5q0 157 140 243.5t397 86.5q186 0 331.5 -50.5t231.5 -144.5l-164 -168q-154 139 -418 139
q-198 0 -198 -86q0 -37 30.5 -56.5t100.5 -26.5l301 -31q185 -21 268.5 -98.5t83.5 -215.5q0 -165 -138 -256.5t-401 -91.5z" />
    <glyph glyph-name="Scircumflex" unicode="&#x15c;" horiz-adv-x="1505" 
d="M1200 1548h-285l-159 146l-158 -146h-285l260 242h367zM756 -41q-271 0 -467.5 93.5t-288.5 260.5l270 189q73 -127 199.5 -196.5t302.5 -69.5q311 0 311 170q0 74 -51 110t-176 55l-301 45q-227 36 -340 143t-113 294q0 207 173.5 324.5t480.5 117.5q237 0 413 -74
t277 -221l-240 -201q-68 110 -189.5 170t-281.5 60q-134 0 -208 -40.5t-74 -113.5q0 -70 51 -106t182 -58l293 -43q243 -39 355 -140t112 -290q0 -224 -181 -351.5t-509 -127.5z" />
    <glyph glyph-name="scircumflex" unicode="&#x15d;" horiz-adv-x="1253" 
d="M1063 1165h-266l-174 215l-172 -215h-269l262 322h357zM659 -31q-432 0 -626 244l188 160q147 -176 455 -176q207 0 207 94q0 44 -31 63.5t-117 28.5l-272 27q-187 23 -278 101.5t-91 213.5q0 157 140 243.5t397 86.5q186 0 331.5 -50.5t231.5 -144.5l-164 -168
q-154 139 -418 139q-198 0 -198 -86q0 -37 30.5 -56.5t100.5 -26.5l301 -31q185 -21 268.5 -98.5t83.5 -215.5q0 -165 -138 -256.5t-401 -91.5z" />
    <glyph glyph-name="Scedilla" unicode="&#x15e;" horiz-adv-x="1505" 
d="M979 868q243 -39 355 -140t112 -290q0 -208 -158.5 -334t-447.5 -143l-43 -63q49 30 129 30q102 0 160.5 -46t58.5 -134q0 -94 -81 -144t-222 -50q-215 0 -285 124l178 52q32 -52 103 -52q43 0 68.5 20.5t25.5 55.5q0 32 -24.5 52t-65.5 20q-57 0 -86 -33l-148 33l74 135
q-243 12 -419.5 104.5t-262.5 247.5l270 189q73 -127 199.5 -196.5t302.5 -69.5q311 0 311 170q0 74 -51 110t-176 55l-301 45q-227 36 -340 143t-113 294q0 207 173.5 324.5t480.5 117.5q237 0 413 -74t277 -221l-240 -201q-68 110 -189.5 170t-281.5 60q-134 0 -208 -40.5
t-74 -113.5q0 -70 51 -106t182 -58z" />
    <glyph glyph-name="scedilla" unicode="&#x15f;" horiz-adv-x="1253" 
d="M1198 317q0 -157 -123 -247t-362 -99l-49 -73q50 30 129 30q102 0 160.5 -46t58.5 -134q0 -94 -81 -144t-222 -50q-215 0 -285 124l178 52q32 -52 103 -52q43 0 68.5 20.5t25.5 55.5q0 32 -24.5 52t-65.5 20q-57 0 -86 -33l-148 33l80 147q-352 27 -522 240l188 160
q147 -176 455 -176q207 0 207 94q0 44 -31 63.5t-117 28.5l-272 27q-187 23 -278 101.5t-91 213.5q0 157 140 243.5t397 86.5q186 0 331.5 -50.5t231.5 -144.5l-164 -168q-154 139 -418 139q-198 0 -198 -86q0 -37 30.5 -56.5t100.5 -26.5l301 -31q185 -21 268.5 -98.5
t83.5 -215.5z" />
    <glyph glyph-name="Scaron" unicode="&#x160;" horiz-adv-x="1505" 
d="M1200 1780l-260 -242h-367l-260 242h285l158 -146l159 146h285zM756 -41q-271 0 -467.5 93.5t-288.5 260.5l270 189q73 -127 199.5 -196.5t302.5 -69.5q311 0 311 170q0 74 -51 110t-176 55l-301 45q-227 36 -340 143t-113 294q0 207 173.5 324.5t480.5 117.5
q237 0 413 -74t277 -221l-240 -201q-68 110 -189.5 170t-281.5 60q-134 0 -208 -40.5t-74 -113.5q0 -70 51 -106t182 -58l293 -43q243 -39 355 -140t112 -290q0 -224 -181 -351.5t-509 -127.5z" />
    <glyph glyph-name="scaron" unicode="&#x161;" horiz-adv-x="1253" 
d="M182 1477h267l174 -215l172 215h268l-262 -322h-357zM659 -31q-432 0 -626 244l188 160q147 -176 455 -176q207 0 207 94q0 44 -31 63.5t-117 28.5l-272 27q-187 23 -278 101.5t-91 213.5q0 157 140 243.5t397 86.5q186 0 331.5 -50.5t231.5 -144.5l-164 -168
q-154 139 -418 139q-198 0 -198 -86q0 -37 30.5 -56.5t100.5 -26.5l301 -31q185 -21 268.5 -98.5t83.5 -215.5q0 -165 -138 -256.5t-401 -91.5z" />
    <glyph glyph-name="uni0162" unicode="&#x162;" horiz-adv-x="1406" 
d="M887 0h-105l-69 -102q49 30 129 30q102 0 160.5 -46t58.5 -134q0 -94 -81 -144t-222 -50q-215 0 -285 124l178 52q32 -52 103 -52q43 0 68.5 20.5t25.5 55.5q0 32 -24.5 52t-65.5 20q-57 0 -86 -33l-148 33l94 174h-98v1163h-504v291h1375v-291h-504v-1163z" />
    <glyph glyph-name="uni0163" unicode="&#x163;" horiz-adv-x="991" 
d="M774 -72q102 0 160.5 -46t58.5 -134q0 -94 -81 -144t-222 -50q-214 0 -284 124l178 52q32 -52 102 -52q43 0 68.5 20.5t25.5 55.5q0 32 -24.5 52t-65.5 20q-57 0 -86 -33l-147 33l88 164q-303 54 -303 368v437h-232v229h232v244l350 131v-375h338v-229h-338v-359
q0 -180 192 -180q68 0 146 16v-266q-113 -29 -232 -29l-53 -79q49 30 129 30z" />
    <glyph glyph-name="Tcaron" unicode="&#x164;" horiz-adv-x="1406" 
d="M889 1538h-367l-260 242h285l158 -146l159 146h285zM1391 1454v-291h-504v-1163h-367v1163h-504v291h1375z" />
    <glyph glyph-name="tcaron" unicode="&#x165;" horiz-adv-x="991" 
d="M770 1067l-51 100q59 10 83.5 29t26.5 51h-153v207h305v-166q0 -189 -211 -221zM10 795v229h232v244l350 131v-375h338v-229h-338v-359q0 -180 192 -180q68 0 146 16v-266q-116 -29 -238 -29q-231 0 -340.5 96t-109.5 285v437h-232z" />
    <glyph glyph-name="Tbar" unicode="&#x166;" horiz-adv-x="1406" 
d="M1391 1163h-504v-254h399v-157h-399v-752h-367v752h-397v157h397v254h-504v291h1375v-291z" />
    <glyph glyph-name="tbar" unicode="&#x167;" horiz-adv-x="993" 
d="M930 795h-338v-152h321v-172h-321v-35q0 -180 192 -180q68 0 146 16v-266q-116 -29 -238 -29q-231 0 -340.5 96t-109.5 285v113h-211v172h211v152h-232v229h232v244l350 131v-375h338v-229z" />
    <glyph glyph-name="Utilde" unicode="&#x168;" horiz-adv-x="1691" 
d="M1020 1530q-59 0 -111.5 18.5t-84 41t-71 41t-75.5 18.5q-44 0 -72 -26.5t-45 -86.5l-174 66q26 115 99.5 175t187.5 60q59 0 111 -18.5t83.5 -41t71.5 -41t76 -18.5q86 0 114 111l175 -64q-26 -116 -98.5 -175.5t-186.5 -59.5zM129 1454h369v-860q0 -155 92.5 -248.5
t255.5 -93.5t255.5 93.5t92.5 248.5v860h369v-885q0 -280 -190 -445t-527 -165t-527 166t-190 446v883z" />
    <glyph glyph-name="utilde" unicode="&#x169;" horiz-adv-x="1466" 
d="M905 1176q-61 0 -115.5 20.5t-88 45t-75 45t-79.5 20.5q-46 0 -75 -28.5t-46 -92.5l-176 63q23 124 97 191t190 67q61 0 115.5 -21t88 -45.5t75 -45.5t79.5 -21q46 0 75 29t46 94l176 -63q-23 -124 -97 -191t-190 -67zM561 -31q-216 0 -325 113t-109 326v616h350v-547
q0 -129 59 -189.5t162 -60.5q128 0 197.5 77t69.5 194v526h350v-1024h-338v211q-51 -115 -161.5 -178.5t-254.5 -63.5z" />
    <glyph glyph-name="Umacron" unicode="&#x16a;" horiz-adv-x="1691" 
d="M422 1554v201h848v-201h-848zM129 1454h369v-860q0 -155 92.5 -248.5t255.5 -93.5t255.5 93.5t92.5 248.5v860h369v-885q0 -280 -190 -445t-527 -165t-527 166t-190 446v883z" />
    <glyph glyph-name="umacron" unicode="&#x16b;" horiz-adv-x="1466" 
d="M299 1212v201h836v-201h-836zM561 -31q-216 0 -325 113t-109 326v616h350v-547q0 -129 59 -189.5t162 -60.5q128 0 197.5 77t69.5 194v526h350v-1024h-338v211q-51 -115 -161.5 -178.5t-254.5 -63.5z" />
    <glyph glyph-name="Ubreve" unicode="&#x16c;" horiz-adv-x="1691" 
d="M676 1790q9 -44 52.5 -70t117.5 -26t118.5 26t53.5 70h221q-13 -121 -116.5 -186.5t-276.5 -65.5t-276.5 65.5t-116.5 186.5h223zM129 1454h369v-860q0 -155 92.5 -248.5t255.5 -93.5t255.5 93.5t92.5 248.5v860h369v-885q0 -280 -190 -445t-527 -165t-527 166t-190 446
v883z" />
    <glyph glyph-name="ubreve" unicode="&#x16d;" horiz-adv-x="1466" 
d="M547 1487q12 -166 170 -166t170 166h227q-12 -167 -116.5 -249.5t-280.5 -82.5t-280.5 82.5t-114.5 249.5h225zM561 -31q-216 0 -325 113t-109 326v616h350v-547q0 -129 59 -189.5t162 -60.5q128 0 197.5 77t69.5 194v526h350v-1024h-338v211q-51 -115 -161.5 -178.5
t-254.5 -63.5z" />
    <glyph glyph-name="Uring" unicode="&#x16e;" horiz-adv-x="1691" 
d="M846 1524q-123 0 -199 66t-76 173q0 109 76 175.5t199 66.5t198.5 -66.5t75.5 -175.5q0 -107 -75.5 -173t-198.5 -66zM846 1655q49 0 79.5 30t30.5 78q0 50 -30.5 80.5t-79.5 30.5q-51 0 -82 -30.5t-31 -80.5q0 -48 31 -78t82 -30zM129 1454h369v-860q0 -155 92.5 -248.5
t255.5 -93.5t255.5 93.5t92.5 248.5v860h369v-885q0 -280 -190 -445t-527 -165t-527 166t-190 446v883z" />
    <glyph glyph-name="uring" unicode="&#x16f;" horiz-adv-x="1466" 
d="M717 1128q-141 0 -224 66t-83 176q0 111 82.5 177.5t224.5 66.5t225.5 -66.5t83.5 -177.5q0 -109 -83.5 -175.5t-225.5 -66.5zM717 1260q65 0 102 30t37 80q0 52 -37 82.5t-102 30.5t-102 -30.5t-37 -82.5q0 -50 37 -80t102 -30zM561 -31q-216 0 -325 113t-109 326v616
h350v-547q0 -129 59 -189.5t162 -60.5q128 0 197.5 77t69.5 194v526h350v-1024h-338v211q-51 -115 -161.5 -178.5t-254.5 -63.5z" />
    <glyph glyph-name="Uhungarumlaut" unicode="&#x170;" horiz-adv-x="1691" 
d="M498 1550l239 240h291l-256 -240h-274zM918 1550l241 240h289l-256 -240h-274zM129 1454h369v-860q0 -155 92.5 -248.5t255.5 -93.5t255.5 93.5t92.5 248.5v860h369v-885q0 -280 -190 -445t-527 -165t-527 166t-190 446v883z" />
    <glyph glyph-name="uhungarumlaut" unicode="&#x171;" horiz-adv-x="1466" 
d="M393 1165l236 322h264l-250 -322h-250zM793 1165l235 322h264l-252 -322h-247zM561 -31q-216 0 -325 113t-109 326v616h350v-547q0 -129 59 -189.5t162 -60.5q128 0 197.5 77t69.5 194v526h350v-1024h-338v211q-51 -115 -161.5 -178.5t-254.5 -63.5z" />
    <glyph glyph-name="Uogonek" unicode="&#x172;" horiz-adv-x="1691" 
d="M1194 1454h369v-885q0 -239 -141 -397t-396 -199q-80 -29 -119 -72.5t-39 -90.5q0 -36 23.5 -58t62.5 -22q76 0 115 86l172 -60q-68 -174 -309 -174q-132 0 -206.5 52.5t-74.5 144.5q0 113 117 182q-303 20 -471 183.5t-168 426.5v883h369v-860q0 -155 92.5 -248.5
t255.5 -93.5t255.5 93.5t92.5 248.5v860z" />
    <glyph glyph-name="uogonek" unicode="&#x173;" horiz-adv-x="1466" 
d="M1180 -184l172 -60q-68 -174 -310 -174q-132 0 -206 52.5t-74 144.5q0 152 215 227v205q-51 -115 -161.5 -178.5t-254.5 -63.5q-216 0 -325 113t-109 326v616h350v-547q0 -129 59 -189.5t162 -60.5q128 0 197.5 77t69.5 194v526h350v-1024h-72q-136 -23 -200 -75
t-64 -115q0 -36 23.5 -58t62.5 -22q76 0 115 86z" />
    <glyph glyph-name="Wcircumflex" unicode="&#x174;" horiz-adv-x="2304" 
d="M1597 1548h-284l-160 146l-158 -146h-284l260 242h366zM451 0l-412 1454h373l233 -944q16 -73 19 -129h8q2 48 24 129l269 944h374l269 -944q22 -81 24 -129h8q1 30 19 129l233 944h375l-414 -1454h-415l-262 969q-16 64 -19 116h-10q-3 -52 -19 -116l-262 -969h-415z
" />
    <glyph glyph-name="wcircumflex" unicode="&#x175;" horiz-adv-x="1904" 
d="M1393 1165h-267l-174 215l-172 -215h-268l262 322h356zM367 0l-338 1024h340l176 -631q10 -49 18 -100h4q4 39 21 100l205 631h319l205 -631q15 -55 20 -100h4q2 16 19 100l174 631h342l-338 -1024h-358l-203 604q-20 55 -23 96h-6q-4 -51 -20 -96l-203 -604h-358z" />
    <glyph glyph-name="Ycircumflex" unicode="&#x176;" horiz-adv-x="1525" 
d="M1210 1548h-284l-160 146l-158 -146h-284l260 242h366zM578 0v510l-588 944h403l330 -563q32 -59 39 -96h4q7 37 39 96l338 563h393l-590 -944v-510h-368z" />
    <glyph glyph-name="ycircumflex" unicode="&#x177;" horiz-adv-x="1300" 
d="M1100 1165h-266l-175 215l-172 -215h-268l262 322h357zM258 -420q-94 0 -174 14v261q77 -13 139 -13q195 0 256 129l8 31l-487 1022h387l246 -627q22 -55 33 -114h6q6 40 30 112l236 629h362l-462 -1071q-86 -199 -222 -286t-358 -87z" />
    <glyph glyph-name="Ydieresis" unicode="&#x178;" horiz-adv-x="1525" 
d="M336 1548v240h309v-240h-309zM885 1548v240h309v-240h-309zM578 0v510l-588 944h403l330 -563q32 -59 39 -96h4q7 37 39 96l338 563h393l-590 -944v-510h-368z" />
    <glyph glyph-name="Zacute" unicode="&#x179;" horiz-adv-x="1480" 
d="M606 1548l248 242h328l-293 -242h-283zM88 254l846 926h-815v274h1265v-254l-843 -928h880v-272h-1333v254z" />
    <glyph glyph-name="zacute" unicode="&#x17a;" horiz-adv-x="1212" 
d="M471 1165l272 322h342l-333 -322h-281zM66 213l632 578h-604v233h1034v-207l-624 -579h655v-238h-1093v213z" />
    <glyph glyph-name="Zdotaccent" unicode="&#x17b;" horiz-adv-x="1480" 
d="M565 1548v242h363v-242h-363zM88 254l846 926h-815v274h1265v-254l-843 -928h880v-272h-1333v254z" />
    <glyph glyph-name="zdotaccent" unicode="&#x17c;" horiz-adv-x="1212" 
d="M430 1171v306h369v-306h-369zM66 213l632 578h-604v233h1034v-207l-624 -579h655v-238h-1093v213z" />
    <glyph glyph-name="Zcaron" unicode="&#x17d;" horiz-adv-x="1480" 
d="M1192 1780l-260 -242h-367l-260 242h285l158 -146l159 146h285zM88 254l846 926h-815v274h1265v-254l-843 -928h880v-272h-1333v254z" />
    <glyph glyph-name="zcaron" unicode="&#x17e;" horiz-adv-x="1212" 
d="M174 1477h266l174 -215l172 215h269l-262 -322h-357zM66 213l632 578h-604v233h1034v-207l-624 -579h655v-238h-1093v213z" />
    <glyph glyph-name="florin" unicode="&#x192;" horiz-adv-x="1116" 
d="M967 1200q-111 0 -162 -51.5t-70 -173.5l-14 -98h293v-232h-324l-133 -952h-369l134 952h-263v232h295l13 81q38 269 172.5 386.5t392.5 117.5q92 0 162 -20v-258q-66 16 -127 16z" />
    <glyph glyph-name="AEacute" unicode="&#x1fc;" horiz-adv-x="2478" 
d="M2136 1790l-293 -242h-282l247 242h328zM1526 268h839v-268h-1206v307h-588l-198 -307h-389l1011 1454h1356v-266h-825v-318h790v-258h-790v-344zM733 557h426v660z" />
    <glyph glyph-name="aeacute" unicode="&#x1fd;" horiz-adv-x="2146" 
d="M1542 1487l-334 -322h-280l272 322h342zM2081 514v-76h-844q8 -106 84 -167.5t203 -61.5q187 0 274 149l262 -118q-77 -130 -218 -200.5t-326 -70.5q-169 0 -297.5 54t-204.5 155q-150 -209 -502 -209q-209 0 -326.5 83t-117.5 231q0 137 107.5 213.5t328.5 95.5l389 31
v32q0 181 -211 181q-103 0 -163.5 -41t-67.5 -117h-355q19 175 175.5 276t408.5 101q277 0 407 -133q155 133 412 133q276 0 429 -142.5t153 -398.5zM1237 629h500q-3 105 -69.5 165t-174.5 60q-116 0 -184 -58.5t-72 -166.5zM901 401v60l-274 -21q-201 -21 -201 -139
q0 -56 49.5 -87.5t138.5 -31.5q125 0 206 58.5t81 160.5z" />
    <glyph glyph-name="Oslashacute" unicode="&#x1fe;" horiz-adv-x="1757" 
d="M1319 1790l-293 -242h-283l248 242h328zM1495 1274q211 -208 211 -547q0 -351 -225 -559.5t-602 -208.5q-294 0 -498 129l-129 -137l-117 92l129 137q-213 207 -213 547q0 351 225.5 559.5t602.5 208.5q295 0 499 -129l129 137l117 -92zM434 727q0 -170 72 -289l647 688
q-113 86 -274 86q-204 0 -324.5 -130.5t-120.5 -354.5zM879 242q204 0 324 130.5t120 354.5q0 170 -72 289l-647 -690q117 -84 275 -84z" />
    <glyph glyph-name="oslashacute" unicode="&#x1ff;" horiz-adv-x="1390" 
d="M1178 1487l-334 -322h-281l273 322h342zM1176 895q159 -143 159 -381q0 -254 -177.5 -399.5t-463.5 -145.5q-226 0 -389 94l-115 -110l-84 70l111 106q-162 146 -162 385q0 254 176.5 397.5t462.5 143.5q226 0 391 -92l113 108l84 -74zM410 514q0 -101 34 -168l435 418
q-70 55 -185 55q-133 0 -208.5 -78.5t-75.5 -226.5zM694 205q133 0 209 80t76 229q0 100 -33 162l-434 -416q70 -55 182 -55z" />
    <glyph glyph-name="Scommaaccent" unicode="&#x218;" horiz-adv-x="1505" 
d="M756 -41q-271 0 -467.5 93.5t-288.5 260.5l270 189q73 -127 199.5 -196.5t302.5 -69.5q311 0 311 170q0 74 -51 110t-176 55l-301 45q-227 36 -340 143t-113 294q0 207 173.5 324.5t480.5 117.5q237 0 413 -74t277 -221l-240 -201q-68 110 -189.5 170t-281.5 60
q-134 0 -208 -40.5t-74 -113.5q0 -70 51 -106t182 -58l293 -43q243 -39 355 -140t112 -290q0 -224 -181 -351.5t-509 -127.5zM729 -498l-53 105q64 15 88.5 36.5t26.5 61.5h-158v207h309v-172q0 -199 -213 -238z" />
    <glyph glyph-name="scommaaccent" unicode="&#x219;" horiz-adv-x="1253" 
d="M659 -31q-432 0 -626 244l188 160q147 -176 455 -176q207 0 207 94q0 44 -31 63.5t-117 28.5l-272 27q-187 23 -278 101.5t-91 213.5q0 157 140 243.5t397 86.5q186 0 331.5 -50.5t231.5 -144.5l-164 -168q-154 139 -418 139q-198 0 -198 -86q0 -37 30.5 -56.5
t100.5 -26.5l301 -31q185 -21 268.5 -98.5t83.5 -215.5q0 -165 -138 -256.5t-401 -91.5zM596 -498l-53 105q64 15 88 36.5t26 61.5h-157v207h309v-172q0 -199 -213 -238z" />
    <glyph glyph-name="uni021A" unicode="&#x21a;" horiz-adv-x="1406" 
d="M1391 1454v-291h-504v-1163h-367v1163h-504v291h1375zM549 -295v207h309v-172q0 -199 -213 -238l-53 105q64 15 88.5 36.5t26.5 61.5h-158z" />
    <glyph glyph-name="uni021B" unicode="&#x21b;" horiz-adv-x="991" 
d="M10 795v229h232v244l350 131v-375h338v-229h-338v-359q0 -180 192 -180q68 0 146 16v-266q-116 -29 -238 -29q-231 0 -340.5 96t-109.5 285v437h-232zM578 -498l-54 105q64 15 88.5 36.5t26.5 61.5h-158v207h310v-172q0 -199 -213 -238z" />
    <glyph glyph-name="uni0237" unicode="&#x237;" horiz-adv-x="671" 
d="M86 -418q-95 0 -164 15v251q53 -6 107 -6q76 0 108.5 42.5t32.5 148.5v991h350v-1024q0 -102 -22 -176.5t-71 -130t-134 -83.5t-207 -28z" />
    <glyph glyph-name="uni0243" unicode="&#x243;" horiz-adv-x="1601" 
d="M1526 406q0 -178 -127 -288.5t-357 -117.5v-217h-135v217h-239v-217h-136v217h-364v1423h364v189h136v-189h239v189h135v-189q219 -7 333 -101.5t114 -260.5q0 -120 -70.5 -204t-199.5 -114q148 -23 227.5 -110t79.5 -227zM899 1182h-381v-348h383q110 0 163.5 47.5
t53.5 130.5q0 81 -54.5 125.5t-164.5 44.5zM924 242q113 0 172 50t59 140q0 87 -59.5 135.5t-169.5 48.5h-408v-374h406z" />
    <glyph glyph-name="circumflex" unicode="&#x2c6;" horiz-adv-x="1228" 
d="M956 1165h-266l-174 215l-172 -215h-268l262 322h356z" />
    <glyph glyph-name="caron" unicode="&#x2c7;" horiz-adv-x="1228" 
d="M76 1477h266l174 -215l172 215h268l-262 -322h-356z" />
    <glyph glyph-name="breve" unicode="&#x2d8;" horiz-adv-x="1228" 
d="M334 1487q12 -166 170 -166t170 166h227q-12 -167 -116.5 -249.5t-280.5 -82.5t-280.5 82.5t-114.5 249.5h225z" />
    <glyph glyph-name="dotaccent" unicode="&#x2d9;" horiz-adv-x="1228" 
d="M102 1171v306h369v-306h-369z" />
    <glyph glyph-name="ring" unicode="&#x2da;" horiz-adv-x="1228" 
d="M379 1128q-141 0 -224 66t-83 176q0 111 82.5 177.5t224.5 66.5t225.5 -66.5t83.5 -177.5q0 -109 -83.5 -175.5t-225.5 -66.5zM379 1260q65 0 102 30t37 80q0 52 -37 82.5t-102 30.5t-102 -30.5t-37 -82.5q0 -50 37 -80t102 -30z" />
    <glyph glyph-name="ogonek" unicode="&#x2db;" horiz-adv-x="1228" 
d="M692 -244q-68 -174 -309 -174q-132 0 -206.5 52.5t-74.5 144.5q0 152 215 227l267 -6q-136 -23 -200.5 -75t-64.5 -115q0 -36 24 -58t63 -22q75 0 114 86z" />
    <glyph glyph-name="tilde" unicode="&#x2dc;" horiz-adv-x="1228" 
d="M764 1176q-61 0 -115.5 20.5t-88 45t-75 45t-79.5 20.5q-46 0 -75 -28.5t-46 -92.5l-176 63q23 124 96.5 191t189.5 67q61 0 116 -21t88.5 -45.5t75 -45.5t79.5 -21q46 0 74.5 28.5t45.5 94.5l177 -63q-23 -124 -97 -191t-190 -67z" />
    <glyph glyph-name="hungarumlaut" unicode="&#x2dd;" horiz-adv-x="1228" 
d="M154 1165l235 322h264l-250 -322h-249zM553 1165l235 322h265l-252 -322h-248z" />
    <glyph glyph-name="gravecomb" unicode="&#x300;" horiz-adv-x="0" 
d="M-37 1165h-280l-334 322h342z" />
    <glyph glyph-name="acutecomb" unicode="&#x301;" horiz-adv-x="0" 
d="M-643 1165l272 322h342l-333 -322h-281z" />
    <glyph glyph-name="uni0302" unicode="&#x302;" horiz-adv-x="0" 
d="M-76 1165h-266l-174 215l-172 -215h-268l262 322h356z" />
    <glyph glyph-name="tildecomb" unicode="&#x303;" horiz-adv-x="0" 
d="M-393 1176q-61 0 -116 20.5t-88.5 45t-75 45t-79.5 20.5q-46 0 -74.5 -28.5t-45.5 -92.5l-177 63q23 124 97 191t190 67q61 0 116 -21t88.5 -45.5t75 -45.5t79.5 -21q46 0 74.5 28.5t45.5 94.5l177 -63q-23 -124 -97 -191t-190 -67z" />
    <glyph glyph-name="uni0304" unicode="&#x304;" horiz-adv-x="0" 
d="M-940 1212v201h836v-201h-836z" />
    <glyph glyph-name="uni0306" unicode="&#x306;" horiz-adv-x="0" 
d="M-674 1487q12 -166 170 -166t170 166h228q-12 -167 -117 -249.5t-281 -82.5t-280.5 82.5t-114.5 249.5h225z" />
    <glyph glyph-name="uni0307" unicode="&#x307;" horiz-adv-x="0" 
d="M-471 1171v306h369v-306h-369z" />
    <glyph glyph-name="uni0308" unicode="&#x308;" horiz-adv-x="0" 
d="M-956 1178v280h317v-280h-317zM-412 1178v280h320v-280h-320z" />
    <glyph glyph-name="uni030A" unicode="&#x30a;" horiz-adv-x="0" 
d="M-379 1128q-141 0 -224 66t-83 176q0 111 82.5 177.5t224.5 66.5t225.5 -66.5t83.5 -177.5q0 -109 -83.5 -175.5t-225.5 -66.5zM-379 1260q65 0 102 30t37 80q0 52 -37 82.5t-102 30.5t-102 -30.5t-37 -82.5q0 -50 37 -80t102 -30z" />
    <glyph glyph-name="uni030B" unicode="&#x30b;" horiz-adv-x="0" 
d="M-1020 1165l236 322h264l-250 -322h-250zM-621 1165l236 322h264l-252 -322h-248z" />
    <glyph glyph-name="uni030C" unicode="&#x30c;" horiz-adv-x="0" 
d="M-956 1477h266l174 -215l172 215h268l-262 -322h-356z" />
    <glyph glyph-name="uni0312" unicode="&#x312;" horiz-adv-x="0" 
d="M-199 1575l54 -105q-64 -15 -88.5 -36.5t-26.5 -61.5h158v-207h-310v172q0 199 213 238z" />
    <glyph glyph-name="uni0326" unicode="&#x326;" horiz-adv-x="0" 
d="M-315 -498l-54 105q64 15 88.5 36.5t26.5 61.5h-158v207h310v-172q0 -199 -213 -238z" />
    <glyph glyph-name="uni0327" unicode="&#x327;" horiz-adv-x="0" 
d="M-545 12h166l-78 -114q49 30 129 30q102 0 160.5 -46t58.5 -134q0 -94 -81 -144t-222 -50q-214 0 -284 124l178 52q32 -52 102 -52q43 0 68.5 20.5t25.5 55.5q0 32 -24.5 52t-65.5 20q-57 0 -86 -33l-147 33z" />
    <glyph glyph-name="uni0328" unicode="&#x328;" horiz-adv-x="0" 
d="M-121 -244q-68 -174 -309 -174q-132 0 -206.5 52.5t-74.5 144.5q0 152 215 227l267 -6q-136 -23 -200.5 -75t-64.5 -115q0 -36 23.5 -58t62.5 -22q76 0 115 86z" />
    <glyph glyph-name="uni0394" unicode="&#x394;" horiz-adv-x="1642" 
d="M29 0l612 1448h367l606 -1448h-1585zM819 1112l-346 -852h688z" />
    <glyph glyph-name="uni03A9" unicode="&#x3a9;" horiz-adv-x="1638" 
d="M1536 0h-602l-39 549q151 20 228 106.5t77 229.5q0 152 -101.5 243t-279.5 91t-279.5 -91t-101.5 -243q0 -142 77.5 -229t227.5 -107l-38 -549h-601v274h349l10 103q-182 53 -281.5 185.5t-99.5 328.5q0 178 91.5 314t259 210t386.5 74q333 0 535 -164t202 -434
q0 -196 -99 -328.5t-281 -185.5l10 -103h350v-274z" />
    <glyph glyph-name="uni03BC" unicode="&#x3bc;" horiz-adv-x="1490" 
d="M989 1024h350v-1024h-338v211q-51 -115 -161 -178.5t-254 -63.5q-51 0 -119 11v-379h-315v1423h350v-547q0 -129 59 -189.5t162 -60.5q128 0 197 77t69 194v526z" />
    <glyph glyph-name="pi" unicode="&#x3c0;" horiz-adv-x="1568" 
d="M1520 8q-103 -24 -187 -24q-193 0 -272.5 80.5t-79.5 242.5v490h-389v-797h-346v797h-199v227h1475v-227h-193v-461q0 -109 113 -109q16 0 31 1.5t28.5 4t18.5 3.5v-228z" />
    <glyph glyph-name="uni0E3F" unicode="&#xe3f;" horiz-adv-x="1601" 
d="M1214 741q152 -23 232 -108.5t80 -226.5q0 -195 -136 -300.5t-376 -105.5h-146v-217h-129v217h-571v1423h571v189h129v-189h125q238 0 367 -93.5t129 -276.5q0 -117 -72.5 -199t-202.5 -113zM502 1192v-369h237v369h-237zM915 1192h-47v-369h47q107 0 162.5 49t55.5 142
q0 88 -55.5 133t-162.5 45zM502 231h237v392h-237v-392zM940 231q109 0 169 51.5t60 147.5q0 93 -59 143t-168 50h-74v-392h72z" />
    <glyph glyph-name="Wgrave" unicode="&#x1e80;" horiz-adv-x="2304" 
d="M1280 1548h-283l-292 242h327zM451 0l-412 1454h373l233 -944q16 -73 19 -129h8q2 48 24 129l269 944h374l269 -944q22 -81 24 -129h8q1 30 19 129l233 944h375l-414 -1454h-415l-262 969q-16 64 -19 116h-10q-3 -52 -19 -116l-262 -969h-415z" />
    <glyph glyph-name="wgrave" unicode="&#x1e81;" horiz-adv-x="1904" 
d="M1094 1165h-281l-334 322h342zM367 0l-338 1024h340l176 -631q10 -49 18 -100h4q4 39 21 100l205 631h319l205 -631q15 -55 20 -100h4q2 16 19 100l174 631h342l-338 -1024h-358l-203 604q-20 55 -23 96h-6q-4 -51 -20 -96l-203 -604h-358z" />
    <glyph glyph-name="Wacute" unicode="&#x1e82;" horiz-adv-x="2304" 
d="M1012 1548l248 242h327l-293 -242h-282zM451 0l-412 1454h373l233 -944q16 -73 19 -129h8q2 48 24 129l269 944h374l269 -944q22 -81 24 -129h8q1 30 19 129l233 944h375l-414 -1454h-415l-262 969q-16 64 -19 116h-10q-3 -52 -19 -116l-262 -969h-415z" />
    <glyph glyph-name="wacute" unicode="&#x1e83;" horiz-adv-x="1904" 
d="M809 1165l272 322h342l-333 -322h-281zM367 0l-338 1024h340l176 -631q10 -49 18 -100h4q4 39 21 100l205 631h319l205 -631q15 -55 20 -100h4q2 16 19 100l174 631h342l-338 -1024h-358l-203 604q-20 55 -23 96h-6q-4 -51 -20 -96l-203 -604h-358z" />
    <glyph glyph-name="Wdieresis" unicode="&#x1e84;" horiz-adv-x="2304" 
d="M723 1548v240h309v-240h-309zM1272 1548v240h309v-240h-309zM451 0l-412 1454h373l233 -944q16 -73 19 -129h8q2 48 24 129l269 944h374l269 -944q22 -81 24 -129h8q1 30 19 129l233 944h375l-414 -1454h-415l-262 969q-16 64 -19 116h-10q-3 -52 -19 -116l-262 -969
h-415z" />
    <glyph glyph-name="wdieresis" unicode="&#x1e85;" horiz-adv-x="1904" 
d="M520 1178v280h318v-280h-318zM1065 1178v280h319v-280h-319zM367 0l-338 1024h340l176 -631q10 -49 18 -100h4q4 39 21 100l205 631h319l205 -631q15 -55 20 -100h4q2 16 19 100l174 631h342l-338 -1024h-358l-203 604q-20 55 -23 96h-6q-4 -51 -20 -96l-203 -604h-358z
" />
    <glyph glyph-name="Ygrave" unicode="&#x1ef2;" horiz-adv-x="1525" 
d="M893 1548h-283l-293 242h328zM578 0v510l-588 944h403l330 -563q32 -59 39 -96h4q7 37 39 96l338 563h393l-590 -944v-510h-368z" />
    <glyph glyph-name="ygrave" unicode="&#x1ef3;" horiz-adv-x="1300" 
d="M801 1165h-281l-334 322h342zM258 -420q-94 0 -174 14v261q77 -13 139 -13q195 0 256 129l8 31l-487 1022h387l246 -627q22 -55 33 -114h6q6 40 30 112l236 629h362l-462 -1071q-86 -199 -222 -286t-358 -87z" />
    <glyph glyph-name="uni2002" unicode="&#x2002;" horiz-adv-x="1024" 
 />
    <glyph glyph-name="uni2003" unicode="&#x2003;" horiz-adv-x="2048" 
 />
    <glyph glyph-name="uni2004" unicode="&#x2004;" horiz-adv-x="0" 
 />
    <glyph glyph-name="uni2005" unicode="&#x2005;" horiz-adv-x="512" 
 />
    <glyph glyph-name="uni2009" unicode="&#x2009;" horiz-adv-x="276" 
 />
    <glyph glyph-name="uni200A" unicode="&#x200a;" horiz-adv-x="153" 
 />
    <glyph glyph-name="endash" unicode="&#x2013;" horiz-adv-x="1435" 
d="M92 702h1251v-268h-1251v268z" />
    <glyph glyph-name="emdash" unicode="&#x2014;" horiz-adv-x="1949" 
d="M92 705h1763v-273h-1763v273z" />
    <glyph glyph-name="quoteleft" unicode="&#x2018;" horiz-adv-x="624" 
d="M420 1507l57 -141q-90 -24 -125 -65t-35 -111v-6h181v-348h-371v325q0 282 293 346z" />
    <glyph glyph-name="quoteright" unicode="&#x2019;" horiz-adv-x="624" 
d="M205 782l-58 142q90 24 125 65t35 111v6h-180v348h371v-326q0 -282 -293 -346z" />
    <glyph glyph-name="quotesinglbase" unicode="&#x201a;" horiz-adv-x="624" 
d="M205 -324l-58 142q90 24 125 65t35 111v6h-180v348h371v-325q0 -283 -293 -347z" />
    <glyph glyph-name="quotedblleft" unicode="&#x201c;" horiz-adv-x="1103" 
d="M420 1507l57 -141q-90 -24 -125 -65t-35 -111v-6h181v-348h-371v325q0 282 293 346zM899 1507l57 -141q-90 -24 -124.5 -64.5t-34.5 -111.5v-6h180v-348h-371v325q0 282 293 346z" />
    <glyph glyph-name="quotedblright" unicode="&#x201d;" horiz-adv-x="1103" 
d="M205 784l-58 142q90 24 125 65t35 111v6h-180v348h371v-326q0 -282 -293 -346zM684 784l-57 142q90 24 124.5 64.5t34.5 111.5v6h-180v348h371v-326q0 -282 -293 -346z" />
    <glyph glyph-name="quotedblbase" unicode="&#x201e;" horiz-adv-x="1103" 
d="M205 -322l-58 142q90 24 125 65t35 111v6h-180v348h371v-325q0 -283 -293 -347zM684 -322l-57 142q90 24 124.5 64.5t34.5 111.5v6h-180v348h371v-325q0 -283 -293 -347z" />
    <glyph glyph-name="dagger" unicode="&#x2020;" horiz-adv-x="1153" 
d="M696 823v-1007h-241v1007h-361v201h361v451h241v-451h363v-201h-363z" />
    <glyph glyph-name="daggerdbl" unicode="&#x2021;" horiz-adv-x="1153" 
d="M1059 823h-363v-352h361v-199h-361v-456h-241v456h-359v199h359v352h-361v201h361v451h241v-451h363v-201z" />
    <glyph glyph-name="bullet" unicode="&#x2022;" horiz-adv-x="786" 
d="M391 434q-115 0 -189.5 72t-74.5 188q0 117 74.5 190.5t189.5 73.5q118 0 192 -72t74 -192q0 -116 -74 -188t-192 -72z" />
    <glyph glyph-name="ellipsis" unicode="&#x2026;" horiz-adv-x="1943" 
d="M506 328v-328h-379v328h379zM1161 328v-328h-379v328h379zM1815 328v-328h-379v328h379z" />
    <glyph glyph-name="perthousand" unicode="&#x2030;" horiz-adv-x="3020" 
d="M311 -33l1180 1516h248l-1180 -1516h-248zM487 692q-208 0 -332.5 107t-123.5 286q-1 177 123.5 283.5t330.5 106.5q204 0 330 -108.5t125 -285.5q1 -176 -124.5 -282.5t-328.5 -106.5zM487 883q88 0 139.5 51t51.5 147q0 99 -51.5 151t-141.5 52t-142 -51.5t-52 -147.5
q0 -99 52 -150.5t144 -51.5zM1563 -31q-208 0 -333 107t-124 286q-1 176 124 283t331 107q204 0 329.5 -108t124.5 -286q1 -176 -124.5 -282.5t-327.5 -106.5zM2535 -31q-208 0 -332.5 107t-123.5 286q-1 177 123.5 283.5t330.5 106.5q204 0 330 -108.5t125 -285.5
q1 -176 -124.5 -282.5t-328.5 -106.5zM1563 160q88 0 139 51t51 147q0 99 -51 151t-141 52t-142.5 -51.5t-52.5 -147.5q0 -99 52.5 -150.5t144.5 -51.5zM2535 160q88 0 139.5 51t51.5 147q0 99 -51.5 151t-141.5 52t-142 -51.5t-52 -147.5q0 -99 52 -150.5t144 -51.5z" />
    <glyph glyph-name="guilsinglleft" unicode="&#x2039;" horiz-adv-x="798" 
d="M440 137l-399 428l408 422h315l-402 -420l398 -430h-320z" />
    <glyph glyph-name="guilsinglright" unicode="&#x203a;" horiz-adv-x="798" 
d="M358 137h-319l397 430l-401 420h315l408 -422z" />
    <glyph glyph-name="fraction" unicode="&#x2044;" horiz-adv-x="473" 
d="M-408 -35l1033 1524h258l-1033 -1524h-258z" />
    <glyph glyph-name="uni20A9" unicode="&#x20a9;" horiz-adv-x="2306" 
d="M2259 801h-191l-40 -150h231v-125h-268l-148 -526h-385l-137 526h-336l-137 -526h-385l-148 526h-268v125h234l-43 150h-191v123h156l-140 499h330l111 -499h342l133 499h348l133 -499h342l111 499h332l-142 -499h156v-123zM1100 973l-13 -49h132l-13 49q-33 118 -49 264
h-8q-16 -146 -49 -264zM530 801l33 -150h209l39 150h-281zM1016 651h274l-39 150h-196zM1743 651l33 150h-281l39 -150h209zM715 438l24 88h-149l18 -82q31 -137 43 -249h8q10 93 56 243zM1698 444l18 82h-149l24 -88q46 -150 56 -243h8q12 112 43 249z" />
    <glyph glyph-name="Euro" unicode="&#x20ac;" horiz-adv-x="1671" 
d="M1298 449l330 -101q-89 -186 -268.5 -286.5t-435.5 -100.5q-311 0 -505.5 150.5t-250.5 406.5h-158v135h137q-2 25 -2 74q0 35 2 51h-137v133h154q55 254 256 401.5t518 147.5q256 0 436.5 -98.5t251.5 -271.5l-336 -99q-44 95 -134.5 147t-223.5 52q-162 0 -262 -73
t-138 -206h594v-133h-616q-2 -16 -2 -51q0 -24 4 -74h614v-135h-587q42 -134 143 -209.5t254 -75.5q127 0 220.5 56.5t141.5 159.5z" />
    <glyph glyph-name="uni20B9" unicode="&#x20b9;" horiz-adv-x="1447" 
d="M1403 1217h-412q68 -80 86 -193h326v-133h-322q-18 -156 -138 -257.5t-339 -119.5h-29l506 -514h-409l-531 549v153h271q259 0 295 189h-566v133h566q-39 193 -275 193h-291v206h1262v-206z" />
    <glyph glyph-name="uni20BA" unicode="&#x20ba;" horiz-adv-x="1406" 
d="M1081 526l318 -45q-20 -80 -48 -146t-78 -130t-115 -107.5t-162.5 -70.5t-217.5 -27h-555v539l-184 -45v139l184 45v156l-184 -46v140l184 45v450h357v-364l516 127v-139l-516 -127v-156l516 127v-139l-516 -127v-365h149q275 0 352 266z" />
    <glyph glyph-name="uni20BD" unicode="&#x20bd;" horiz-adv-x="1511" 
d="M918 516h-351v-147h396v-136h-396v-233h-356v233h-205v136h205v147h-205v234h205v673h721q251 0 400 -121t149 -325q0 -215 -150 -338t-413 -123zM567 1174v-424h291q114 0 177 56.5t63 156.5t-63 155.5t-177 55.5h-291z" />
    <glyph glyph-name="uni2105" unicode="&#x2105;" horiz-adv-x="2062" 
d="M539 -27h-289l1259 1528h291zM18 1108q0 176 120.5 283.5t330.5 107.5q176 0 288 -77.5t136 -209.5l-266 -36q-12 58 -54.5 91t-105.5 33q-85 0 -132.5 -52t-47.5 -140q0 -91 48 -145t134 -54q63 0 105.5 33t54.5 92l264 -37q-26 -130 -137 -208t-289 -78
q-211 0 -330 110t-119 287zM1587 -25q-203 0 -325.5 108.5t-122.5 289.5q0 179 122 285t324 106t325.5 -107.5t123.5 -287.5q0 -179 -123 -286.5t-324 -107.5zM1763 369q0 93 -48 145.5t-130 52.5t-130 -51.5t-48 -142.5q0 -96 48 -147.5t132 -51.5q81 0 128.5 51.5
t47.5 143.5z" />
    <glyph glyph-name="uni2113" unicode="&#x2113;" horiz-adv-x="1239" 
d="M596 434q13 -108 74.5 -154.5t185.5 -46.5q80 0 180 21v-254q-121 -31 -256 -31q-248 0 -372.5 87.5t-151.5 262.5q-138 -35 -199 -49l-71 238q190 49 262 72v460q0 120 35 211t98.5 147t147 83.5t186.5 27.5q221 0 338.5 -108t117.5 -303q0 -419 -575 -664zM590 1118
v-411q130 69 192 159t62 221q0 193 -129 193q-60 0 -92.5 -42.5t-32.5 -119.5z" />
    <glyph glyph-name="uni2116" unicode="&#x2116;" horiz-adv-x="2951" 
d="M168 0v1454h401l605 -833q58 -85 98 -177h4v193v817h336v-1454h-381l-627 844q-74 117 -96 170h-6q2 -61 2 -195v-819h-336zM2288 379q-258 0 -411 133.5t-153 353.5t153 353t411 133q259 0 411 -133t152 -353q0 -221 -152.5 -354t-410.5 -133zM2288 612q116 0 181.5 68
t65.5 186q0 115 -65.5 182.5t-181.5 67.5q-115 0 -181.5 -67.5t-66.5 -182.5q0 -116 66.5 -184.5t181.5 -69.5zM1729 0v223h1118v-223h-1118z" />
    <glyph glyph-name="trademark" unicode="&#x2122;" horiz-adv-x="2037" 
d="M299 627v653h-289v178h811v-178h-299v-653h-223zM913 627v831h318l155 -473q29 -92 35 -151h6q11 76 35 151l156 473h317v-831h-198v479q0 114 4 180h-2q-4 -16 -45 -151l-172 -508h-195l-172 508q-29 94 -43 151h-4q4 -66 4 -180v-479h-199z" />
    <glyph glyph-name="uni2126" unicode="&#x2126;" horiz-adv-x="1638" 
d="M1536 0h-602l-39 549q151 20 228 106.5t77 229.5q0 152 -101.5 243t-279.5 91t-279.5 -91t-101.5 -243q0 -142 77.5 -229t227.5 -107l-38 -549h-601v274h349l10 103q-182 53 -281.5 185.5t-99.5 328.5q0 178 91.5 314t259 210t386.5 74q333 0 535 -164t202 -434
q0 -196 -99 -328.5t-281 -185.5l10 -103h350v-274z" />
    <glyph glyph-name="estimated" unicode="&#x212e;" horiz-adv-x="1636" 
d="M1583 709h-1110v-496q151 -94 381 -94q192 0 328 62t245 202l115 -90q-229 -326 -688 -326q-130 0 -246 26.5t-219 85.5t-177.5 145t-117.5 213t-43 282q0 147 42 271t115.5 212t173.5 150t216.5 91.5t243.5 29.5q340 0 540.5 -186.5t200.5 -495.5v-82zM1192 1241
q-140 92 -361 92q-207 0 -358 -98v-389h719v395z" />
    <glyph glyph-name="uni2153" unicode="&#x2153;" horiz-adv-x="1996" 
d="M217 -35l1032 1524h258l-1032 -1524h-258zM262 651v523q-48 -37 -164 -37h-49v188h31q163 0 217 129h180v-803h-215zM1542 -23q-179 0 -284 73t-109 200l219 20q4 -64 50 -96.5t126 -32.5q75 0 117.5 25t42.5 74q0 50 -38.5 70t-133.5 20h-74v151h76q149 0 149 92
q0 45 -39 68t-108 23q-158 0 -164 -140l-213 29q3 126 106 199t281 73q168 0 264.5 -59t96.5 -168q0 -72 -49.5 -119t-133.5 -61q106 -17 156.5 -62.5t50.5 -126.5q0 -117 -106 -184.5t-283 -67.5z" />
    <glyph glyph-name="uni2154" unicode="&#x2154;" horiz-adv-x="2263" 
d="M483 -35l1033 1524h258l-1033 -1524h-258zM57 651v158q73 32 118 52.5t106 50.5t98 52.5t78.5 52t63.5 56.5t37 58.5t15 64.5q0 54 -37 83.5t-106 29.5q-65 0 -106 -31.5t-41 -89.5q0 -17 8 -53l-223 20q-7 35 -7 53q0 123 104.5 196t270.5 73q172 0 271.5 -69.5
t99.5 -197.5q0 -59 -25 -112t-63 -92t-94.5 -74.5t-107.5 -59t-114 -47.5h414v-174h-760zM1808 -23q-179 0 -284 73t-109 200l219 20q4 -64 49.5 -96.5t126.5 -32.5q75 0 117.5 25t42.5 74q0 50 -38.5 70t-133.5 20h-74v151h76q150 0 150 92q0 45 -39.5 68t-108.5 23
q-158 0 -164 -140l-213 29q3 126 106 199t281 73q168 0 264.5 -59t96.5 -168q0 -72 -49 -119t-133 -61q106 -17 156.5 -62.5t50.5 -126.5q0 -117 -106.5 -184.5t-283.5 -67.5z" />
    <glyph glyph-name="oneeighth" unicode="&#x215b;" horiz-adv-x="2019" 
d="M1249 1489h258l-1032 -1524h-258zM262 651v523q-48 -37 -164 -37h-49v188h31q163 0 217 129h180v-803h-215zM1788 442q92 -34 133 -85t41 -130q0 -114 -109.5 -182t-293.5 -68t-294 63.5t-110 168.5q0 147 170 194q-141 62 -141 191q0 105 101 168t271 63
q169 0 270 -58.5t101 -156.5q0 -123 -139 -168zM1554 682q-74 0 -114.5 -22.5t-40.5 -63.5q0 -36 36 -59.5t115 -38.5l76 -17q86 41 86 107q0 45 -41 69.5t-117 24.5zM1563 131q79 0 127.5 28t48.5 72q0 39 -36.5 63.5t-123.5 43.5l-94 20q-57 -20 -82 -47.5t-25 -70.5
q0 -48 50.5 -78.5t134.5 -30.5z" />
    <glyph glyph-name="threeeighths" unicode="&#x215c;" horiz-adv-x="2293" 
d="M1524 1489h258l-1032 -1524h-258zM834 881q0 -117 -106.5 -184.5t-283.5 -67.5q-179 0 -284 72.5t-109 199.5l219 21q4 -64 50 -96.5t126 -32.5q75 0 117.5 24.5t42.5 73.5q0 50 -38.5 70t-133.5 20h-74v152h76q150 0 150 92q0 45 -39.5 67.5t-108.5 22.5
q-158 0 -164 -139l-213 28q3 126 106.5 199.5t281.5 73.5q168 0 264 -59.5t96 -168.5q0 -72 -49 -119t-133 -61q106 -17 156.5 -62t50.5 -126zM2062 442q92 -34 133 -85t41 -130q0 -114 -109.5 -182t-293.5 -68t-293.5 63.5t-109.5 168.5q0 148 169 194q-141 62 -141 191
q0 105 101.5 168t271.5 63q169 0 270 -58.5t101 -156.5q0 -123 -140 -168zM1829 682q-74 0 -115 -22.5t-41 -63.5q0 -36 36.5 -59.5t115.5 -38.5l76 -17q86 41 86 107q0 45 -41 69.5t-117 24.5zM1837 131q79 0 127.5 28t48.5 72q0 39 -36.5 63.5t-123.5 43.5l-94 20
q-57 -20 -81.5 -47.5t-24.5 -70.5q0 -48 50 -78.5t134 -30.5z" />
    <glyph glyph-name="fiveeighths" unicode="&#x215d;" horiz-adv-x="2279" 
d="M1509 1489h258l-1032 -1524h-258zM823 926q0 -137 -102.5 -217t-280.5 -80q-155 0 -256 62.5t-121 170.5l216 31q12 -45 55 -71.5t110 -26.5q75 0 116.5 32.5t41.5 92.5q0 63 -40.5 99t-115.5 36q-121 0 -159 -84l-199 16l55 467h627v-158h-463l-24 -168q67 80 229 80
q147 0 229 -75t82 -207zM2048 442q92 -34 133 -85t41 -130q0 -114 -109.5 -182t-293.5 -68t-294 63.5t-110 168.5q0 147 170 194q-141 62 -141 191q0 105 101.5 168t271.5 63q169 0 269.5 -58.5t100.5 -156.5q0 -123 -139 -168zM1815 682q-74 0 -115 -22.5t-41 -63.5
q0 -36 36 -59.5t115 -38.5l76 -17q86 41 86 107q0 45 -40.5 69.5t-116.5 24.5zM1823 131q79 0 127.5 28t48.5 72q0 39 -36.5 63.5t-123.5 43.5l-94 20q-57 -20 -82 -47.5t-25 -70.5q0 -48 50.5 -78.5t134.5 -30.5z" />
    <glyph glyph-name="seveneighths" unicode="&#x215e;" horiz-adv-x="2078" 
d="M1309 1489h258l-1032 -1524h-259zM186 655q6 168 96 334.5t244 286.5h-489v178h715v-160q-149 -116 -233.5 -279t-90.5 -351v-13h-242v4zM1847 442q92 -34 133 -85t41 -130q0 -114 -109.5 -182t-293.5 -68t-294 63.5t-110 168.5q0 147 170 194q-141 62 -141 191
q0 105 101.5 168t271.5 63q169 0 270 -58.5t101 -156.5q0 -123 -140 -168zM1614 682q-74 0 -115 -22.5t-41 -63.5q0 -36 36.5 -59.5t115.5 -38.5l76 -17q86 41 86 107q0 45 -41 69.5t-117 24.5zM1622 131q79 0 127.5 28t48.5 72q0 39 -36.5 63.5t-123.5 43.5l-94 20
q-57 -20 -81.5 -47.5t-24.5 -70.5q0 -48 50 -78.5t134 -30.5z" />
    <glyph glyph-name="arrowleft" unicode="&#x2190;" horiz-adv-x="2285" 
d="M2118 588h-1543v-219l-407 307l407 307v-219h1543v-176z" />
    <glyph glyph-name="arrowup" unicode="&#x2191;" horiz-adv-x="948" 
d="M379 -72v1200h-211l305 408l307 -408h-213v-1200h-188z" />
    <glyph glyph-name="arrowright" unicode="&#x2192;" horiz-adv-x="2285" 
d="M168 764h1542v219l408 -307l-408 -307v219h-1542v176z" />
    <glyph glyph-name="arrowdown" unicode="&#x2193;" horiz-adv-x="948" 
d="M569 1526v-1200h211l-305 -408l-307 408h213v1200h188z" />
    <glyph glyph-name="arrowboth" unicode="&#x2194;" horiz-adv-x="2199" 
d="M1624 588h-1049v-219l-407 307l407 307v-219h1049v219l410 -307l-410 -307v219z" />
    <glyph glyph-name="arrowupdn" unicode="&#x2195;" horiz-adv-x="948" 
d="M168 328h211v800h-211l305 408l307 -408h-213v-800h213l-307 -408z" />
    <glyph glyph-name="uni2196" unicode="&#x2196;" horiz-adv-x="1828" 
d="M358 1133l-190 -205v526h498l-181 -188l1178 -1176l-127 -135z" />
    <glyph glyph-name="uni2197" unicode="&#x2197;" horiz-adv-x="1828" 
d="M1470 1135l-1177 -1178l-127 135l1177 1176l-180 188h498v-526z" />
    <glyph glyph-name="uni2198" unicode="&#x2198;" horiz-adv-x="1828" 
d="M1470 344l191 205v-526h-498l180 188l-1177 1175l127 136z" />
    <glyph glyph-name="uni2199" unicode="&#x2199;" horiz-adv-x="1828" 
d="M358 344l1178 1178l127 -136l-1178 -1175l181 -188h-498v526z" />
    <glyph glyph-name="uni21A9" unicode="&#x21a9;" horiz-adv-x="2222" 
d="M575 369l-407 307l407 307v-219h961q158 0 240 64t82 184q0 119 -81.5 181t-240.5 62h-641v177h655q244 0 374 -108.5t130 -309.5q0 -203 -133 -314.5t-387 -111.5h-959v-219z" />
    <glyph glyph-name="uni21AA" unicode="&#x21aa;" horiz-adv-x="2222" 
d="M1647 369v219h-959q-254 0 -387 111.5t-133 314.5q0 201 130 309.5t374 108.5h655v-177h-641q-159 0 -240 -62t-81 -181q0 -120 81.5 -184t239.5 -64h961v219l407 -307z" />
    <glyph glyph-name="uni21B0" unicode="&#x21b0;" horiz-adv-x="2033" 
d="M1677 0v1141h-1102v-219l-407 307l407 307v-219h1291v-1317h-189z" />
    <glyph glyph-name="uni21B1" unicode="&#x21b1;" horiz-adv-x="2033" 
d="M356 0h-188v1317h1290v219l408 -307l-408 -307v219h-1102v-1141z" />
    <glyph glyph-name="uni21B2" unicode="&#x21b2;" horiz-adv-x="2033" 
d="M1677 1454h189v-1317h-1291v-219l-407 307l407 307v-219h1102v1141z" />
    <glyph glyph-name="uni21B3" unicode="&#x21b3;" horiz-adv-x="2033" 
d="M356 1454v-1141h1102v219l408 -307l-408 -307v219h-1290v1317h188z" />
    <glyph glyph-name="uni21B4" unicode="&#x21b4;" horiz-adv-x="2220" 
d="M1841 1487v-1141h211l-305 -407l-307 407h213v965h-1485v176h1673z" />
    <glyph glyph-name="uni21BB" unicode="&#x21bb;" horiz-adv-x="2265" 
d="M1790 385l-307 408h215q-26 242 -213 388t-455 146q-188 0 -339 -73t-238.5 -211t-87.5 -318q0 -177 87.5 -316.5t238.5 -214.5t339 -75q153 0 291.5 54t239.5 155l122 -140q-127 -121 -293.5 -185t-359.5 -64q-180 0 -339 58t-274 160t-182 249t-67 317q0 171 66 317.5
t181 248.5t274.5 160t340.5 58q231 0 419.5 -89t304 -252t132.5 -373h211z" />
    <glyph glyph-name="uni21C4" unicode="&#x21c4;" horiz-adv-x="2381" 
d="M2058 834h-1483v-220l-407 308l407 307v-219h1483v-176zM1806 516v219l408 -307l-408 -305v217h-1480v176h1480z" />
    <glyph glyph-name="uni21C5" unicode="&#x21c5;" horiz-adv-x="1476" 
d="M907 31v1102h-213l307 407l308 -407h-213v-1102h-189zM473 -82l-305 408h211v1110h188v-1110h213z" />
    <glyph glyph-name="partialdiff" unicode="&#x2202;" horiz-adv-x="1476" 
d="M623 1477q368 0 561.5 -202t193.5 -583q0 -348 -180 -537.5t-516 -189.5q-278 0 -444 135.5t-166 364.5q0 217 147.5 347t401.5 130q266 0 415 -158q-8 203 -114 308.5t-308 105.5q-145 0 -290 -65l-121 245q85 45 196.5 72t223.5 27zM702 209q145 0 236.5 89.5
t97.5 246.5q-111 157 -329 157q-136 0 -211.5 -64.5t-75.5 -174.5q0 -113 77.5 -183.5t204.5 -70.5z" />
    <glyph glyph-name="emptyset" unicode="&#x2205;" horiz-adv-x="1224" 
d="M1169 1059l-125 -119q115 -127 115 -315q0 -219 -151 -352.5t-396 -133.5q-186 0 -329 84l-133 -125l-95 90l127 119q-116 129 -116 316q0 219 151 353t395 134q192 0 330 -86l133 125zM330 625q0 -81 39 -142l389 367q-64 31 -146 31q-128 0 -205 -69.5t-77 -186.5z
M895 623q0 80 -39 141l-389 -367q61 -30 145 -30q128 0 205.5 69.5t77.5 186.5z" />
    <glyph glyph-name="uni2206" unicode="&#x2206;" horiz-adv-x="1642" 
d="M29 0l612 1448h367l606 -1448h-1585zM819 1112l-346 -852h688z" />
    <glyph glyph-name="product" unicode="&#x220f;" horiz-adv-x="1628" 
d="M1130 -180v1337h-632v-1337h-336v1624h1304v-1624h-336z" />
    <glyph glyph-name="summation" unicode="&#x2211;" horiz-adv-x="1423" 
d="M102 -180v264l598 584l-571 514v262h1171v-264h-757l561 -510l-608 -586h829v-264h-1223z" />
    <glyph glyph-name="minus" unicode="&#x2212;" horiz-adv-x="1269" 
d="M92 559v227h1086v-227h-1086z" />
    <glyph glyph-name="radical" unicode="&#x221a;" horiz-adv-x="1443" 
d="M49 743h397l191 -583l436 1343h326l-590 -1696h-340l-240 666h-180v270z" />
    <glyph glyph-name="infinity" unicode="&#x221e;" horiz-adv-x="1435" 
d="M1038 1012q149 0 242.5 -91t93.5 -247q0 -152 -95 -247t-241 -95q-190 0 -323 172q-64 -82 -138.5 -127t-179.5 -45q-148 0 -242 91.5t-94 246.5q0 152 95.5 247t240.5 95q191 0 324 -172q64 82 138 127t179 45zM422 535q58 0 100.5 33.5t85.5 99.5q-86 141 -186 141
q-62 0 -98.5 -35.5t-36.5 -101.5q0 -65 38 -101t97 -36zM1016 535q60 0 96.5 35.5t36.5 101.5q0 65 -38 101t-97 36q-58 0 -100 -33.5t-85 -99.5q83 -141 187 -141z" />
    <glyph glyph-name="integral" unicode="&#x222b;" horiz-adv-x="1226" 
d="M283 -236q-64 0 -150 13v248q72 -7 115 -7q101 0 147.5 52.5t46.5 175.5v774q0 219 125 336t361 117q57 0 159 -13v-250q-56 9 -112 9q-102 0 -149.5 -54t-47.5 -176v-778q0 -217 -128 -332t-367 -115z" />
    <glyph glyph-name="approxequal" unicode="&#x2248;" 
d="M981 707q-61 0 -137.5 20t-136.5 44.5t-131 44.5t-123 20q-76 0 -152.5 -28t-124.5 -71v230q44 40 123 67t152 27q71 0 148.5 -20.5t133.5 -45t123.5 -45t120.5 -20.5q77 0 152.5 27.5t121.5 70.5v-227q-41 -41 -117.5 -67.5t-152.5 -26.5zM981 307q-61 0 -137.5 20.5
t-136.5 45t-131 45t-123 20.5q-76 0 -152.5 -27.5t-124.5 -70.5v227q44 41 123 69t152 28q71 0 148.5 -20.5t133.5 -45.5t123.5 -45.5t120.5 -20.5q77 0 152 27.5t122 71.5v-230q-42 -40 -118.5 -67t-151.5 -27z" />
    <glyph glyph-name="notequal" unicode="&#x2260;" 
d="M1212 762h-385l-77 -176h462v-217h-561l-106 -240h-174l106 240h-338v217h436l78 176h-514v217h611l104 231h174l-104 -231h288v-217z" />
    <glyph glyph-name="lessequal" unicode="&#x2264;" 
d="M1219 281l-1047 409v225l1047 410v-248l-764 -272l764 -273v-251zM176 213h1045v-213h-1045v213z" />
    <glyph glyph-name="greaterequal" unicode="&#x2265;" 
d="M209 281v251l764 273l-764 272v248l1046 -410v-225zM1251 213v-213h-1044v213h1044z" />
    <glyph glyph-name="uni2460" unicode="&#x2460;" horiz-adv-x="1748" 
d="M874 -41q-235 0 -421 92t-294 268t-108 408q0 233 108 409t294 267.5t421 91.5q236 0 422 -91.5t294 -267.5t108 -409q0 -232 -108 -408t-294 -268t-422 -92zM874 82q193 0 347 77t244.5 225t90.5 343q0 196 -90.5 344t-244.5 224.5t-347 76.5q-144 0 -268.5 -45
t-216 -126.5t-144 -204t-52.5 -269.5t52.5 -269t143.5 -204t216 -127t269 -45zM803 324v522q-48 -37 -164 -37h-49v188h31q163 0 217 129h180v-802h-215z" />
    <glyph glyph-name="uni2461" unicode="&#x2461;" horiz-adv-x="1748" 
d="M874 -41q-235 0 -421 92t-294 268t-108 408q0 233 108 409t294 267.5t421 91.5q236 0 422 -91.5t294 -267.5t108 -409q0 -232 -108 -408t-294 -268t-422 -92zM874 82q193 0 347 77t244.5 225t90.5 343q0 196 -90.5 344t-244.5 224.5t-347 76.5q-144 0 -268.5 -45
t-216 -126.5t-144 -204t-52.5 -269.5t52.5 -269t143.5 -204t216 -127t269 -45zM496 344v158q73 32 118 52.5t106 50.5t98 52.5t78.5 52t63.5 56.5t37 58.5t15 64.5q0 54 -37.5 83t-106.5 29q-66 0 -106.5 -31t-40.5 -89q0 -18 8 -54l-223 21q-6 30 -6 53q0 123 103.5 195.5
t270.5 72.5q172 0 271.5 -69t99.5 -197q0 -59 -25 -112t-62.5 -92t-94 -74.5t-107.5 -59t-114 -47.5h413v-174h-759z" />
    <glyph glyph-name="uni2462" unicode="&#x2462;" horiz-adv-x="1748" 
d="M874 -41q-235 0 -421 92t-294 268t-108 408q0 233 108 409t294 267.5t421 91.5q236 0 422 -91.5t294 -267.5t108 -409q0 -232 -108 -408t-294 -268t-422 -92zM874 82q193 0 347 77t244.5 225t90.5 343q0 196 -90.5 344t-244.5 224.5t-347 76.5q-144 0 -268.5 -45
t-216 -126.5t-144 -204t-52.5 -269.5t52.5 -269t143.5 -204t216 -127t269 -45zM879 303q-179 0 -284.5 72.5t-109.5 199.5l220 21q4 -64 50 -96.5t126 -32.5q159 0 159 98q0 50 -38.5 70t-133.5 20h-73v152h75q150 0 150 92q0 45 -39.5 67.5t-108.5 22.5q-157 0 -163 -139
l-213 29q3 126 106 199t281 73q168 0 264 -59t96 -168q0 -72 -49.5 -119.5t-132.5 -61.5q106 -17 156.5 -62t50.5 -126q0 -117 -106 -184.5t-283 -67.5z" />
    <glyph glyph-name="uni2463" unicode="&#x2463;" horiz-adv-x="1748" 
d="M874 -41q-235 0 -421 92t-294 268t-108 408q0 233 108 409t294 267.5t421 91.5q236 0 422 -91.5t294 -267.5t108 -409q0 -232 -108 -408t-294 -268t-422 -92zM874 82q193 0 347 77t244.5 225t90.5 343q0 196 -90.5 344t-244.5 224.5t-347 76.5q-144 0 -268.5 -45
t-216 -126.5t-144 -204t-52.5 -269.5t52.5 -269t143.5 -204t216 -127t269 -45zM1266 506h-154v-170h-211v170h-483v141l448 492h246v-480h154v-153zM901 963l-272 -304h272v304z" />
    <glyph glyph-name="uni2464" unicode="&#x2464;" horiz-adv-x="1748" 
d="M874 -41q-235 0 -421 92t-294 268t-108 408q0 233 108 409t294 267.5t421 91.5q236 0 422 -91.5t294 -267.5t108 -409q0 -232 -108 -408t-294 -268t-422 -92zM874 82q193 0 347 77t244.5 225t90.5 343q0 196 -90.5 344t-244.5 224.5t-347 76.5q-144 0 -268.5 -45
t-216 -126.5t-144 -204t-52.5 -269.5t52.5 -269t143.5 -204t216 -127t269 -45zM868 315q-154 0 -255 63t-121 171l215 31q12 -46 55 -72.5t110 -26.5q75 0 116.5 32.5t41.5 92.5q0 63 -40.5 99t-115.5 36q-121 0 -159 -84l-199 17l55 467h627v-158h-463l-24 -168
q67 80 229 80q147 0 229 -75t82 -208q0 -137 -102.5 -217t-280.5 -80z" />
    <glyph glyph-name="uni2465" unicode="&#x2465;" horiz-adv-x="1748" 
d="M874 1495q236 0 422 -91.5t294 -267.5t108 -409q0 -232 -108 -408t-294 -268t-422 -92q-235 0 -421 92t-294 268t-108 408q0 233 108 409t294 267.5t421 91.5zM874 82q193 0 347 77t244.5 225t90.5 343q0 196 -90.5 344t-244.5 224.5t-347 76.5q-144 0 -268.5 -45
t-216 -126.5t-144 -204t-52.5 -269.5t52.5 -269t143.5 -204t216 -127t269 -45zM930 870q150 0 234.5 -71t84.5 -201q0 -133 -103 -214t-269 -81q-194 0 -299 109t-105 299q0 210 109 325t303 115q148 0 240.5 -52t115.5 -151l-215 -35q-18 44 -53.5 63t-91.5 19
q-89 0 -139 -50.5t-60 -160.5q80 86 248 86zM874 465q73 0 116.5 34t43.5 93q0 57 -42 90t-115 33q-65 0 -113 -26t-74 -71q37 -153 184 -153z" />
    <glyph glyph-name="uni2466" unicode="&#x2466;" horiz-adv-x="1748" 
d="M874 -41q-235 0 -421 92t-294 268t-108 408q0 233 108 409t294 267.5t421 91.5q236 0 422 -91.5t294 -267.5t108 -409q0 -232 -108 -408t-294 -268t-422 -92zM874 82q193 0 347 77t244.5 225t90.5 343q0 196 -90.5 344t-244.5 224.5t-347 76.5q-144 0 -268.5 -45
t-216 -126.5t-144 -204t-52.5 -269.5t52.5 -269t143.5 -204t216 -127t269 -45zM520 950v178h715v-159q-149 -116 -233.5 -279.5t-90.5 -351.5v-12h-241v4q6 168 95.5 334t244.5 286h-490z" />
    <glyph glyph-name="uni2467" unicode="&#x2467;" horiz-adv-x="1748" 
d="M874 1495q236 0 422 -91.5t294 -267.5t108 -409q0 -232 -108 -408t-294 -268t-422 -92q-235 0 -421 92t-294 268t-108 408q0 233 108 409t294 267.5t421 91.5zM874 82q193 0 347 77t244.5 225t90.5 343q0 196 -90.5 344t-244.5 224.5t-347 76.5q-144 0 -268.5 -45
t-216 -126.5t-144 -204t-52.5 -269.5t52.5 -269t143.5 -204t216 -127t269 -45zM1104 768q92 -34 133 -85t41 -130q0 -114 -110 -182t-294 -68t-293.5 63.5t-109.5 168.5q0 147 170 194q-141 62 -141 191q0 105 101 168t271 63q169 0 270 -58.5t101 -156.5q0 -123 -139 -168z
M870 1008q-74 0 -114.5 -22.5t-40.5 -63.5q0 -37 36.5 -60.5t114.5 -38.5l76 -16q86 41 86 106q0 45 -41 70t-117 25zM879 457q79 0 127.5 28t48.5 72q0 39 -36.5 63.5t-123.5 43.5l-94 20q-57 -20 -82 -48t-25 -71q0 -48 50.5 -78t134.5 -30z" />
    <glyph glyph-name="uni2468" unicode="&#x2468;" horiz-adv-x="1748" 
d="M874 1495q236 0 422 -91.5t294 -267.5t108 -409q0 -232 -108 -408t-294 -268t-422 -92q-235 0 -421 92t-294 268t-108 408q0 233 108 409t294 267.5t421 91.5zM874 82q193 0 347 77t244.5 225t90.5 343q0 196 -90.5 344t-244.5 224.5t-347 76.5q-144 0 -268.5 -45
t-216 -126.5t-144 -204t-52.5 -269.5t52.5 -269t143.5 -204t216 -127t269 -45zM862 1151q197 0 299.5 -106t102.5 -302q0 -207 -103.5 -323.5t-302.5 -116.5q-148 0 -243.5 58.5t-120.5 162.5l215 37q32 -94 157 -94q167 0 185 209q-83 -68 -232 -68q-155 0 -244.5 69.5
t-89.5 194.5q0 126 103.5 202.5t273.5 76.5zM860 764q123 0 184 74q-15 80 -58.5 118.5t-121.5 38.5q-74 0 -118 -32.5t-44 -88.5q0 -51 42.5 -80.5t115.5 -29.5z" />
    <glyph glyph-name="uni24EA" unicode="&#x24ea;" horiz-adv-x="1748" 
d="M874 -41q-235 0 -421 92t-294 268t-108 408q0 233 108 409t294 267.5t421 91.5q236 0 422 -91.5t294 -267.5t108 -409q0 -232 -108 -408t-294 -268t-422 -92zM874 82q193 0 347 77t244.5 225t90.5 343q0 196 -90.5 344t-244.5 224.5t-347 76.5q-144 0 -268.5 -45
t-216 -126.5t-144 -204t-52.5 -269.5t52.5 -269t143.5 -204t216 -127t269 -45zM874 303q-197 0 -312.5 113.5t-115.5 310.5q0 198 115 311t313 113q199 0 315 -113t116 -311q0 -197 -116 -310.5t-315 -113.5zM874 469q97 0 151 66t54 192q0 127 -54 192.5t-151 65.5
t-150.5 -66t-53.5 -192t53.5 -192t150.5 -66z" />
    <glyph glyph-name="uni24FF" unicode="&#x24ff;" horiz-adv-x="1748" 
d="M874 -41q-235 0 -421 92t-294 268t-108 408t108 408t294 268t421 92q236 0 422 -92t294 -268t108 -408t-108 -408t-294 -268t-422 -92zM874 303q199 0 315 113.5t116 310.5q0 198 -115 311t-313 113q-199 0 -315 -113t-116 -311q0 -197 115.5 -310.5t312.5 -113.5z
M874 473q-94 0 -147 64.5t-53 189.5t53.5 190.5t149.5 65.5q94 0 147 -65t53 -191q0 -125 -53.5 -189.5t-149.5 -64.5z" />
    <glyph glyph-name="lozenge" unicode="&#x25ca;" horiz-adv-x="1329" 
d="M807 -35h-289l-463 762l463 762h289l467 -762zM662 1227l-295 -500l295 -500l301 500z" />
    <glyph glyph-name="circle" unicode="&#x25cb;" horiz-adv-x="1748" 
d="M874 -41q-235 0 -421 92t-294 268t-108 408q0 233 108 409t294 267.5t421 91.5q236 0 422 -91.5t294 -267.5t108 -409q0 -232 -108 -408t-294 -268t-422 -92zM874 82q193 0 347 77t244.5 225t90.5 343q0 196 -90.5 344t-244.5 224.5t-347 76.5q-144 0 -268.5 -45
t-216 -126.5t-144 -204t-52.5 -269.5t52.5 -269t143.5 -204t216 -127t269 -45z" />
    <glyph glyph-name="uni2776" unicode="&#x2776;" horiz-adv-x="1748" 
d="M874 -41q-235 0 -421 92t-294 268t-108 408t108 408t294 268t421 92q236 0 422 -92t294 -268t108 -408t-108 -408t-294 -268t-422 -92zM801 324h219v802h-182q-54 -129 -220 -129h-28v-192h49q115 0 162 39v-520z" />
    <glyph glyph-name="uni2777" unicode="&#x2777;" horiz-adv-x="1748" 
d="M874 -41q-235 0 -421 92t-294 268t-108 408t108 408t294 268t421 92q236 0 422 -92t294 -268t108 -408t-108 -408t-294 -268t-422 -92zM496 340h759v176h-411q62 24 113 47.5t107 59.5t93.5 75t62.5 91.5t25 111.5q0 129 -99 196.5t-272 67.5q-167 0 -271.5 -71.5
t-104.5 -194.5q0 -23 6 -53l227 -21q-6 27 -6 52q0 58 40 88t103 30q68 0 105 -29t37 -81q0 -32 -15 -63.5t-37 -58t-63 -56.5t-77.5 -52.5t-98 -52.5t-105.5 -50.5t-118 -53.5v-158z" />
    <glyph glyph-name="uni2778" unicode="&#x2778;" horiz-adv-x="1748" 
d="M874 -41q-235 0 -421 92t-294 268t-108 408t108 408t294 268t421 92q236 0 422 -92t294 -268t108 -408t-108 -408t-294 -268t-422 -92zM879 303q175 0 282 67t107 181q0 81 -51 128t-156 64q84 14 134 61t50 118q0 111 -97 170t-267 59q-178 0 -281.5 -73t-105.5 -199
l219 -29q3 137 159 137q144 0 144 -92q0 -90 -142 -90h-71v-146h71q89 0 125.5 -23.5t36.5 -68.5q0 -98 -155 -98q-79 0 -124.5 32.5t-49.5 96.5l-224 -23q4 -127 110.5 -199.5t285.5 -72.5z" />
    <glyph glyph-name="uni2779" unicode="&#x2779;" horiz-adv-x="1748" 
d="M874 -41q-235 0 -421 92t-294 268t-108 408t108 408t294 268t421 92q236 0 422 -92t294 -268t108 -408t-108 -408t-294 -268t-422 -92zM915 330h215v168h154v157h-154v478h-247l-449 -492v-143h481v-168zM647 655l268 299v-299h-268z" />
    <glyph glyph-name="uni277A" unicode="&#x277a;" horiz-adv-x="1748" 
d="M874 -41q-235 0 -421 92t-294 268t-108 408t108 408t294 268t421 92q236 0 422 -92t294 -268t108 -408t-108 -408t-294 -268t-422 -92zM868 315q178 0 280.5 79.5t102.5 215.5q0 133 -82 208t-229 75q-161 0 -227 -78l24 164h463v162h-631l-53 -467l199 -19q37 82 157 82
q75 0 115.5 -35t40.5 -96q0 -60 -41.5 -92.5t-116.5 -32.5q-66 0 -107.5 26.5t-53.5 72.5l-220 -33q20 -108 121.5 -170t257.5 -62z" />
    <glyph glyph-name="uni277B" unicode="&#x277b;" horiz-adv-x="1748" 
d="M874 -41q-235 0 -421 92t-294 268t-108 408t108 408t294 268t421 92q236 0 422 -92t294 -268t108 -408t-108 -408t-294 -268t-422 -92zM877 303q167 0 270.5 81t103.5 214q0 130 -84.5 201t-234.5 71q-174 0 -244 -88q14 211 193 211q112 0 143 -80l219 35
q-25 99 -117 151t-239 52q-196 0 -305 -114.5t-109 -325.5q0 -190 105 -299t299 -109zM874 467q-145 0 -180 156q56 90 183 90q72 0 113.5 -32t41.5 -87q0 -60 -43 -93.5t-115 -33.5z" />
    <glyph glyph-name="uni277C" unicode="&#x277c;" horiz-adv-x="1748" 
d="M874 -41q-235 0 -421 92t-294 268t-108 408t108 408t294 268t421 92q236 0 422 -92t294 -268t108 -408t-108 -408t-294 -268t-422 -92zM670 326h245q4 194 86.5 358t233.5 283v161h-717v-180h490q-156 -122 -244 -287t-94 -335z" />
    <glyph glyph-name="uni277D" unicode="&#x277d;" horiz-adv-x="1748" 
d="M874 -41q-236 0 -422 92t-293.5 267.5t-107.5 408.5t107.5 408.5t293.5 267.5t422 92t422 -92t294 -268t108 -408t-108 -408t-294 -268t-422 -92zM877 303q184 0 293.5 68t109.5 182q0 83 -45.5 136.5t-142.5 80.5q153 46 153 166q0 99 -101 157t-272 58
q-170 0 -272 -63.5t-102 -167.5q0 -69 38 -116t123 -77q-188 -38 -188 -192q0 -105 110.5 -168.5t295.5 -63.5zM942 811l-74 12q-78 15 -113.5 38.5t-35.5 60.5q0 40 40 62t113 22q74 0 114 -24.5t40 -70.5q0 -36 -19.5 -59.5t-64.5 -40.5zM879 459q-83 0 -132 30t-49 80
q0 80 107 113l88 -18q87 -18 123.5 -43t36.5 -62q0 -46 -48 -73t-126 -27z" />
    <glyph glyph-name="uni277E" unicode="&#x277e;" horiz-adv-x="1748" 
d="M874 -41q-235 0 -421 92t-294 268t-108 408t108 408t294 268t421 92q236 0 422 -92t294 -268t108 -408t-108 -408t-294 -268t-422 -92zM866 303q200 0 304 116t104 324q0 197 -103 302.5t-301 105.5q-171 0 -273.5 -76t-102.5 -203q0 -125 89 -194.5t244 -69.5
q146 0 230 66q-15 -205 -183 -205q-124 0 -153 92l-219 -37q25 -105 120.5 -163t243.5 -58zM868 764q-70 0 -112.5 30t-42.5 80q0 56 43.5 87.5t117.5 31.5q77 0 119.5 -39t55.5 -123q-60 -67 -181 -67z" />
    <glyph glyph-name="uniE000" unicode="&#xe000;" horiz-adv-x="2220" 
d="M379 1487h1673v-176h-1485v-965h213l-307 -407l-305 407h211v1141z" />
    <glyph glyph-name="i.loclTRK" horiz-adv-x="653" 
d="M143 1171v306h369v-306h-369zM152 0v1024h350v-1024h-350z" />
    <glyph glyph-name="dollar.tf" 
d="M1356 408q0 -206 -146.5 -321t-416.5 -124v-180h-113v182q-237 12 -397 111.5t-224 269.5l291 121q88 -218 330 -248v369l-129 24q-424 90 -424 432q0 190 145 299t408 117v176h113v-178q214 -12 352.5 -100.5t189.5 -245.5l-270 -117q-56 189 -272 219v-360l163 -33
q207 -43 303.5 -141.5t96.5 -271.5zM657 883l23 -4v340q-227 -9 -227 -162q0 -73 47.5 -112.5t156.5 -61.5zM793 213q120 3 177.5 43.5t57.5 124.5q0 74 -45 115t-149 63l-41 8v-354z" />
    <glyph glyph-name="cent.tf" 
d="M786 195q95 15 152 71t76 146l303 -60q-36 -157 -171.5 -264.5t-359.5 -120.5v-174h-120v174q-269 17 -415.5 169t-146.5 378q0 150 61 266.5t189 190.5t312 86v160h120v-160q220 -10 358 -110t175 -271l-307 -49q-42 182 -226 211v-643zM418 520q0 -131 64 -219
t184 -106v643q-119 -17 -183.5 -103t-64.5 -215z" />
    <glyph glyph-name="sterling.tf" 
d="M1044 414l326 -45q-27 -192 -146 -298t-294 -106q-83 0 -220 29t-243 29q-169 0 -352 -39l-66 192q264 80 264 344q0 70 -12 129h-197v164h156q-31 114 -31 195q0 213 143 332.5t392 119.5q232 0 369 -96t172 -283l-324 -67q-15 100 -70.5 152.5t-144.5 52.5
q-205 0 -205 -205q0 -79 29 -201h332v-164h-293q6 -43 6 -94q0 -111 -57 -190.5t-158 -118.5q61 12 149 12q57 0 148.5 -14.5t146.5 -14.5q74 0 122 47.5t58 137.5z" />
    <glyph glyph-name="florin.tf" 
d="M1108 1210q-105 0 -155.5 -51t-69.5 -174l-15 -106h287v-230h-317l-129 -956h-367l129 956h-258v230h289l12 84q37 268 168.5 384.5t394.5 116.5q81 0 166 -18v-250q-82 14 -135 14z" />
    <glyph glyph-name="yen.tf" 
d="M1395 1423l-473 -780h348v-141h-381v-123h381v-141h-381v-238h-352v238h-379v141h379v123h-379v141h346l-471 780h383l246 -473q33 -60 49 -127h4q19 70 51 127l246 473h383z" />
    <glyph glyph-name="Euro.tf" 
d="M807 223q177 0 252 211l313 -100q-60 -178 -210 -275.5t-363 -97.5q-270 0 -429.5 151t-195.5 412h-129v133h119v25v98v2h-119v133h129q36 255 203 401t438 146q211 0 358.5 -91.5t200.5 -270.5l-319 -99q-34 103 -93 155t-155 52q-238 0 -279 -293h402v-133h-408v-112
v-13h408v-133h-398q41 -301 275 -301z" />
    <glyph glyph-name="perthousand.tf" 
d="M350 848q-137 0 -218 81.5t-81 225.5q0 146 81 227.5t218 81.5q136 0 216.5 -81.5t80.5 -227.5q0 -144 -81 -225.5t-216 -81.5zM246 1171v-30q0 -65 26.5 -101t77.5 -36q49 0 77 36t28 101v30q0 65 -28 101.5t-77 36.5q-50 0 -77 -36.5t-27 -101.5zM1276 1208v-168
l-1167 -618v172zM1077 588q136 0 216.5 -81.5t80.5 -227.5t-81 -228t-216 -82q-119 0 -192 70q-76 -70 -193 -70q-137 0 -217 82t-80 228t80 227.5t217 81.5q117 0 193 -70q73 70 192 70zM797 264v29q0 66 -27.5 101.5t-77.5 35.5q-51 0 -77.5 -35.5t-26.5 -101.5v-29
q0 -67 26.5 -103t77.5 -36q50 0 77.5 36.5t27.5 102.5zM1182 264v29q0 66 -27.5 101.5t-77.5 35.5q-51 0 -78.5 -35.5t-27.5 -101.5v-29q0 -66 27.5 -102.5t78.5 -36.5q50 0 77.5 36.5t27.5 102.5z" />
    <glyph glyph-name="zero.zero" horiz-adv-x="1562" 
d="M780 1462q325 0 516 -200t191 -551q0 -349 -191 -549.5t-516 -200.5q-324 0 -514 200t-190 550q0 351 189.5 551t514.5 200zM780 1196q-159 0 -249.5 -124t-90.5 -361q0 -141 35 -244l549 614q-89 115 -244 115zM780 227q160 0 251 124.5t91 359.5q0 134 -30 233
l-547 -610q88 -107 235 -107z" />
    <glyph glyph-name="zero.tf" 
d="M713 -39q-303 0 -473 188.5t-170 561.5q0 374 170 562.5t473 188.5q304 0 474 -188t171 -563q-1 -373 -171.5 -561.5t-473.5 -188.5zM713 211q147 0 217.5 121t70.5 379q0 259 -71 380t-217 121t-216.5 -121t-70.5 -380q0 -258 70.5 -379t216.5 -121z" />
    <glyph glyph-name="one.tf" 
d="M936 276h397v-276h-1181v276h432v697q-53 -50 -142.5 -78.5t-203.5 -28.5h-76v308h53q165 0 268.5 63t159.5 186h293v-1147z" />
    <glyph glyph-name="two.tf" 
d="M106 0v246q172 95 334 204.5t277 208.5q104 88 147 165t43 171q0 93 -54.5 147t-156.5 54q-103 0 -163.5 -57.5t-63.5 -161.5q0 -22 4 -80l-350 35q-6 48 -4 76q3 138 80 242t208 158t295 54q270 0 418 -117t148 -331q0 -127 -53.5 -230.5t-174.5 -208.5
q-164 -145 -475 -303h735v-272h-1194z" />
    <glyph glyph-name="three.tf" 
d="M719 -39q-284 0 -447.5 126t-169.5 343l357 33q8 -116 73.5 -180t186.5 -64q114 0 175.5 52t61.5 149q0 94 -66.5 142t-187.5 48h-90l2 221h80q107 0 169.5 52t62.5 143q0 85 -54.5 131.5t-160.5 46.5q-117 0 -178.5 -64t-63.5 -184l-354 41q0 207 158.5 336t447.5 129
q265 0 414 -106.5t149 -292.5q0 -128 -85 -214.5t-212 -111.5q155 -26 244.5 -114.5t89.5 -237.5q0 -193 -162 -308.5t-440 -115.5z" />
    <glyph glyph-name="four.tf" 
d="M809 0v313h-754v224l693 886h389v-862h233v-248h-233v-313h-328zM360 561h449v428q0 105 6 168h-4q-27 -73 -88 -153l-262 -336q-53 -68 -101 -107z" />
    <glyph glyph-name="five.tf" 
d="M698 -39q-246 0 -403 111.5t-182 298.5l336 45q19 -89 87 -140t173 -51q116 0 181.5 67t65.5 185q0 120 -61 188t-180 68q-92 0 -158 -43t-92 -119l-303 27l88 825h962v-266h-712l-41 -336q54 68 145.5 109t212.5 41q226 0 357 -131.5t131 -358.5q0 -236 -165 -378
t-442 -142z" />
    <glyph glyph-name="six.tf" 
d="M817 967q237 0 372.5 -129t135.5 -357q0 -234 -161 -377t-427 -143q-307 0 -475 190.5t-168 538.5q0 366 170 569t479 203q234 0 382.5 -100t183.5 -283l-344 -51q-43 176 -234 176q-136 0 -212.5 -106t-82.5 -303q60 81 157.5 126.5t223.5 45.5zM735 219q113 0 179.5 69
t66.5 183q0 119 -64.5 184.5t-175.5 65.5q-105 0 -181.5 -58.5t-110.5 -160.5q22 -138 95 -210.5t191 -72.5z" />
    <glyph glyph-name="seven.tf" 
d="M389 0v29q0 309 146 593.5t415 518.5h-825v282h1182v-264q-256 -225 -392.5 -494t-136.5 -602v-63h-389z" />
    <glyph glyph-name="eight.tf" 
d="M1044 786q153 -52 231.5 -144.5t78.5 -246.5q0 -200 -171.5 -317t-467.5 -117q-297 0 -469 110t-172 298q0 266 303 338q-129 50 -195.5 134t-66.5 218q0 119 75.5 211t211 142t309.5 50q264 0 424.5 -101t160.5 -274q0 -227 -252 -301zM707 1233q-115 0 -178.5 -46.5
t-63.5 -129.5q0 -73 58 -118t171 -71l121 -26q75 35 109 83.5t34 118.5q0 89 -65.5 139t-185.5 50zM721 209q129 0 204.5 52.5t75.5 141.5q0 85 -65.5 133t-196.5 78l-133 29q-92 -37 -135 -92t-43 -135q0 -97 77.5 -152t215.5 -55z" />
    <glyph glyph-name="nine.tf" 
d="M690 1462q308 0 474.5 -186.5t166.5 -540.5q0 -370 -162 -572t-477 -202q-237 0 -390 102t-189 289l344 56q25 -89 90 -136t162 -47q136 0 207 109t73 315q-120 -149 -362 -149q-247 0 -391 125t-144 344q0 223 161.5 358t436.5 135zM692 748q108 0 187.5 53t105.5 141
q-18 126 -91 198t-198 72q-118 0 -189 -64t-71 -175q0 -102 70.5 -163.5t185.5 -61.5z" />
    <glyph glyph-name="gcommaaccent.ss01" horiz-adv-x="1478" 
d="M803 1575l53 -105q-64 -15 -88.5 -36.5t-26.5 -61.5h158v-207h-309v172q0 199 213 238zM692 -430q-278 0 -428.5 92t-179.5 285h354q38 -158 267 -158q139 2 206.5 62t67.5 184v168q-53 -95 -155 -147t-238 -52q-233 0 -380 148t-147 383q0 234 147.5 377t387.5 143
q134 0 239 -51t162 -144l25 164h307v-969q0 -242 -160.5 -363.5t-474.5 -121.5zM700 227q129 0 206 74t77 197v63q0 116 -78.5 188t-204.5 72q-131 0 -204.5 -76.5t-73.5 -216.5q0 -137 75.5 -219t202.5 -82z" />
    <glyph glyph-name="gdotaccent.ss01" horiz-adv-x="1478" 
d="M559 1171v306h369v-306h-369zM692 -430q-278 0 -428.5 92t-179.5 285h354q38 -158 267 -158q139 2 206.5 62t67.5 184v168q-53 -95 -155 -147t-238 -52q-233 0 -380 148t-147 383q0 234 147.5 377t387.5 143q134 0 239 -51t162 -144l25 164h307v-969
q0 -242 -160.5 -363.5t-474.5 -121.5zM700 227q129 0 206 74t77 197v63q0 116 -78.5 188t-204.5 72q-131 0 -204.5 -76.5t-73.5 -216.5q0 -137 75.5 -219t202.5 -82z" />
    <glyph glyph-name="Iacute_J.loclNLD" horiz-adv-x="1648" 
d="M213 1548l184 242h314l-219 -242h-279zM1196 1548l184 242h314l-219 -242h-279zM535 0h-367v1454h367v-1454zM1518 475q0 -132 -38 -229t-110 -156.5t-169 -88t-222 -28.5q-149 0 -244 21v293q106 -13 162 -13q124 0 189 62t65 207v911h367v-979z" />
    <glyph glyph-name="iacute_j.loclNLD" horiz-adv-x="1325" 
d="M188 1165l191 322h315l-229 -322h-277zM856 1165l191 322h315l-229 -322h-277zM152 0v1024h350v-1024h-350zM739 -418q-95 0 -164 15v251q53 -6 107 -6q76 0 108.5 42.5t32.5 148.5v991h351v-1024q0 -208 -99 -313t-336 -105z" />
    <glyph glyph-name="g.ss01" horiz-adv-x="1478" 
d="M692 -430q-278 0 -428.5 92t-179.5 285h354q38 -158 267 -158q139 2 206.5 62t67.5 184v168q-53 -95 -155 -147t-238 -52q-233 0 -380 148t-147 383q0 234 147.5 377t387.5 143q134 0 239 -51t162 -144l25 164h307v-969q0 -242 -160.5 -363.5t-474.5 -121.5zM700 227
q129 0 206 74t77 197v63q0 116 -78.5 188t-204.5 72q-131 0 -204.5 -76.5t-73.5 -216.5q0 -137 75.5 -219t202.5 -82z" />
    <glyph glyph-name="gbreve.ss01" horiz-adv-x="1478" 
d="M573 1487q12 -166 170 -166t170 166h228q-12 -167 -117 -249.5t-281 -82.5t-280.5 82.5t-114.5 249.5h225zM692 -430q-278 0 -428.5 92t-179.5 285h354q38 -158 267 -158q139 2 206.5 62t67.5 184v168q-53 -95 -155 -147t-238 -52q-233 0 -380 148t-147 383
q0 234 147.5 377t387.5 143q134 0 239 -51t162 -144l25 164h307v-969q0 -242 -160.5 -363.5t-474.5 -121.5zM700 227q129 0 206 74t77 197v63q0 116 -78.5 188t-204.5 72q-131 0 -204.5 -76.5t-73.5 -216.5q0 -137 75.5 -219t202.5 -82z" />
    <glyph glyph-name="gcircumflex.ss01" horiz-adv-x="1478" 
d="M1184 1165h-266l-175 215l-172 -215h-268l262 322h357zM692 -430q-278 0 -428.5 92t-179.5 285h354q38 -158 267 -158q139 2 206.5 62t67.5 184v168q-53 -95 -155 -147t-238 -52q-233 0 -380 148t-147 383q0 234 147.5 377t387.5 143q134 0 239 -51t162 -144l25 164h307
v-969q0 -242 -160.5 -363.5t-474.5 -121.5zM700 227q129 0 206 74t77 197v63q0 116 -78.5 188t-204.5 72q-131 0 -204.5 -76.5t-73.5 -216.5q0 -137 75.5 -219t202.5 -82z" />
    <glyph glyph-name="g.sups.ss01" horiz-adv-x="1155" 
d="M541 322q-218 0 -332 66.5t-131 207.5h291q9 -54 57.5 -81.5t124.5 -27.5q93 2 137.5 42t44.5 126v127q-37 -65 -111.5 -101t-175.5 -36q-171 0 -278 106t-107 275q0 172 108 275.5t288 103.5q208 0 291 -139l16 116h268v-704q0 -356 -491 -356zM551 823q85 0 135.5 47
t50.5 125v52q0 77 -50.5 125.5t-131.5 48.5q-88 0 -136 -51.5t-48 -147.5q0 -91 48.5 -145t131.5 -54z" />
    <glyph glyph-name="a.sups" horiz-adv-x="1097" 
d="M379 612q-145 0 -229 61t-84 167q0 60 23.5 103t70.5 68.5t102.5 39.5t134.5 22l287 29v26q0 109 -137 109q-139 0 -154 -104h-305q17 129 139 200.5t320 71.5q227 0 332.5 -79t105.5 -245v-245q0 -129 16 -201h-292q-10 58 -13 123q-32 -68 -117 -107t-200 -39zM498 774
q86 0 140 40.5t54 103.5v67l-176 -16q-85 -10 -121.5 -34.5t-36.5 -70.5q0 -40 38 -65t102 -25z" />
    <glyph glyph-name="b.sups" horiz-adv-x="1163" 
d="M715 612q-101 0 -177 37t-116 103l-14 -117h-275v1083h299v-436q43 59 119.5 91t175.5 32q171 0 273 -106.5t102 -286.5q0 -183 -104.5 -291.5t-282.5 -108.5zM608 801q88 0 137.5 55t49.5 154q0 98 -49.5 152t-137.5 52q-83 0 -133.5 -49t-50.5 -131v-49
q0 -85 49 -134.5t135 -49.5z" />
    <glyph glyph-name="c.sups" horiz-adv-x="1067" 
d="M551 612q-226 0 -361 108.5t-135 289.5q0 184 133 289.5t365 105.5q189 0 310 -72.5t149 -202.5l-293 -53q-12 60 -57.5 92.5t-116.5 32.5q-85 0 -134 -49.5t-49 -134.5q0 -94 49 -147.5t134 -53.5q73 0 118 34t56 95l295 -55q-26 -128 -151.5 -203.5t-311.5 -75.5z" />
    <glyph glyph-name="d.sups" horiz-adv-x="1163" 
d="M436 612q-170 0 -272.5 109.5t-102.5 288.5t104.5 287t280.5 108q200 0 285 -125v438h299v-1083h-287v135q-39 -72 -120.5 -115t-186.5 -43zM557 803q81 0 130.5 49.5t49.5 128.5v53q0 85 -49.5 134t-134.5 49q-87 0 -134.5 -54t-47.5 -151q0 -96 50 -152.5t136 -56.5z
" />
    <glyph glyph-name="e.sups" horiz-adv-x="1058" 
d="M995 995v-37h-657q8 -70 66 -111.5t155 -41.5q162 0 258 96l152 -127q-61 -74 -168.5 -118t-249.5 -44q-234 0 -365 104.5t-131 289.5q0 183 128.5 291t348.5 108t341.5 -108.5t121.5 -301.5zM338 1094h373q0 72 -47.5 115.5t-133.5 43.5t-136.5 -42t-55.5 -117z" />
    <glyph glyph-name="f.sups" horiz-adv-x="794" 
d="M748 1382v-186h-238v-561h-299v561h-164v186h164v41q0 308 381 308q73 0 156 -17v-198q-52 8 -107 8q-67 0 -99 -25t-32 -78v-39h238z" />
    <glyph glyph-name="g.sups" horiz-adv-x="1103" 
d="M1057 1331q-46 8 -82 8q-57 0 -92 -14q92 -67 92 -170q0 -120 -117.5 -188t-322.5 -68q-108 0 -205 23q-21 -15 -21 -37q0 -60 92 -60l347 -2q307 -3 307 -211q0 -290 -551 -290q-449 0 -449 167q0 87 138 125q-57 20 -88 59t-31 91q0 65 46 112t132 70q-77 33 -118.5 86
t-41.5 123q0 119 117.5 184.5t325.5 65.5q129 0 235 -29q22 69 86 105.5t160 36.5q21 0 41 -5v-182zM535 1024q69 0 111 35.5t42 93.5q0 61 -41 94t-112 33q-72 0 -113 -32.5t-41 -92.5t41.5 -95.5t112.5 -35.5zM698 592l-383 4h-30q-19 -22 -19 -49q0 -56 63 -82.5
t203 -26.5q141 0 201 21t60 73q0 31 -22.5 45.5t-72.5 14.5z" />
    <glyph glyph-name="h.sups" horiz-adv-x="1169" 
d="M133 635v1083h299v-475q41 80 119.5 122t185.5 42q157 0 240.5 -91.5t83.5 -264.5v-416h-301v385q0 172 -156 172q-82 0 -127 -48t-45 -138v-371h-299z" />
    <glyph glyph-name="i.sups" horiz-adv-x="550" 
d="M121 1475v251h309v-251h-309zM125 635v747h301v-747h-301z" />
    <glyph glyph-name="j.sups" horiz-adv-x="563" 
d="M133 1475v251h307v-251h-307zM86 332q-91 0 -127 10v205q36 -4 70 -4q58 0 83 30.5t25 102.5v706h301v-731q0 -166 -80.5 -242.5t-271.5 -76.5z" />
    <glyph glyph-name="k.sups" horiz-adv-x="1118" 
d="M762 635l-207 305l-123 -106v-199h-299v1083h299v-620l297 284h361l-316 -292l318 -455h-330z" />
    <glyph glyph-name="l.sups" horiz-adv-x="565" 
d="M432 1718v-1083h-299v1083h299z" />
    <glyph glyph-name="m.sups" horiz-adv-x="1675" 
d="M123 1382h291v-147q81 170 286 170q202 0 269 -170q92 170 301 170q142 0 219.5 -86t77.5 -244v-440h-299v379q0 172 -133 172q-68 0 -104 -42.5t-36 -123.5v-385h-299v381q0 87 -32.5 128.5t-100.5 41.5t-103.5 -43t-35.5 -125v-383h-301v747z" />
    <glyph glyph-name="n.sups" horiz-adv-x="1159" 
d="M123 635v747h291v-153q90 176 315 176q158 0 240 -90.5t82 -263.5v-416h-299v371q0 182 -156 182q-172 0 -172 -184v-369h-301z" />
    <glyph glyph-name="o.sups" horiz-adv-x="1089" 
d="M545 612q-219 0 -354.5 105t-135.5 293q0 189 135 292t355 103q219 0 353 -103.5t134 -291.5t-134.5 -293t-352.5 -105zM545 803q86 0 136 53.5t50 153.5t-49.5 152t-136.5 52q-88 0 -138.5 -52t-50.5 -152t50.5 -153.5t138.5 -53.5z" />
    <glyph glyph-name="p.sups" horiz-adv-x="1153" 
d="M123 344v1038h291v-116q46 66 125 102.5t180 36.5q170 0 272.5 -107t102.5 -284q0 -182 -105.5 -292t-279.5 -110q-180 0 -285 121v-389h-301zM602 803q84 0 133 57t49 154t-47 150t-135 53q-87 0 -135.5 -51t-48.5 -144v-27q0 -87 50 -139.5t134 -52.5z" />
    <glyph glyph-name="q.sups" horiz-adv-x="1153" 
d="M731 344v410q-43 -67 -120.5 -104.5t-178.5 -37.5q-167 0 -269 109.5t-102 288.5q0 181 105.5 289t282.5 108q211 0 296 -141l17 116h268v-1038h-299zM553 801q84 0 134 51t50 135v53q0 82 -51 130.5t-137 48.5q-85 0 -131.5 -53.5t-46.5 -151.5q0 -99 48 -156t134 -57z
" />
    <glyph glyph-name="r.sups" horiz-adv-x="796" 
d="M397 1163q31 116 108 177t195 61q18 0 50 -4v-271q-58 7 -95 7q-107 0 -161 -48q-70 -61 -70 -178v-272h-301v747h274v-219z" />
    <glyph glyph-name="s.sups" horiz-adv-x="960" 
d="M500 612q-151 0 -275.5 37.5t-197.5 104.5l125 149q155 -115 362 -115q137 0 137 64q0 28 -24.5 41t-94.5 22l-194 23q-131 19 -194.5 73t-63.5 152q0 115 100 178.5t301 63.5q265 0 428 -105l-114 -151q-139 92 -326 92q-65 0 -94 -13.5t-29 -43.5q0 -45 100 -58
l207 -24q137 -19 197.5 -73t60.5 -159q0 -124 -103 -191t-308 -67z" />
    <glyph glyph-name="t.sups" horiz-adv-x="796" 
d="M23 1196v186h170v172l299 107v-279h241v-186h-241v-221q0 -129 141 -129q60 0 98 10v-215q-105 -25 -182 -25q-175 0 -265.5 66.5t-90.5 214.5v299h-170z" />
    <glyph glyph-name="u.sups" horiz-adv-x="1150" 
d="M739 782q-37 -81 -118 -125.5t-191 -44.5q-156 0 -238.5 82t-82.5 232v456h301v-389q0 -166 149 -166q82 0 126 44.5t44 119.5v391h299v-747h-289v147z" />
    <glyph glyph-name="v.sups" horiz-adv-x="1048" 
d="M358 635l-338 747h314l158 -413q9 -29 30 -101h4q15 53 33 101l158 413h313l-338 -747h-334z" />
    <glyph glyph-name="w.sups" horiz-adv-x="1482" 
d="M289 635l-248 747h287l112 -424q1 -6 4.5 -20t6 -27.5t4.5 -27.5h4q2 28 16 75l135 424h262l136 -424q11 -37 16 -75h4q2 14 14 75l113 424h287l-248 -747h-299l-135 399q-15 47 -17 70h-4q-3 -32 -18 -70l-135 -399h-297z" />
    <glyph glyph-name="x.sups" horiz-adv-x="1089" 
d="M33 635l325 387l-311 360h344l111 -133q34 -44 45 -78h4q14 42 47 78l111 133h319l-305 -352l334 -395h-346l-131 156q-41 52 -48 75h-4q-15 -37 -49 -75l-131 -156h-315z" />
    <glyph glyph-name="y.sups" horiz-adv-x="1040" 
d="M227 326q-78 0 -147 14v213q76 -12 117 -12q134 0 178 77l6 15l-361 749h328l154 -415q15 -40 30 -101h5q9 37 32 99l146 417h307l-336 -776q-64 -148 -170 -214t-289 -66z" />
    <glyph glyph-name="z.sups" horiz-adv-x="952" 
d="M63 805l447 387h-426v190h790v-165l-438 -390h457v-192h-830v170z" />
    <glyph glyph-name="g_g.liga.ss01" horiz-adv-x="2957" 
d="M692 -430q-278 0 -428.5 92t-179.5 285h354q38 -158 267 -158q139 2 206.5 62t67.5 184v168q-53 -95 -155 -147t-238 -52q-233 0 -380 148t-147 383q0 234 147.5 377t387.5 143q134 0 239 -51t162 -144l25 164h307v-969q0 -242 -160.5 -363.5t-474.5 -121.5zM2171 -430
q-278 0 -428.5 92t-179.5 285h354q38 -158 266 -158q139 2 207 62t68 184v168q-53 -95 -155.5 -147t-238.5 -52q-233 0 -379.5 148t-146.5 383q0 234 147.5 377t387.5 143q134 0 239 -51t162 -144l25 164h307v-969q0 -242 -160.5 -363.5t-474.5 -121.5zM700 227
q129 0 206 74t77 197v63q0 116 -78.5 188t-204.5 72q-131 0 -204.5 -76.5t-73.5 -216.5q0 -137 75.5 -219t202.5 -82zM2179 227q129 0 206 74t77 197v63q0 116 -78.5 188t-204.5 72q-131 0 -204.5 -76.5t-73.5 -216.5q0 -137 75.5 -219t202.5 -82z" />
    <glyph glyph-name="zero.case" horiz-adv-x="1562" 
d="M780 -39q-324 0 -514 205.5t-190 562.5t190 561.5t514 204.5q325 0 516 -204.5t191 -561.5t-191.5 -562.5t-515.5 -205.5zM780 227q160 0 251 129.5t91 372.5t-91 372.5t-251 129.5q-158 0 -249 -129.5t-91 -372.5t91 -372.5t249 -129.5z" />
    <glyph glyph-name="one.case" horiz-adv-x="972" 
d="M408 0v997q-44 -45 -122 -70.5t-171 -25.5h-72v305h45q284 0 379 248h293v-1454h-352z" />
    <glyph glyph-name="two.case" horiz-adv-x="1423" 
d="M63 0v252q451 214 666 379q118 91 166.5 174t48.5 188q0 108 -63 171t-187 63q-123 0 -192.5 -65.5t-69.5 -182.5q0 -38 10 -96l-362 32q-8 44 -8 101q0 218 173.5 348.5t459.5 130.5q292 0 454 -126.5t162 -348.5q0 -151 -71 -271t-212 -227q-177 -130 -467 -248h772
v-274h-1280z" />
    <glyph glyph-name="three.case" horiz-adv-x="1439" 
d="M711 -39q-299 0 -473.5 131.5t-182.5 358.5l359 34q8 -126 85.5 -195t213.5 -69q134 0 205 54.5t71 154.5q0 101 -72.5 148t-216.5 47h-116v227h114q128 0 195.5 49t67.5 143q0 92 -67.5 142.5t-193.5 50.5q-133 0 -205 -70t-75 -198l-352 43q3 219 174 351t469 132
q295 0 454.5 -109.5t159.5 -304.5q0 -131 -88.5 -217t-228.5 -110q171 -24 262.5 -111.5t91.5 -239.5q0 -201 -173 -321.5t-478 -120.5z" />
    <glyph glyph-name="four.case" horiz-adv-x="1452" 
d="M1434 324h-254v-324h-351v324h-806v229l763 901h394v-881h254v-249zM840 995q0 127 6 172h-6q-22 -49 -109 -153l-256 -316q-68 -84 -119 -125h484v422z" />
    <glyph glyph-name="five.case" horiz-adv-x="1413" 
d="M700 -39q-259 0 -428 114t-204 312l348 49q20 -98 95 -154.5t189 -56.5q135 0 210 69t75 195q0 125 -72.5 196t-199.5 71q-213 0 -285 -183l-317 29l92 852h1052v-268h-786l-43 -346q54 77 156.5 119t236.5 42q246 0 385 -133.5t139 -369.5q0 -249 -172.5 -393
t-470.5 -144z" />
    <glyph glyph-name="six.case" horiz-adv-x="1452" 
d="M848 989q253 0 393.5 -131.5t140.5 -365.5q0 -235 -173.5 -383t-452.5 -148q-324 0 -503 196t-179 552q0 370 182 578t506 208q251 0 406.5 -103t193.5 -296l-346 -52q-50 195 -262 195q-157 0 -245.5 -114.5t-94.5 -323.5q137 188 434 188zM750 219q130 0 207 71t77 191
q0 122 -74.5 192t-205.5 70q-115 0 -201.5 -59t-126.5 -164q26 -146 109 -223.5t215 -77.5z" />
    <glyph glyph-name="seven.case" horiz-adv-x="1259" 
d="M301 0v29q0 315 151 609.5t427 532.5h-844v283h1200v-264q-545 -475 -545 -1127v-63h-389z" />
    <glyph glyph-name="eight.case" horiz-adv-x="1468" 
d="M1083 801q169 -57 247.5 -153.5t78.5 -246.5q0 -203 -181 -321.5t-493 -118.5t-493 111.5t-181 302.5q0 273 316 352q-142 55 -208.5 142t-66.5 216q0 187 170 298.5t453 111.5q286 0 456.5 -103.5t170.5 -277.5q0 -233 -269 -313zM727 1268q-129 0 -201.5 -48.5
t-72.5 -134.5q0 -74 62.5 -121.5t201.5 -76.5l129 -27q83 37 120.5 87t37.5 124q0 93 -73 145t-204 52zM739 209q141 0 224.5 54.5t83.5 148.5q0 85 -67.5 136.5t-219.5 82.5l-142 31q-101 -38 -147.5 -96.5t-46.5 -143.5q0 -100 83.5 -156.5t231.5 -56.5z" />
    <glyph glyph-name="nine.case" horiz-adv-x="1452" 
d="M700 1495q328 0 503 -189.5t175 -551.5q0 -379 -173 -586t-513 -207q-246 0 -406 107.5t-198 304.5l346 55q25 -98 95.5 -150.5t177.5 -52.5q164 0 247.5 119t85.5 338q-62 -81 -168 -124.5t-245 -43.5q-259 0 -408 127.5t-149 351.5q0 227 171.5 364.5t458.5 137.5z
M698 762q119 0 208.5 56.5t123.5 150.5q-21 129 -102 203.5t-221 74.5q-134 0 -211.5 -66.5t-77.5 -181.5q0 -109 75.5 -173t204.5 -64z" />
    <glyph glyph-name="one.ss02.case" horiz-adv-x="1312" 
d="M881 276h395v-276h-1180v276h430v728q-52 -50 -141 -78.5t-203 -28.5h-78v307h56q317 0 426 250h295v-1178z" />
    <glyph glyph-name="zero.tf.case" 
d="M713 -39q-303 0 -473 192.5t-170 573.5q0 383 170 576.5t473 193.5q149 0 267 -47t202.5 -140.5t129.5 -240.5t46 -340q-1 -383 -171.5 -575.5t-473.5 -192.5zM713 211q147 0 217.5 125.5t70.5 392.5t-71 391.5t-217 124.5t-216.5 -125t-70.5 -391q0 -268 70.5 -393
t216.5 -125z" />
    <glyph glyph-name="one.tf.case" 
d="M936 276h397v-276h-1181v276h432v725q-111 -108 -346 -108h-76v305h53q314 0 428 256h293v-1178z" />
    <glyph glyph-name="two.tf.case" 
d="M106 0v244q370 213 611 424q105 94 147.5 174t42.5 176q0 98 -54.5 155.5t-156.5 57.5t-163 -60.5t-64 -169.5q0 -23 4 -81l-350 34q-6 48 -4 76q3 141 80 248t208 163t295 56q270 0 418 -121t148 -340q0 -129 -53.5 -235.5t-174.5 -216.5q-172 -155 -475 -312h735v-272
h-1194z" />
    <glyph glyph-name="three.tf.case" 
d="M719 -39q-283 0 -447 129.5t-170 349.5l357 33q8 -121 73.5 -187.5t186.5 -66.5q114 0 175.5 54t61.5 155q0 99 -66.5 150t-187.5 51h-90l2 221h80q107 0 169.5 54.5t62.5 148.5q0 88 -55 137t-160 49q-118 0 -179 -66.5t-63 -193.5l-354 43q0 210 158.5 341.5
t447.5 131.5q265 0 414 -108t149 -297q0 -131 -85 -219.5t-212 -114.5q155 -26 244.5 -117.5t89.5 -243.5q0 -198 -162 -316t-440 -118z" />
    <glyph glyph-name="four.tf.case" 
d="M809 0v324h-754v223l693 907h389v-883h233v-247h-233v-324h-328zM360 571h449v449q0 107 6 170h-4q-24 -67 -88 -156l-262 -352q-43 -60 -101 -111z" />
    <glyph glyph-name="five.tf.case" 
d="M698 -39q-245 0 -402.5 113.5t-182.5 306.5l336 43q19 -93 88 -147t172 -54q118 0 182.5 70t64.5 194q0 125 -61 196t-180 71q-91 0 -157 -45.5t-93 -124.5l-303 28l88 842h962v-266h-712l-41 -350q54 70 145.5 111.5t212.5 41.5q227 0 357.5 -133.5t130.5 -365.5
q0 -241 -164.5 -386t-442.5 -145z" />
    <glyph glyph-name="six.tf.case" 
d="M817 989q237 0 372.5 -131.5t135.5 -365.5q0 -239 -161 -385t-427 -146q-307 0 -475 195.5t-168 552.5q0 374 170 581t479 207q234 0 382.5 -103t183.5 -290l-344 -51q-43 186 -234 186q-136 0 -212.5 -111.5t-82.5 -316.5q60 85 157 131.5t224 46.5zM735 219
q113 0 179.5 72.5t66.5 191.5q0 122 -64.5 191t-175.5 69q-105 0 -182 -61t-113 -168q23 -143 97 -219t192 -76z" />
    <glyph glyph-name="seven.tf.case" 
d="M389 0v29q0 315 146.5 609.5t414.5 532.5h-825v283h1182v-264q-529 -475 -529 -1127v-63h-389z" />
    <glyph glyph-name="eight.tf.case" 
d="M1042 803q154 -54 233 -147.5t79 -249.5q0 -205 -172 -325t-467 -120q-297 0 -469 112.5t-172 305.5q0 271 303 346q-128 49 -195 135.5t-67 222.5q0 185 166 299.5t430 114.5t424.5 -104t160.5 -283q0 -231 -254 -307zM707 1268q-115 0 -178.5 -50t-63.5 -137
q0 -76 58 -122t171 -72l121 -27q74 36 108.5 87t34.5 122q0 93 -65.5 146t-185.5 53zM721 209q129 0 204.5 55.5t75.5 149.5q0 88 -65.5 137.5t-196.5 79.5l-131 31q-93 -38 -136.5 -95t-43.5 -141q0 -101 77.5 -159t215.5 -58z" />
    <glyph glyph-name="nine.tf.case" 
d="M690 1495q308 0 474.5 -190.5t166.5 -550.5q0 -378 -162 -585.5t-477 -207.5q-237 0 -390 103.5t-189 295.5l344 58q25 -95 90 -144t162 -49q135 0 206 114t76 331q-58 -75 -151 -115.5t-213 -40.5q-247 0 -391 126.5t-144 348.5q0 229 161.5 367.5t436.5 138.5zM692 760
q108 0 187 57t106 150q-19 130 -92 204t-197 74q-118 0 -189 -67t-71 -183q0 -107 70.5 -171t185.5 -64z" />
    <glyph glyph-name="zero.zero.case" horiz-adv-x="1562" 
d="M780 1495q325 0 516 -204.5t191 -561.5t-191.5 -562.5t-515.5 -205.5t-514 205.5t-190 562.5t190 561.5t514 204.5zM780 1231q-158 0 -249 -129.5t-91 -372.5q0 -147 35 -254l555 627q-88 129 -250 129zM780 227q160 0 251 129.5t91 372.5q0 129 -28 232l-549 -623
q85 -111 235 -111z" />
    <glyph glyph-name="zero.tf.zero.case" 
d="M713 1497q149 0 267 -47t202.5 -140.5t129.5 -240.5t46 -340q-1 -383 -171.5 -575.5t-473.5 -192.5t-473 192.5t-170 573.5q0 383 170 576.5t473 193.5zM713 1245q-146 0 -216.5 -125t-70.5 -391q0 -132 14 -217l506 575q-68 158 -233 158zM713 211q147 0 217.5 125.5
t70.5 392.5q0 117 -12 203l-504 -572q69 -149 228 -149z" />
    <glyph glyph-name="zero.osf" horiz-adv-x="1492" 
d="M748 -39q-309 0 -497 163.5t-188 432.5q0 259 188.5 418.5t496.5 159.5q306 0 494 -161.5t188 -422.5q0 -264 -187.5 -427t-494.5 -163zM748 219q151 0 239 88.5t88 239.5t-87.5 238t-239.5 87q-153 0 -241.5 -85t-88.5 -234q0 -155 88.5 -244.5t241.5 -89.5z" />
    <glyph glyph-name="one.osf" horiz-adv-x="1355" 
d="M893 264h403v-264h-1179v264h432v443q-55 -45 -151 -75.5t-205 -33.5h-66v287h51q141 0 258.5 56t161.5 155h295v-832z" />
    <glyph glyph-name="two.osf" horiz-adv-x="1413" 
d="M76 227q359 117 567 211q145 76 202.5 137t57.5 138q0 75 -57 119.5t-152 44.5q-109 0 -168 -50t-59 -141q0 -41 4 -61l-360 37l-3 27t-2 28q0 187 163 302.5t429 115.5q267 0 419.5 -105t152.5 -289q0 -157 -158 -270q-164 -112 -457 -207h672v-264h-1251v227z" />
    <glyph glyph-name="three.osf" horiz-adv-x="1445" 
d="M711 -346q-305 0 -477.5 124t-178.5 351l357 29q7 -122 85.5 -183t215.5 -61q135 0 210.5 51.5t75.5 145.5q0 92 -71.5 136t-225.5 44h-116v223h114q129 0 196 46t67 134q0 86 -67 133t-191 47q-134 0 -208 -64t-75 -194l-350 41q1 148 80 256t222 165t335 57
q296 0 457 -105t161 -301q0 -121 -82.5 -204t-214.5 -109q160 -22 250 -110.5t90 -223.5q0 -198 -178 -313t-481 -115z" />
    <glyph glyph-name="four.osf" horiz-adv-x="1464" 
d="M844 -307v319h-821v230l776 854h393v-836h256v-248h-256v-319h-348zM356 260h488v381q0 111 4 172h-6q-39 -74 -94 -131l-287 -320q-72 -79 -105 -102z" />
    <glyph glyph-name="five.osf" horiz-adv-x="1435" 
d="M709 -346q-267 0 -439.5 109.5t-201.5 297.5l352 43q22 -92 97 -142t190 -50q138 0 215 68t77 190q0 111 -73.5 173.5t-204.5 62.5q-213 0 -291 -162l-317 26l92 826h1052v-267h-784l-45 -346q54 80 160.5 124t247.5 44q246 0 388 -127t142 -348q0 -235 -180.5 -378.5
t-476.5 -143.5z" />
    <glyph glyph-name="six.osf" horiz-adv-x="1452" 
d="M848 967q253 0 393.5 -128.5t140.5 -357.5q0 -231 -173.5 -375.5t-452.5 -144.5q-324 0 -503 191.5t-179 537.5q0 363 182 567.5t506 204.5q251 0 406.5 -101t193.5 -290l-346 -49q-50 182 -262 182q-156 0 -244 -109.5t-96 -310.5q135 183 434 183zM750 219
q130 0 207 68t77 184q0 117 -74 183.5t-206 66.5q-115 0 -201 -56.5t-127 -158.5q26 -139 109.5 -213t214.5 -74z" />
    <glyph glyph-name="seven.osf" horiz-adv-x="1261" 
d="M305 -307v28q0 302 149.5 581.5t428.5 510.5h-848v283h1204v-265q-545 -451 -545 -1075v-63h-389z" />
    <glyph glyph-name="eight.osf" horiz-adv-x="1468" 
d="M1085 784q168 -57 246 -150.5t78 -238.5q0 -200 -181.5 -317t-492.5 -117t-492.5 110t-181.5 298q0 264 312 340q-139 54 -205 139t-66 211q0 183 170 293t453 110q285 0 456 -102.5t171 -272.5q0 -229 -267 -303zM727 1233q-129 0 -201.5 -46t-72.5 -128q0 -72 62 -117
t202 -74l131 -26q82 35 119 83t37 119q0 89 -72.5 139t-204.5 50zM739 209q141 0 224.5 52.5t83.5 141.5q0 82 -67 131t-220 80l-144 31q-100 -37 -146 -92t-46 -137q0 -97 83.5 -152t231.5 -55z" />
    <glyph glyph-name="nine.osf" horiz-adv-x="1460" 
d="M711 1133q329 0 502 -186t173 -541q0 -369 -175.5 -560.5t-516.5 -191.5q-517 0 -610 362l338 54q50 -168 289 -168q332 0 338 432q-63 -77 -172 -119.5t-246 -42.5q-262 0 -411.5 125t-149.5 344q0 227 173 359.5t468 132.5zM705 418q119 0 208.5 54t126.5 144
q-23 128 -108 198.5t-221 70.5q-135 0 -214 -64.5t-79 -173.5q0 -105 77.5 -167t209.5 -62z" />
    <glyph glyph-name="one.ss02" horiz-adv-x="1312" 
d="M877 276h397v-276h-1182v276h432v697q-53 -50 -142.5 -78.5t-203.5 -28.5h-76v308h54q165 0 268.5 63t159.5 186h293v-1147z" />
    <glyph glyph-name="zero.tosf" 
d="M713 1135q290 0 472.5 -161.5t182.5 -428.5q0 -176 -83.5 -309.5t-231.5 -204t-340 -70.5q-293 0 -474.5 159.5t-181.5 426.5q0 176 84 310.5t232.5 206t339.5 71.5zM713 221q136 0 219.5 85t83.5 239q0 156 -83.5 242.5t-219.5 86.5q-134 0 -216.5 -85.5t-82.5 -241.5
t82.5 -241t216.5 -85zM57 547v2v-2zM1368 547v-2v2z" />
    <glyph glyph-name="one.tosf" 
d="M930 254h375v-254h-1133v254h414v467q-52 -48 -156 -82t-211 -35h-37v281h25q137 2 257 59t171 152h295v-842z" />
    <glyph glyph-name="two.tosf" 
d="M92 227q416 148 557 219q132 68 189 131.5t57 139.5q0 72 -53 117t-150 45q-104 0 -161.5 -47.5t-57.5 -135.5q0 -43 4 -63l-352 37q-4 46 -4 57q0 182 159 295t418 113q261 0 408 -104t147 -286q0 -165 -159 -280q-135 -100 -443 -201h660v-264h-1219v227z" />
    <glyph glyph-name="three.tosf" 
d="M715 -346q-287 0 -447 121t-166 340l357 28q13 -235 254 -235q113 0 177 50t64 140q0 195 -256 195h-100l2 221h90q108 0 171 51t63 140q0 81 -56 127.5t-161 46.5q-237 0 -240 -248l-352 39q0 211 156.5 338t441.5 127q275 0 423 -107t148 -303q0 -121 -85.5 -200.5
t-217.5 -104.5q160 -24 250 -111.5t90 -232.5q0 -188 -164.5 -305t-441.5 -117z" />
    <glyph glyph-name="four.tosf" 
d="M807 -307v319h-752v224l693 860h387v-836h239v-248h-239v-319h-328zM367 260h440v408q0 92 6 153h-4q-46 -86 -88 -137l-240 -299q-62 -79 -114 -125z" />
    <glyph glyph-name="five.tosf" 
d="M696 -346q-243 0 -400.5 111.5t-182.5 295.5l336 39q17 -85 86 -134.5t170 -49.5q118 0 184.5 68t66.5 182q0 112 -63 177t-178 65q-87 1 -154.5 -41t-95.5 -113l-307 29l88 813h966v-267h-712l-39 -335q52 72 144 113.5t218 41.5q223 0 352.5 -129.5t129.5 -345.5
q0 -235 -162 -377.5t-447 -142.5z" />
    <glyph glyph-name="six.tosf" 
d="M817 967q237 0 372.5 -129t135.5 -357q0 -234 -161 -377t-427 -143q-307 0 -475 190.5t-168 538.5q0 366 170 569t479 203q234 0 382.5 -100t183.5 -283l-344 -51q-43 176 -234 176q-136 0 -212.5 -106t-82.5 -303q60 81 157.5 126.5t223.5 45.5zM735 219q113 0 179.5 69
t66.5 183q0 119 -64.5 184.5t-175.5 65.5q-105 0 -181.5 -58.5t-110.5 -160.5q22 -138 95 -210.5t191 -72.5z" />
    <glyph glyph-name="seven.tosf" 
d="M389 -307v28q0 305 145.5 582.5t415.5 509.5h-825v283h1182v-265q-257 -223 -393 -484t-136 -591v-63h-389z" />
    <glyph glyph-name="eight.tosf" 
d="M1044 786q153 -52 231.5 -144.5t78.5 -246.5q0 -200 -171.5 -317t-467.5 -117q-297 0 -469 110t-172 298q0 266 303 338q-129 50 -195.5 134t-66.5 218q0 119 75.5 211t211 142t309.5 50q264 0 424.5 -101t160.5 -274q0 -227 -252 -301zM707 1233q-115 0 -178.5 -46.5
t-63.5 -129.5q0 -73 58 -118t171 -71l121 -26q75 35 109 83.5t34 118.5q0 89 -65.5 139t-185.5 50zM721 209q129 0 204.5 52.5t75.5 141.5q0 85 -65.5 133t-196.5 78l-133 29q-92 -37 -135 -92t-43 -135q0 -97 77.5 -152t215.5 -55z" />
    <glyph glyph-name="nine.tosf" 
d="M690 1135q310 0 475.5 -186.5t165.5 -534.5q0 -364 -163 -562t-476 -198q-242 0 -392 99.5t-187 283.5l344 55q48 -174 252 -174q136 0 207 106t73 302q-124 -150 -362 -150q-245 0 -390 124.5t-145 344.5q0 223 163 356.5t435 133.5zM698 424q102 0 178 49.5t109 132.5
q-14 131 -85.5 205t-203.5 74q-118 0 -189 -63.5t-71 -170.5q0 -104 72.5 -165.5t189.5 -61.5z" />
    <glyph glyph-name="zero.osf.zero" horiz-adv-x="1492" 
d="M748 1135q306 0 494 -161.5t188 -422.5q0 -264 -187.5 -427t-494.5 -163q-309 0 -497 163.5t-188 432.5q0 259 188.5 418.5t496.5 159.5zM748 872q-153 0 -241.5 -85t-88.5 -234q0 -119 53 -199l485 457q-83 61 -208 61zM748 219q151 0 239 88.5t88 239.5q0 114 -49 190
l-485 -458q85 -60 207 -60z" />
    <glyph glyph-name="zero.tf.zero" 
d="M713 1462q304 0 474 -188t171 -563q-1 -373 -171.5 -561.5t-473.5 -188.5t-473 188.5t-170 561.5q0 374 170 562.5t473 188.5zM713 1212q-146 0 -216.5 -121t-70.5 -380q0 -124 14 -207l502 565q-69 143 -229 143zM713 211q147 0 217.5 121t70.5 379q0 124 -14 207
l-502 -566q69 -141 228 -141z" />
    <glyph glyph-name="zero.tosf.zero" 
d="M713 1135q290 0 472.5 -161.5t182.5 -428.5q0 -176 -83.5 -309.5t-231.5 -204t-340 -70.5q-293 0 -474.5 159.5t-181.5 426.5q0 176 84 310.5t232.5 206t339.5 71.5zM713 874q-134 0 -216.5 -85.5t-82.5 -241.5q0 -105 39 -178l462 436q-81 69 -202 69zM713 221
q136 0 219.5 85t83.5 239q0 102 -39 178l-461 -436q78 -66 197 -66zM57 547v2v-2zM1368 547v-2v2z" />
    <glyph glyph-name="zero.subs" horiz-adv-x="1216" 
d="M608 -315q-246 0 -392 144t-146 402q0 260 146 404.5t392 144.5q247 0 393 -144.5t146 -404.5q0 -259 -146 -402.5t-393 -143.5zM608 -94q103 0 165.5 81.5t62.5 243.5q0 163 -62.5 245.5t-165.5 82.5q-104 0 -165.5 -81.5t-61.5 -246.5q0 -163 61.5 -244t165.5 -81z" />
    <glyph glyph-name="one.subs" horiz-adv-x="790" 
d="M319 -287v674q-73 -70 -217 -70h-51v261h31q114 0 184 42t107 132h248v-1039h-302z" />
    <glyph glyph-name="two.subs" horiz-adv-x="1122" 
d="M70 -287v205q274 133 348 174q207 117 264 222q27 50 27 102q0 66 -41 104.5t-119 38.5q-80 0 -127 -40.5t-47 -115.5q0 -21 8 -61l-309 27q-4 46 -4 67q0 159 134 251.5t351 92.5q222 0 348.5 -87.5t126.5 -250.5q0 -72 -27 -136t-71.5 -113.5t-114 -96.5t-142 -83
t-167.5 -74h536v-226h-974z" />
    <glyph glyph-name="three.subs" horiz-adv-x="1124" 
d="M553 -315q-230 0 -362.5 95.5t-135.5 264.5l307 25q1 -81 52.5 -125.5t140.5 -44.5q85 0 133.5 34t48.5 95q0 116 -192 116h-86v181h84q85 0 130.5 30t45.5 88t-45 90.5t-125 32.5q-87 0 -135 -43t-49 -127l-304 29q2 161 134 257.5t360 96.5q225 0 350 -79t125 -224
q0 -95 -68 -155t-176 -76q130 -15 199.5 -78.5t69.5 -167.5q0 -144 -137 -229.5t-365 -85.5z" />
    <glyph glyph-name="four.subs" horiz-adv-x="1161" 
d="M1124 -72h-190v-215h-293v215h-602v195l567 629h328v-617h190v-207zM641 518l-332 -383h332v383z" />
    <glyph glyph-name="five.subs" horiz-adv-x="1103" 
d="M545 -315q-199 0 -327.5 82t-151.5 225l290 41q12 -61 62.5 -96t124.5 -35q90 0 140 43t50 118q0 77 -49 120.5t-135 43.5q-69 0 -118.5 -28.5t-68.5 -79.5l-266 22l68 611h805v-215h-580l-27 -213q79 102 281 102q184 0 289.5 -94.5t105.5 -259.5q0 -180 -132 -283.5
t-361 -103.5z" />
    <glyph glyph-name="six.subs" horiz-adv-x="1136" 
d="M674 420q186 0 291.5 -91.5t105.5 -260.5q0 -171 -133.5 -277t-349.5 -106q-246 0 -382 139t-136 391q0 264 139.5 414.5t386.5 150.5q193 0 309.5 -71t145.5 -207l-291 -35q-15 55 -60.5 86t-113.5 31q-98 0 -156 -70.5t-70 -208.5q103 115 314 115zM582 -102
q89 0 141.5 43t52.5 116q0 75 -51 119.5t-137 44.5q-73 0 -129.5 -33t-87.5 -92q36 -198 211 -198z" />
    <glyph glyph-name="seven.subs" horiz-adv-x="995" 
d="M246 -287v23q0 225 110.5 426.5t313.5 355.5h-627v234h913v-222q-186 -153 -285.5 -336.5t-99.5 -426.5v-54h-325z" />
    <glyph glyph-name="eight.subs" horiz-adv-x="1150" 
d="M854 293q122 -41 179 -112t57 -179q0 -147 -139 -232t-380 -85q-235 0 -373.5 80.5t-138.5 216.5q0 182 230 239q-103 38 -152 101t-49 157q0 137 129.5 219t347.5 82q221 0 351.5 -73.5t130.5 -198.5q0 -81 -47 -133.5t-146 -81.5zM567 592q-86 0 -135 -30.5t-49 -84.5
q0 -46 45.5 -76t144.5 -49l97 -16q84 43 84 127q0 61 -49.5 95t-137.5 34zM578 -113q92 0 147 35t55 92q0 53 -46.5 85.5t-151.5 54.5l-97 18q-114 -45 -114 -149q0 -63 55 -99.5t152 -36.5z" />
    <glyph glyph-name="nine.subs" horiz-adv-x="1136" 
d="M549 780q251 0 384.5 -133.5t133.5 -392.5q0 -278 -133 -423.5t-393 -145.5q-186 0 -307 74.5t-150 209.5l291 39q15 -55 63 -86t117 -31q99 0 155 66t66 209q-94 -94 -291 -94q-196 0 -307.5 94t-111.5 252q0 165 130 263.5t353 98.5zM551 274q71 0 129 27.5t90 77.5
q-18 107 -71 154t-142 47q-91 0 -144 -42.5t-53 -115.5q0 -65 52.5 -106.5t138.5 -41.5z" />
    <glyph glyph-name="zero.dnom" horiz-adv-x="987" 
d="M494 -23q-197 0 -312.5 113.5t-115.5 310.5q0 198 115 311t313 113q199 0 314.5 -113t115.5 -311q0 -197 -115.5 -310.5t-314.5 -113.5zM494 143q97 0 150.5 66t53.5 192q0 127 -53.5 192.5t-150.5 65.5t-151 -66t-54 -192t54 -192t151 -66z" />
    <glyph glyph-name="one.dnom" horiz-adv-x="624" 
d="M262 0v522q-48 -37 -164 -37h-49v189h31q163 0 217 129h180v-803h-215z" />
    <glyph glyph-name="two.dnom" horiz-adv-x="890" 
d="M57 0v158q73 32 118 52.5t106 50.5t98 52.5t78.5 52t63.5 56.5t37 58.5t15 64.5q0 54 -37 83t-106 29q-66 0 -106.5 -31t-40.5 -89q0 -18 8 -54l-223 21q-7 35 -7 53q0 123 104 195.5t271 72.5q172 0 271.5 -69t99.5 -197q0 -59 -25 -112t-63 -92t-94.5 -74.5t-107.5 -59
t-114 -47.5h414v-174h-760z" />
    <glyph glyph-name="three.dnom" horiz-adv-x="899" 
d="M444 -23q-179 0 -284 73t-109 200l219 20q4 -64 50 -96.5t126 -32.5q75 0 117.5 25t42.5 74q0 50 -38.5 70t-133.5 20h-74v151h76q150 0 150 92q0 45 -39.5 68t-108.5 23q-158 0 -164 -140l-213 29q3 126 106.5 199t281.5 73q168 0 264 -59t96 -168q0 -72 -49 -119
t-133 -61q106 -17 156.5 -62.5t50.5 -126.5q0 -117 -106.5 -184.5t-283.5 -67.5z" />
    <glyph glyph-name="four.dnom" horiz-adv-x="905" 
d="M881 170h-154v-170h-211v170h-483v141l448 492h246v-479h154v-154zM516 627l-272 -303h272v303z" />
    <glyph glyph-name="five.dnom" horiz-adv-x="884" 
d="M440 -23q-155 0 -256 63t-121 171l216 31q12 -46 55 -72.5t110 -26.5q75 0 116.5 32.5t41.5 92.5q0 63 -40.5 99t-115.5 36q-121 0 -159 -84l-199 17l55 467h627v-158h-463l-24 -168q67 80 229 80q147 0 229 -75t82 -208q0 -137 -102.5 -217t-280.5 -80z" />
    <glyph glyph-name="six.dnom" horiz-adv-x="901" 
d="M520 545q150 0 235 -71.5t85 -201.5q0 -133 -103.5 -214t-269.5 -81q-194 0 -299 109t-105 299q0 210 109 325t303 115q148 0 240.5 -51.5t115.5 -150.5l-215 -35q-18 44 -53.5 63t-91.5 19q-89 0 -139 -50.5t-60 -160.5q80 86 248 86zM465 139q73 0 116.5 34t43.5 93
q0 57 -42.5 90t-115.5 33q-130 0 -186 -96q37 -154 184 -154z" />
    <glyph glyph-name="seven.dnom" horiz-adv-x="782" 
d="M37 625v178h715v-160q-149 -116 -233.5 -279.5t-90.5 -351.5v-12h-242v4q6 168 96 334.5t244 286.5h-489z" />
    <glyph glyph-name="eight.dnom" horiz-adv-x="921" 
d="M690 442q92 -34 133 -85t41 -130q0 -114 -109.5 -182t-293.5 -68t-294 63.5t-110 168.5q0 147 170 194q-141 62 -141 191q0 105 101.5 168t271.5 63q169 0 269.5 -58.5t100.5 -156.5q0 -123 -139 -168zM457 682q-74 0 -115 -22.5t-41 -63.5q0 -36 36.5 -59.5t115.5 -38.5
l75 -17q86 41 86 107q0 45 -40.5 69.5t-116.5 24.5zM465 131q79 0 127.5 28t48.5 72q0 39 -36.5 63.5t-123.5 43.5l-94 20q-57 -20 -81.5 -47.5t-24.5 -70.5q0 -48 50 -78.5t134 -30.5z" />
    <glyph glyph-name="nine.dnom" horiz-adv-x="903" 
d="M438 825q197 0 299.5 -105.5t102.5 -301.5q0 -207 -103.5 -324t-302.5 -117q-147 0 -243 58.5t-121 163.5l215 37q32 -95 157 -95q167 0 185 209q-82 -67 -232 -67q-155 0 -244.5 69.5t-89.5 194.5q0 126 103.5 202t273.5 76zM436 438q124 0 185 74q-30 158 -181 158
q-74 0 -117.5 -32t-43.5 -89q0 -51 42 -81t115 -30z" />
    <glyph glyph-name="zero.numr" horiz-adv-x="987" 
d="M494 629q-197 0 -312.5 113.5t-115.5 310.5q0 198 115 311t313 113q199 0 314.5 -113t115.5 -311q0 -197 -115.5 -310.5t-314.5 -113.5zM494 795q97 0 150.5 66t53.5 192q0 127 -53.5 192.5t-150.5 65.5t-151 -66t-54 -192t54 -192t151 -66z" />
    <glyph glyph-name="one.numr" horiz-adv-x="624" 
d="M262 651v523q-48 -37 -164 -37h-49v188h31q163 0 217 129h180v-803h-215z" />
    <glyph glyph-name="two.numr" horiz-adv-x="890" 
d="M57 651v158q73 32 118 52.5t106 50.5t98 52.5t78.5 52t63.5 56.5t37 58.5t15 64.5q0 54 -37 83.5t-106 29.5q-65 0 -106 -31.5t-41 -89.5q0 -17 8 -53l-223 20q-7 35 -7 53q0 123 104.5 196t270.5 73q172 0 271.5 -69.5t99.5 -197.5q0 -59 -25 -112t-63 -92t-94.5 -74.5
t-107.5 -59t-114 -47.5h414v-174h-760z" />
    <glyph glyph-name="three.numr" horiz-adv-x="899" 
d="M444 629q-179 0 -284 72.5t-109 199.5l219 21q4 -64 50 -96.5t126 -32.5q75 0 117.5 24.5t42.5 73.5q0 50 -38.5 70t-133.5 20h-74v152h76q150 0 150 92q0 45 -39.5 67.5t-108.5 22.5q-158 0 -164 -139l-213 28q3 126 106.5 199.5t281.5 73.5q168 0 264 -59.5t96 -168.5
q0 -72 -49 -119t-133 -61q106 -17 156.5 -62t50.5 -126q0 -117 -106.5 -184.5t-283.5 -67.5z" />
    <glyph glyph-name="four.numr" horiz-adv-x="905" 
d="M881 821h-154v-170h-211v170h-483v142l448 491h246v-479h154v-154zM516 1278l-272 -303h272v303z" />
    <glyph glyph-name="five.numr" horiz-adv-x="884" 
d="M440 629q-155 0 -256 62.5t-121 170.5l216 31q12 -45 55 -71.5t110 -26.5q75 0 116.5 32.5t41.5 92.5q0 63 -40.5 99t-115.5 36q-121 0 -159 -84l-199 16l55 467h627v-158h-463l-24 -168q67 80 229 80q147 0 229 -75t82 -207q0 -137 -102.5 -217t-280.5 -80z" />
    <glyph glyph-name="six.numr" horiz-adv-x="901" 
d="M520 1196q150 0 235 -71t85 -201q0 -133 -103.5 -214t-269.5 -81q-194 0 -299 108.5t-105 298.5q0 210 109 325.5t303 115.5q148 0 240.5 -52t115.5 -151l-215 -35q-18 44 -53.5 63t-91.5 19q-89 0 -139 -50.5t-60 -160.5q80 86 248 86zM465 791q73 0 116.5 34t43.5 93
q0 57 -42 89.5t-116 32.5q-130 0 -186 -96q37 -153 184 -153z" />
    <glyph glyph-name="seven.numr" horiz-adv-x="782" 
d="M37 1276v178h715v-160q-149 -116 -233.5 -279t-90.5 -351v-13h-242v4q6 168 96 334.5t244 286.5h-489z" />
    <glyph glyph-name="eight.numr" horiz-adv-x="921" 
d="M690 1094q92 -34 133 -85t41 -130q0 -114 -109.5 -182t-293.5 -68t-294 63t-110 168q0 148 170 195q-141 62 -141 190q0 105 101.5 168.5t271.5 63.5q169 0 269.5 -58.5t100.5 -156.5q0 -123 -139 -168zM457 1333q-74 0 -115 -22.5t-41 -63.5q0 -36 36.5 -59.5
t115.5 -38.5l75 -16q86 41 86 106q0 45 -40.5 69.5t-116.5 24.5zM465 782q79 0 127.5 28t48.5 73q0 39 -36.5 63t-123.5 43l-94 21q-57 -20 -81.5 -48t-24.5 -71q0 -48 50 -78.5t134 -30.5z" />
    <glyph glyph-name="nine.numr" horiz-adv-x="903" 
d="M438 1477q197 0 299.5 -106t102.5 -302q0 -207 -103.5 -323.5t-302.5 -116.5q-148 0 -243.5 58.5t-120.5 162.5l215 37q32 -94 157 -94q85 0 130.5 51t54.5 157q-82 -67 -232 -67q-155 0 -244.5 69.5t-89.5 194.5q0 126 103.5 202.5t273.5 76.5zM436 1090q125 0 185 73
q-30 158 -181 158q-74 0 -117.5 -32t-43.5 -89q0 -51 42 -80.5t115 -29.5z" />
    <glyph glyph-name="zero.sups" horiz-adv-x="1216" 
d="M608 606q-246 0 -392 144.5t-146 402.5q0 260 146 404.5t392 144.5q247 0 393 -144.5t146 -404.5q0 -259 -146 -403t-393 -144zM608 827q103 0 165.5 82t62.5 244q0 163 -62.5 245.5t-165.5 82.5q-104 0 -165.5 -81.5t-61.5 -246.5q0 -163 61.5 -244.5t165.5 -81.5z" />
    <glyph glyph-name="one.sups" horiz-adv-x="790" 
d="M319 635v674q-73 -70 -217 -70h-51v260h31q114 0 184 42t107 132h248v-1038h-302z" />
    <glyph glyph-name="two.sups" horiz-adv-x="1122" 
d="M70 635v205q274 133 344 172q208 116 266 220q29 51 29 105q0 66 -41 105t-119 39q-80 0 -127 -40.5t-47 -115.5q0 -21 8 -61l-309 26q-4 46 -4 68q0 159 134 251.5t351 92.5q222 0 348.5 -87.5t126.5 -250.5q0 -72 -27 -136t-71.5 -114t-113.5 -97t-142 -83t-168 -74
h536v-225h-974z" />
    <glyph glyph-name="three.sups" horiz-adv-x="1124" 
d="M553 606q-230 0 -362.5 96t-135.5 265l307 24q1 -81 52.5 -125.5t140.5 -44.5q85 0 133.5 34t48.5 95q0 117 -192 117h-86v180h84q85 0 130.5 30.5t45.5 88.5t-45 90.5t-125 32.5q-87 0 -135 -43t-49 -127l-304 29q2 161 134 257.5t360 96.5q225 0 350 -79t125 -224
q0 -95 -68 -155.5t-176 -76.5q131 -15 200 -78t69 -167q0 -144 -137 -230t-365 -86z" />
    <glyph glyph-name="four.sups" horiz-adv-x="1161" 
d="M1124 850h-190v-215h-293v215h-602v194l567 629h328v-616h190v-207zM641 1440l-332 -383h332v383z" />
    <glyph glyph-name="five.sups" horiz-adv-x="1103" 
d="M545 606q-199 0 -327.5 82t-151.5 225l290 41q12 -61 62.5 -96t124.5 -35q90 0 140 43t50 119q0 77 -49 120.5t-135 43.5q-69 0 -118.5 -29t-68.5 -80l-266 23l68 610h805v-215h-580l-27 -213q80 103 281 103q184 0 289.5 -95t105.5 -260q0 -180 -132 -283.5t-361 -103.5
z" />
    <glyph glyph-name="six.sups" horiz-adv-x="1136" 
d="M674 1341q186 0 291.5 -91.5t105.5 -260.5q0 -171 -133.5 -277t-349.5 -106q-246 0 -382 139.5t-136 391.5q0 264 139.5 414.5t386.5 150.5q192 0 309 -71.5t146 -207.5l-291 -34q-15 55 -60.5 85.5t-113.5 30.5q-98 0 -156 -70t-70 -208q102 114 314 114zM582 819
q89 0 141.5 43t52.5 117q0 75 -51 119.5t-137 44.5q-73 0 -129.5 -33t-87.5 -92q36 -199 211 -199z" />
    <glyph glyph-name="seven.sups" horiz-adv-x="995" 
d="M246 635v22q0 225 110.5 427t313.5 356h-627v233h913v-221q-186 -153 -285.5 -337t-99.5 -427v-53h-325z" />
    <glyph glyph-name="eight.sups" horiz-adv-x="1150" 
d="M854 1214q122 -41 179 -111.5t57 -178.5q0 -147 -139 -232.5t-380 -85.5q-235 0 -373.5 80.5t-138.5 216.5q0 183 230 240q-103 38 -152 101t-49 157q0 137 129.5 219t347.5 82q221 0 351.5 -73.5t130.5 -198.5q0 -81 -47 -134t-146 -82zM567 1513q-86 0 -135 -30
t-49 -84q0 -46 45.5 -76t144.5 -49l97 -17q84 43 84 127q0 61 -49.5 95t-137.5 34zM578 809q92 0 147 35t55 92q0 52 -46 84.5t-152 54.5l-97 19q-114 -45 -114 -150q0 -63 55 -99t152 -36z" />
    <glyph glyph-name="nine.sups" horiz-adv-x="1136" 
d="M549 1702q251 0 384.5 -133.5t133.5 -392.5q0 -278 -133 -424t-393 -146q-186 0 -307 75t-150 210l291 39q15 -55 63 -86t117 -31q100 0 155.5 65.5t65.5 208.5q-94 -94 -291 -94q-196 0 -307.5 94t-111.5 252q0 165 130 264t353 99zM551 1196q72 0 129.5 27t89.5 77
q-18 107 -71 154t-142 47q-91 0 -144 -42.5t-53 -115.5q0 -65 52.5 -106t138.5 -41z" />
    <glyph glyph-name="backslash.case" horiz-adv-x="1224" 
d="M819 -174l-733 1796h320l733 -1796h-320z" />
    <glyph glyph-name="periodcentered.case" horiz-adv-x="632" 
d="M506 920v-334h-379v334h379z" />
    <glyph glyph-name="bullet.case" horiz-adv-x="786" 
d="M391 496q-115 0 -189.5 72t-74.5 188q0 117 74.5 190.5t189.5 73.5q118 0 192 -72t74 -192q0 -116 -74 -188t-192 -72z" />
    <glyph glyph-name="colon.case" horiz-adv-x="632" 
d="M506 1126v-333h-379v333h379zM506 334v-334h-379v334h379z" />
    <glyph glyph-name="exclamdown.case" horiz-adv-x="741" 
d="M565 1169h-391v316h391v-316zM225 1004h289l55 -1004h-397z" />
    <glyph glyph-name="questiondown.case" horiz-adv-x="1316" 
d="M874 1466v-315h-385v315h385zM854 1038v-86q0 -81 -37.5 -143.5t-126.5 -112.5l-139 -75q-75 -42 -111.5 -91.5t-36.5 -123.5q0 -87 67 -142t185 -55q130 0 205.5 60.5t75.5 172.5q0 61 -12 101l348 -29q12 -49 12 -111q0 -203 -169 -324.5t-460 -121.5
q-285 0 -448.5 112t-163.5 306q0 123 62 212t174 158l129 74q60 36 83 72.5t23 91.5v55h340z" />
    <glyph glyph-name="semicolon.case" horiz-adv-x="632" 
d="M506 1126v-333h-379v333h379zM213 -324l-57 142q90 24 124.5 64.5t34.5 111.5v6h-180v348h371v-325q0 -283 -293 -347z" />
    <glyph glyph-name="slash.case" horiz-adv-x="1224" 
d="M406 -174h-320l733 1796h320z" />
    <glyph glyph-name="underscore.case" horiz-adv-x="1138" 
d="M0 -41h1139v-192h-1139v192z" />
    <glyph glyph-name="asterisk.ss04" horiz-adv-x="561" 
d="M283 1454l-64 -190h-199l162 -117l-61 -191l162 117l161 -117l-63 191l162 117h-199z" />
    <glyph glyph-name="braceleft.case" horiz-adv-x="819" 
d="M614 -172q-199 0 -292 76.5t-93 245.5v290q0 51 -6 82.5t-24.5 58t-55 39t-94.5 13.5v217q60 1 95.5 11.5t53.5 35.5t23.5 55t5.5 84v271q0 155 100.5 238t286.5 83h170v-235h-77q-83 0 -121.5 -38.5t-38.5 -121.5v-193q0 -124 -43.5 -196.5t-159.5 -100.5
q115 -32 159 -109t44 -202v-221q0 -80 36 -112.5t115 -32.5h90v-238h-174z" />
    <glyph glyph-name="braceright.case" horiz-adv-x="819" 
d="M205 -172h-174v238h90q79 0 115 32.5t36 112.5v221q0 125 44 202t159 109q-116 28 -159.5 100.5t-43.5 196.5v193q0 83 -38 121.5t-121 38.5h-78v235h170q186 0 286.5 -83t100.5 -238v-271q0 -54 5.5 -84t23.5 -55t53.5 -35.5t95.5 -11.5v-217q-58 -1 -94.5 -13.5
t-55 -39t-24.5 -58t-6 -82.5v-290q0 -169 -93 -245.5t-292 -76.5z" />
    <glyph glyph-name="bracketleft.case" horiz-adv-x="798" 
d="M168 -170v1794h600v-233h-281v-1325h281v-236h-600z" />
    <glyph glyph-name="bracketright.case" horiz-adv-x="798" 
d="M631 -170h-600v236h280v1325h-280v233h600v-1794z" />
    <glyph glyph-name="parenleft.case" horiz-adv-x="786" 
d="M516 -223q-190 192 -295.5 440.5t-105.5 513.5q0 268 105.5 510t297.5 428l260 -104q-172 -190 -253 -395.5t-81 -440.5q0 -471 336 -846z" />
    <glyph glyph-name="parenright.case" horiz-adv-x="786" 
d="M270 -223l-264 106q336 375 336 846q0 235 -81 440.5t-253 395.5l260 104q192 -186 298 -428t106 -510q0 -265 -105.5 -513.5t-296.5 -440.5z" />
    <glyph glyph-name="parenleft.subs" horiz-adv-x="655" 
d="M424 -496q-137 142 -215 322.5t-78 374.5q0 195 78.5 370.5t218.5 313.5l225 -80q-245 -269 -245 -606q0 -339 245 -617z" />
    <glyph glyph-name="parenright.subs" horiz-adv-x="655" 
d="M231 -496l-229 80q246 276 246 615q0 336 -246 606l225 80q140 -138 218.5 -313.5t78.5 -370.5q0 -194 -78 -374.5t-215 -322.5z" />
    <glyph glyph-name="parenleft.sups" horiz-adv-x="655" 
d="M424 426q-137 142 -215 322.5t-78 373.5q0 195 78.5 370.5t218.5 313.5l225 -80q-245 -269 -245 -606q0 -339 245 -614z" />
    <glyph glyph-name="parenright.sups" horiz-adv-x="655" 
d="M231 426l-229 80q246 276 246 614q0 336 -246 606l225 80q140 -138 218.5 -313.5t78.5 -370.5q0 -193 -78 -373.5t-215 -322.5z" />
    <glyph glyph-name="emdash.case" horiz-adv-x="1949" 
d="M92 852h1763v-272h-1763v272z" />
    <glyph glyph-name="endash.case" horiz-adv-x="1435" 
d="M92 850h1251v-268h-1251v268z" />
    <glyph glyph-name="hyphen.case" horiz-adv-x="1028" 
d="M92 856h844v-278h-844v278z" />
    <glyph glyph-name="guillemotleft.case" horiz-adv-x="1341" 
d="M440 285l-399 428l408 422h315l-402 -420l398 -430h-320zM983 285l-399 428l407 422h316l-402 -420l398 -430h-320z" />
    <glyph glyph-name="guillemotright.case" horiz-adv-x="1341" 
d="M358 285h-319l397 430l-401 420h315l408 -422zM901 285h-319l397 430l-401 420h315l407 -422z" />
    <glyph glyph-name="guilsinglleft.case" horiz-adv-x="798" 
d="M440 285l-399 428l408 422h315l-402 -420l398 -430h-320z" />
    <glyph glyph-name="guilsinglright.case" horiz-adv-x="798" 
d="M358 285h-319l397 430l-401 420h315l408 -422z" />
    <glyph glyph-name="currency.case" horiz-adv-x="1277" 
d="M1194 723q0 -167 -96 -293l121 -119l-148 -139l-135 129q-128 -61 -289 -61q-173 0 -305 69l-139 -135l-148 139l131 129q-88 117 -88 281q0 159 88 281l-131 131l148 139l143 -135q131 67 301 67q161 0 289 -61l139 131l148 -139l-125 -123q96 -123 96 -291zM647 471
q127 0 204 68.5t77 183.5q0 114 -77 182t-204 68t-206 -68.5t-79 -181.5q0 -115 79 -183.5t206 -68.5z" />
    <glyph glyph-name="dollar.case" horiz-adv-x="1492" 
d="M1440 428q0 -204 -167.5 -327.5t-459.5 -135.5v-160h-139v160q-242 12 -416.5 100t-257.5 240l262 172q128 -225 412 -256v406l-133 20q-453 77 -453 420q0 189 155 302.5t431 123.5v154h139v-154q401 -21 600 -287l-235 -184q-110 193 -365 223v-364l150 -21
q248 -40 362.5 -143t114.5 -289zM414 1085q0 -77 58 -118t202 -66v350q-260 -12 -260 -166zM813 215q142 6 217.5 55t75.5 138q0 84 -59 127t-199 67l-35 4v-391z" />
    <glyph glyph-name="Euro.case" horiz-adv-x="1671" 
d="M1298 459l330 -103q-89 -189 -268.5 -292t-435.5 -103q-310 0 -504.5 153t-251.5 414h-158v136h137q-2 27 -2 79q0 36 2 54h-137v137h154q55 260 256 410.5t518 150.5q256 0 436.5 -100.5t251.5 -276.5l-336 -100q-44 98 -134.5 152.5t-223.5 54.5q-162 0 -262.5 -76
t-139.5 -215h596v-137h-616q-2 -16 -2 -52q0 -27 4 -81h614v-136h-587q42 -140 143 -217.5t254 -77.5q128 0 221 59t141 167z" />
    <glyph glyph-name="sterling.case" horiz-adv-x="1515" 
d="M1176 418l325 -45q-29 -191 -152 -299.5t-309 -108.5q-102 0 -269.5 29t-297.5 29q-182 0 -389 -39l-66 188q149 43 221 128.5t72 219.5q0 78 -12 142h-215v167h178q-22 104 -22 187q0 226 153.5 352.5t423.5 126.5q253 0 403.5 -98t190.5 -287l-334 -68
q-19 98 -84 151.5t-168 53.5q-122 0 -183.5 -58t-61.5 -169q0 -93 24 -191h428v-167h-393q6 -47 6 -101q0 -224 -205 -311q79 20 172 20q68 0 181.5 -17t181.5 -17q84 0 136.5 47.5t64.5 134.5z" />
    <glyph glyph-name="currency.tf.case" 
d="M1268 723q0 -167 -97 -291l121 -121l-147 -139l-135 129q-128 -61 -289 -61q-175 0 -305 71l-137 -137l-150 139l133 131q-88 117 -88 279q0 159 88 281l-133 131l150 139l141 -137q129 69 301 69q165 0 291 -63l137 133l149 -139l-127 -123q97 -124 97 -291zM721 471
q127 0 205 68.5t78 183.5q0 113 -78 181.5t-205 68.5t-205 -68.5t-78 -181.5q0 -115 78 -183.5t205 -68.5z" />
    <glyph glyph-name="dollar.tf.case" 
d="M1356 418q0 -212 -146.5 -329t-416.5 -126v-158h-113v160q-238 13 -398 115t-223 278l291 121q87 -228 330 -262v389l-129 25q-213 45 -318.5 156t-105.5 280q0 194 145.5 306.5t407.5 119.5v154h113v-156q214 -14 352.5 -104.5t189.5 -251.5l-270 -117q-56 198 -272 225
v-371l163 -34q207 -43 303.5 -143.5t96.5 -276.5zM657 901l23 -4v352q-227 -12 -227 -170q0 -74 48 -115t156 -63zM793 211q120 3 177.5 46.5t57.5 133.5q0 77 -45 118.5t-149 65.5l-41 9v-373z" />
    <glyph glyph-name="Euro.tf.case" 
d="M807 221q177 0 252 221l313 -100q-60 -182 -210 -281.5t-363 -99.5q-269 0 -428 154t-195 420h-131v135h119v32v95v6h-119v133h129q36 261 203 410t438 149q211 0 358.5 -93.5t200.5 -273.5l-319 -100q-34 106 -93 159.5t-155 53.5q-241 0 -279 -305h402v-133h-408v-115
v-18h408v-135h-398q41 -314 275 -314z" />
    <glyph glyph-name="sterling.tf.case" 
d="M1044 418l326 -45q-27 -194 -146 -301t-294 -107q-83 0 -220 29t-243 29q-169 0 -352 -39l-66 192q264 83 264 352q0 73 -12 134h-197v167h156q-31 122 -31 205q0 216 143.5 338.5t391.5 122.5q232 0 369 -97.5t172 -287.5l-324 -68q-15 103 -70.5 157t-144.5 54
q-205 0 -205 -213q0 -89 31 -211h330v-167h-293q6 -46 6 -99q0 -113 -56.5 -194t-158.5 -123q71 14 149 14q57 0 148.5 -15.5t146.5 -15.5q74 0 122 48.5t58 140.5z" />
    <glyph glyph-name="yen.tf.case" 
d="M1395 1454l-473 -792h348v-144h-381v-133h381v-143h-381v-242h-352v242h-379v143h379v133h-379v144h346l-471 792h383l246 -483q33 -63 49 -129h4q19 68 51 129l246 483h383z" />
    <glyph glyph-name="yen.case" horiz-adv-x="1513" 
d="M1524 1454l-561 -805h415v-145h-446v-123h446v-145h-446v-236h-352v236h-441v145h441v123h-441v145h410l-559 805h397l256 -393q79 -133 113 -211h6q37 85 112 211l261 393h389z" />
    <glyph glyph-name="currency.tf" 
d="M1268 621q0 -167 -97 -291l121 -121l-147 -139l-135 129q-130 -62 -289 -62q-173 0 -305 72l-137 -137l-150 139l133 131q-88 117 -88 279q0 158 88 280l-133 131l150 139l141 -137q131 70 301 70q163 0 291 -64l137 134l149 -140l-127 -123q97 -124 97 -290zM721 369
q127 0 205 68.5t78 183.5q0 113 -78 181t-205 68t-205 -68t-78 -181q0 -115 78 -183.5t205 -68.5z" />
    <glyph glyph-name="plus.case" horiz-adv-x="1269" 
d="M1178 887v-221h-422v-394h-244v394h-420v221h420v370h244v-370h422z" />
    <glyph glyph-name="minus.case" horiz-adv-x="1269" 
d="M92 662v227h1086v-227h-1086z" />
    <glyph glyph-name="multiply.case" 
d="M1274 1135l-389 -363l387 -362l-166 -166l-393 368l-394 -366l-165 162l389 362l-389 365l168 161l391 -364l391 364z" />
    <glyph glyph-name="divide.case" horiz-adv-x="1269" 
d="M631 999q-63 0 -104.5 41t-41.5 105q0 65 41 106t105 41t105.5 -40.5t41.5 -106.5q0 -63 -42 -104.5t-105 -41.5zM92 662v223h1086v-223h-1086zM631 248q-64 0 -105 41t-41 106t41 105.5t105 40.5t105.5 -40.5t41.5 -105.5q0 -64 -42 -105.5t-105 -41.5z" />
    <glyph glyph-name="equal.case" horiz-adv-x="1257" 
d="M92 864v217h1073v-217h-1073zM92 471v217h1073v-217h-1073z" />
    <glyph glyph-name="notequal.case" 
d="M1212 864h-385l-77 -176h462v-217h-561l-106 -240h-174l106 240h-338v217h436l78 176h-514v217h611l104 232h174l-104 -232h288v-217z" />
    <glyph glyph-name="greater.case" 
d="M231 248v252l764 272l-764 272v248l1047 -409v-226z" />
    <glyph glyph-name="less.case" 
d="M1196 248l-1046 409v226l1046 409v-248l-764 -272l764 -272v-252z" />
    <glyph glyph-name="greaterequal.case" 
d="M209 383v252l764 272l-764 273v247l1046 -409v-225zM1251 315v-213h-1044v213h1044z" />
    <glyph glyph-name="lessequal.case" 
d="M1219 383l-1047 410v225l1047 409v-247l-764 -273l764 -272v-252zM176 315h1045v-213h-1045v213z" />
    <glyph glyph-name="plusminus.case" 
d="M834 913h423v-223h-423v-301h-244v301h-422v223h422v314h244v-314zM168 102v220h1089v-220h-1089z" />
    <glyph glyph-name="approxequal.case" 
d="M981 809q-61 0 -137.5 20t-136.5 44.5t-131 44.5t-123 20q-76 0 -152.5 -27.5t-124.5 -70.5v229q44 40 123 67t152 27q71 0 148.5 -20.5t133.5 -45t123.5 -45t120.5 -20.5q77 0 152.5 27.5t121.5 70.5v-227q-41 -41 -117.5 -67.5t-152.5 -26.5zM981 410
q-61 0 -137.5 20.5t-136.5 45t-131 45t-123 20.5q-76 0 -152.5 -28t-124.5 -71v228q44 41 122.5 68.5t152.5 27.5q71 0 148.5 -20.5t133.5 -45t123.5 -45t120.5 -20.5q77 0 152.5 27.5t121.5 70.5v-229q-42 -40 -118.5 -67t-151.5 -27z" />
    <glyph glyph-name="asciitilde.case" 
d="M932 526q-70 0 -134.5 24.5t-105 53.5t-90.5 53.5t-94 24.5q-63 0 -105 -37t-57 -106l-201 49q29 144 122.5 221.5t226.5 77.5q71 0 137 -24.5t106.5 -53.5t90.5 -53.5t94 -24.5q122 0 159 146l199 -46q-28 -149 -122.5 -227t-225.5 -78z" />
    <glyph glyph-name="logicalnot.case" 
d="M174 893h1051v-541h-228v324h-823v217z" />
    <glyph glyph-name="infinity.case" horiz-adv-x="1435" 
d="M1038 1114q149 0 242.5 -91t93.5 -247q0 -152 -95 -247t-241 -95q-190 0 -323 172q-64 -82 -138.5 -127t-179.5 -45q-148 0 -242 91.5t-94 246.5q0 152 95.5 247t240.5 95q191 0 324 -172q64 82 138 127t179 45zM422 637q58 0 100.5 33.5t85.5 99.5q-86 141 -186 141
q-62 0 -98.5 -35.5t-36.5 -101.5q0 -65 38 -101t97 -36zM1016 637q60 0 96.5 35.5t36.5 101.5q0 65 -38 101t-97 36q-58 0 -100 -33.5t-85 -99.5q83 -141 187 -141z" />
    <glyph glyph-name="emptyset.case" horiz-adv-x="1224" 
d="M1169 1161l-125 -119q115 -127 115 -315q0 -219 -151 -352t-396 -133q-186 0 -329 84l-133 -125l-95 90l127 119q-116 129 -116 315q0 219 151 353t395 134q192 0 330 -86l133 125zM330 727q0 -80 39 -141l389 366q-64 31 -146 31q-128 0 -205 -69.5t-77 -186.5zM895 725
q0 80 -39 141l-389 -366q64 -31 145 -31q128 0 205.5 69.5t77.5 186.5z" />
    <glyph glyph-name="plus.tf.case" 
d="M1255 887v-221h-421v-394h-244v394h-420v221h420v370h244v-370h421z" />
    <glyph glyph-name="minus.tf.case" 
d="M170 662v227h1085v-227h-1085z" />
    <glyph glyph-name="divide.tf.case" 
d="M690 999q-63 0 -104 41t-41 105q0 65 40.5 106t104.5 41t106 -40.5t42 -106.5q0 -63 -42.5 -104.5t-105.5 -41.5zM152 662v223h1085v-223h-1085zM690 248q-64 0 -104.5 41t-40.5 106t40.5 105.5t104.5 40.5t106 -40.5t42 -105.5q0 -64 -42.5 -105.5t-105.5 -41.5z" />
    <glyph glyph-name="equal.tf.case" 
d="M141 864v217h1073v-217h-1073zM141 471v217h1073v-217h-1073z" />
    <glyph glyph-name="emptyset.tf.case" 
d="M1272 1161l-125 -119q115 -127 115 -315q0 -219 -151.5 -352t-397.5 -133q-189 0 -328 84l-133 -125l-96 90l127 119q-117 130 -117 315q0 219 152 353t397 134q191 0 329 -86l134 125zM430 727q0 -80 39 -141l391 366q-64 31 -145 31q-128 0 -206.5 -70t-78.5 -186z
M997 725q0 80 -39 141l-389 -366q64 -31 144 -31q129 0 206.5 69.5t77.5 186.5z" />
    <glyph glyph-name="plus.subs" horiz-adv-x="995" 
d="M909 293v-178h-315v-283h-193v283h-315v178h315v268h193v-268h315z" />
    <glyph glyph-name="minus.subs" horiz-adv-x="995" 
d="M86 117v176h823v-176h-823z" />
    <glyph glyph-name="multiply.subs" horiz-adv-x="1103" 
d="M977 465l-289 -264l287 -260l-131 -129l-291 266l-291 -266l-133 127l289 262l-289 264l133 125l291 -264l289 264z" />
    <glyph glyph-name="divide.subs" horiz-adv-x="995" 
d="M494 362q-52 0 -84.5 31.5t-32.5 83.5q0 53 32.5 85t84.5 32t85 -32t33 -85q0 -51 -33.5 -83t-84.5 -32zM86 117v176h823v-176h-823zM494 -190q-51 0 -84 31.5t-33 82.5q0 54 32.5 86.5t84.5 32.5t85 -33t33 -86q0 -51 -33.5 -82.5t-84.5 -31.5z" />
    <glyph glyph-name="plus.sups" horiz-adv-x="995" 
d="M909 1214v-178h-315v-282h-193v282h-315v178h315v269h193v-269h315z" />
    <glyph glyph-name="minus.sups" horiz-adv-x="995" 
d="M86 1038v176h823v-176h-823z" />
    <glyph glyph-name="multiply.sups" horiz-adv-x="1103" 
d="M977 1386l-289 -264l287 -260l-131 -129l-291 266l-291 -266l-133 127l289 262l-289 264l133 125l291 -264l289 264z" />
    <glyph glyph-name="divide.sups" horiz-adv-x="995" 
d="M494 1284q-52 0 -84.5 31.5t-32.5 83.5q0 53 32.5 85t84.5 32t85 -32t33 -85q0 -51 -33.5 -83t-84.5 -32zM86 1038v176h823v-176h-823zM494 731q-51 0 -84 32t-33 83q0 54 32.5 86.5t84.5 32.5t85 -33t33 -86q0 -51 -33.5 -83t-84.5 -32z" />
    <glyph glyph-name="plus.tf" 
d="M1255 784v-221h-421v-393h-244v393h-420v221h420v371h244v-371h421z" />
    <glyph glyph-name="minus.tf" 
d="M170 559v227h1085v-227h-1085z" />
    <glyph glyph-name="divide.tf" 
d="M690 897q-63 0 -104 40.5t-41 104.5q0 66 41 107t104 41q64 0 106 -41t42 -107q0 -63 -42.5 -104t-105.5 -41zM152 559v223h1085v-223h-1085zM690 145q-63 0 -104 41t-41 107q0 65 40.5 105t104.5 40t106 -40t42 -105q0 -64 -42.5 -106t-105.5 -42z" />
    <glyph glyph-name="equal.tf" 
d="M141 762v217h1073v-217h-1073zM141 369v217h1073v-217h-1073z" />
    <glyph glyph-name="emptyset.tf" 
d="M1272 1059l-125 -119q115 -127 115 -315q0 -219 -152 -352.5t-397 -133.5q-189 0 -328 84l-133 -125l-96 90l127 119q-117 130 -117 316q0 219 152 353t397 134q191 0 329 -86l134 125zM430 625q0 -81 39 -142l391 367q-64 31 -145 31q-128 0 -206.5 -70t-78.5 -186z
M997 623q0 80 -39 141l-389 -367q61 -30 144 -30q129 0 206.5 69.5t77.5 186.5z" />
    </font>
</defs>
</svg>
