<?xml version="1.0" encoding="utf-8"?>
<!-- Generator: Adobe Illustrator 27.8.0, SVG Export Plug-In . SVG Version: 6.00 Build 0)  -->
<svg version="1.1" id="Layer_1" xmlns="http://www.w3.org/2000/svg" xmlns:xlink="http://www.w3.org/1999/xlink" x="0px" y="0px"
	 viewBox="0 0 489 104" style="enable-background:new 0 0 489 104;" xml:space="preserve">
<g>
	<path d="M72.1,0.3h24L24.1,104.4h-24L72.1,0.3z"/>
	<path d="M100,10.9h30.8l18.9,52.3c1.2,3.7,2,7,2.4,9.9h0.2c0.4-2.9,1.3-6.2,2.5-10l18.5-52.1h31.2v85.3h-19.7V39.2
		c0-3.6,0.2-7.6,0.6-11.2H185c-0.5,2.3-1.8,6.7-3,9.9l-20.9,58.4h-19l-21-58.4c-1.2-3.1-2.3-7.1-2.8-9.7h-0.5
		c0.5,3.1,0.6,7.1,0.6,11.1v57.1H100V10.9z"/>
	<path d="M239.6,10.9v50.5c0,11.9,7.4,20.1,20.4,20.1c13,0,20.4-8.2,20.4-20.1V10.9H302v51.9c0,21.6-15.4,35.8-42.1,35.8
		s-42.1-14.3-42.1-35.9V10.9H239.6z"/>
	<path d="M391.9,28h-29.6v68.2h-21.5V28h-29.6V10.9h80.6V28z"/>
	<path d="M391.9,53.6c0-27.5,19.1-45.1,48.5-45.1S489,26.1,489,53.6c0,27.5-19.1,45.1-48.5,45.1S391.9,81.1,391.9,53.6z M466.5,53.6
		c0-17.5-10.1-28.5-26.1-28.5c-16,0-26.1,10.9-26.1,28.5c0,17.4,10.1,28.5,26.1,28.5C456.4,82.1,466.5,71.1,466.5,53.6z"/>
</g>
</svg>
